<svg viewBox="-1 -1 22 22" version="1.1" xmlns="http://www.w3.org/2000/svg">
    <title>Grid</title>
    <g strok="none" stroke-width="1" fill-rule="evenodd" >
        <g transform="translate(-1190.000000, -111.000000)">
            <g transform="translate(1180.000000, 101.000000)">
                <path d="M28.245614,29.6494737 L22.6315789,29.6494737 C21.8564912,29.6494737 21.2280702,29.0210526 21.2280702,28.245614 L21.2280702,22.6315789 C21.2280702,21.8568421 21.8564912,21.2280702 22.6315789,21.2280702 L28.245614,21.2280702 C29.0210526,21.2280702 29.6491228,21.8568421 29.6491228,22.6315789 L29.6491228,28.245614 C29.6491228,29.0210526 29.0210526,29.6494737 28.245614,29.6494737 L28.245614,29.6494737 Z M28.245614,23.3333333 C28.245614,22.9459649 27.9315789,22.6315789 27.5442105,22.6315789 L23.3336842,22.6315789 C22.9459649,22.6315789 22.6315789,22.9459649 22.6315789,23.3333333 L22.6315789,27.5445614 C22.6315789,27.9322807 22.9459649,28.245614 23.3336842,28.245614 L27.5442105,28.245614 C27.9315789,28.245614 28.245614,27.9322807 28.245614,27.5445614 L28.245614,23.3333333 L28.245614,23.3333333 Z M28.245614,18.4214035 L22.6315789,18.4214035 C21.8564912,18.4214035 21.2280702,17.7929825 21.2280702,17.0185965 L21.2280702,11.4045614 C21.2280702,10.6287719 21.8564912,10 22.6315789,10 L28.245614,10 C29.0210526,10 29.6491228,10.6287719 29.6491228,11.4045614 L29.6491228,17.0185965 C29.6491228,17.7929825 29.0210526,18.4214035 28.245614,18.4214035 L28.245614,18.4214035 Z M28.245614,12.1049123 C28.245614,11.7178947 27.9315789,11.4045614 27.5442105,11.4045614 L23.3336842,11.4045614 C22.9459649,11.4045614 22.6315789,11.7178947 22.6315789,12.1049123 L22.6315789,16.3164912 C22.6315789,16.7035088 22.9459649,17.0185965 23.3336842,17.0185965 L27.5442105,17.0185965 C27.9315789,17.0185965 28.245614,16.7035088 28.245614,16.3164912 L28.245614,12.1049123 L28.245614,12.1049123 Z M17.0178947,29.6494737 L11.4035088,29.6494737 C10.6284211,29.6494737 10,29.0210526 10,28.245614 L10,22.6315789 C10,21.8568421 10.6284211,21.2280702 11.4035088,21.2280702 L17.0178947,21.2280702 C17.7929825,21.2280702 18.4210526,21.8568421 18.4210526,22.6315789 L18.4210526,28.245614 C18.4210526,29.0210526 17.7929825,29.6494737 17.0178947,29.6494737 L17.0178947,29.6494737 Z M17.0178947,23.3333333 C17.0178947,22.9459649 16.7031579,22.6315789 16.3161404,22.6315789 L12.1052632,22.6315789 C11.7175439,22.6315789 11.4035088,22.9459649 11.4035088,23.3333333 L11.4035088,27.5445614 C11.4035088,27.9322807 11.7175439,28.245614 12.1052632,28.245614 L16.3161404,28.245614 C16.7031579,28.245614 17.0178947,27.9322807 17.0178947,27.5445614 L17.0178947,23.3333333 L17.0178947,23.3333333 Z M17.0178947,18.4214035 L11.4035088,18.4214035 C10.6284211,18.4214035 10,17.7929825 10,17.0185965 L10,11.4045614 C10,10.6287719 10.6284211,10 11.4035088,10 L17.0178947,10 C17.7929825,10 18.4210526,10.6287719 18.4210526,11.4045614 L18.4210526,17.0185965 C18.4210526,17.7929825 17.7929825,18.4214035 17.0178947,18.4214035 L17.0178947,18.4214035 Z M17.0178947,12.1049123 C17.0178947,11.7178947 16.7031579,11.4045614 16.3161404,11.4045614 L12.1052632,11.4045614 C11.7175439,11.4045614 11.4035088,11.7178947 11.4035088,12.1049123 L11.4035088,16.3164912 C11.4035088,16.7035088 11.7175439,17.0185965 12.1052632,17.0185965 L16.3161404,17.0185965 C16.7031579,17.0185965 17.0178947,16.7035088 17.0178947,16.3164912 L17.0178947,12.1049123 L17.0178947,12.1049123 Z" </path>
            </g>
        </g>
    </g>
</svg>
