<svg xmlns="http://www.w3.org/2000/svg" width="320" height="305" viewBox="0 0 320 305">
    <g fill="none" fill-rule="nonzero">
        <path fill="#EAF0FF" d="M319.385 42.527v255.65a6.115 6.115 0 0 1-6.115 6.115H6.115A6.115 6.115 0 0 1 0 298.178V42.527a6.115 6.115 0 0 1 1.794-4.321L38.206 1.794A6.115 6.115 0 0 1 42.526 0h234.332a6.115 6.115 0 0 1 4.321 1.794l36.412 36.412a6.115 6.115 0 0 1 1.794 4.32z"/>
        <path fill="#C5E5EF" d="M182.622 177.323l.928.469-.928-.47zm41.508-39.602c-3.587-7.847-3.23-14.848-9.64-20.983-.571-.53-1.162-1.02-1.743-1.59a72.437 72.437 0 0 0-7.134-5.707 76.275 76.275 0 0 0-1.763-1.203 88.244 88.244 0 0 0-49.05-14.41h-2.078a87.459 87.459 0 0 0-49.793 16.428 64.801 64.801 0 0 0-2.242 1.712 70.644 70.644 0 0 0-20.739 25.875 61.839 61.839 0 0 0-5.686 25.885v140.564h151.264l3.77-140.564a62.073 62.073 0 0 0-5.166-25.966v-.041zm-98.74 32.61a25.335 25.335 0 0 1 1.141-7.53 26.221 26.221 0 0 1 4.076-8.01 28.77 28.77 0 0 1 12.23-9.437 30.206 30.206 0 0 1 11.648-2.293c13.32 0 24.57 8.407 28.005 19.882a25.243 25.243 0 0 1 1.019 6.41v1.02c.003 2.078-.25 4.149-.754 6.165-.061.255-.133.52-.204.785l-.336 1.1a26.772 26.772 0 0 1-4.2 7.878 23.211 23.211 0 0 1-1.436 1.712c-.133.143-.275.306-.418.449a28.219 28.219 0 0 1-7.286 5.564c-.663.357-1.366.693-2.039 1.019a26.11 26.11 0 0 1-3.954 1.437l-.744.204a29.38 29.38 0 0 1-4.667.805c-.642 0-1.284.102-1.936.132h-1.04a30.257 30.257 0 0 1-8.601-1.223 22.66 22.66 0 0 1-2.038-.662 28.942 28.942 0 0 1-8.153-4.586 22.481 22.481 0 0 1-2.038-1.773 25.027 25.027 0 0 1-1.152-1.172 26.405 26.405 0 0 1-4.107-5.789 25.192 25.192 0 0 1-2.741-8.693 23.44 23.44 0 0 1-.316-3.312l.04-.081z"/>
        <path fill="#6670C3" d="M229.684 141.094c-8.927-30.573-39.062-52.993-74.883-52.993s-65.915 22.42-74.863 52.911a66.649 66.649 0 0 0-2.721 18.874v144.406h155.137V159.896a66.455 66.455 0 0 0-2.67-18.802zM126.49 166.775v-1.192a27.72 27.72 0 0 1 1.447-7.857c4.37-12.775 17.227-20.619 30.586-18.659 13.359 1.96 23.42 13.167 23.936 26.659v1.019a28.26 28.26 0 0 1-.611 5.85 28.107 28.107 0 0 1-19.363 21.003 25.477 25.477 0 0 1-4.077.876 4.85 4.85 0 0 1-.57.072 26.497 26.497 0 0 1-3.384.214c-.886 0-1.763 0-2.619-.123a.764.764 0 0 1-.214 0 26.323 26.323 0 0 1-4.341-.795 27.516 27.516 0 0 1-9.304-4.443 27.801 27.801 0 0 1-11.526-22.634l.04.01z"/>
        <circle cx="154.454" cy="176.497" r="52.341" fill="#E1F1F6"/>
        <path fill="#C5E5EF" d="M117.033 157.726h41.518c1.294 0 2.782-4.495-1.019-6.38a5.473 5.473 0 0 0-4.81.153c-.112.061-.255.153-.316.173a.224.224 0 0 1-.265-.102c-1.02-1.987-4.015-1.671-5.799-.377a.326.326 0 0 1-.499-.183c-.917-3.577-5.29-2.925-7.134-1.131-.804.799-1.666 1.538-2.578 2.211a1.417 1.417 0 0 1-1.61.133 4.22 4.22 0 0 0-2.181-.581 4.168 4.168 0 0 0-2.772 1.019l-1.02.917c-1.15 1.019-1.956 2.578-5.003 3.17-3.047.59-6.512.978-6.512.978z"/>
        <path fill="#C5E5EF" d="M218.189 152.324v57.325c-.653.091-127.703.142-131.729.142v-46.735c7.134 0 9.02 1.019 12.708 2.394 10.08 3.771 6.818 10.854 30.135 10.854 8.683 0 6.848 4.759 15.755 5.992a28.82 28.82 0 0 0 3.119.265h1.66a27.414 27.414 0 0 0 3.802-.285c.72-.102 1.454-.225 2.201-.367 13.85-2.762 31.134-13.248 41.376-13.248 11.78 0 4.219-17.274 17.202-17.274a8.153 8.153 0 0 1 3.77.937z"/>
        <ellipse cx="154.984" cy="197.654" fill="#A6D8E7" rx="34.344" ry="9.498"/>
        <path fill="#067DB8" d="M149.502 184.008a.265.265 0 0 0-.52 0l-2.314 13.697a.887.887 0 0 0 1.427.886l4.077-4.188-2.67-10.395zM160.365 184.008a.265.265 0 0 1 .52 0l2.313 13.697a.876.876 0 0 1-1.416.886l-4.077-4.188 2.66-10.395z"/>
        <path fill="#49AFD9" d="M154.903 154.21c-3.261 0-7.277 8.153-7.277 18.18 0 9.712 2.721 25.57 7.725 25.57 4.005 0 6.828-16.204 6.828-25.59 0-10.65-3.954-18.16-7.276-18.16z"/>
        <circle cx="154.903" cy="171.269" r="3.689" fill="#067DB8"/>
        <path fill="#003D79" d="M154.903 167.59a3.69 3.69 0 1 0 3.689 3.67 3.679 3.679 0 0 0-3.69-3.67zm0 6.38a2.71 2.71 0 1 1 2.72-2.7 2.7 2.7 0 0 1-2.72 2.7z"/>
        <circle cx="154.903" cy="171.269" r="2.711" fill="#C5E5EF"/>
        <path fill="#004D8A" d="M149.502 184.008a.265.265 0 0 0-.52 0l-2.314 13.697a.887.887 0 0 0 1.427.886l4.077-4.188-2.67-10.395zM160.365 184.008a.265.265 0 0 1 .52 0l2.313 13.697a.876.876 0 0 1-1.416.886l-4.077-4.188 2.66-10.395zM156.258 198.724h-2.272a.693.693 0 0 1-.693-.703v-1.274s.203-.306 1.834-.306c1.63 0 1.834.306 1.834.306v1.274a.703.703 0 0 1-.703.703z"/>
        <path fill="#8088CD" d="M154.8 97.833h-2.078c-37.154.967-66.768 31.368-66.761 68.535V304.25H223.05V166.408c.011-37.75-30.499-68.406-68.25-68.575zm-24.05 54.074a28.015 28.015 0 0 1 51.75 13.808v1.02a28.26 28.26 0 0 1-.612 5.85 28.107 28.107 0 0 1-19.362 21.003 25.477 25.477 0 0 1-4.077.876c-.188.035-.379.059-.57.071a26.497 26.497 0 0 1-3.384.214c-.887 0-1.763 0-2.619-.122a.764.764 0 0 1-.214 0 26.323 26.323 0 0 1-4.341-.795 27.516 27.516 0 0 1-9.305-4.443 27.801 27.801 0 0 1-11.526-22.634v-1.193a27.72 27.72 0 0 1 1.447-7.857 28.178 28.178 0 0 1 2.813-5.788v-.01z"/>
        <path fill="#101C81" d="M154.465 130.322c-16.534.007-30.993 11.137-35.23 27.118a1.671 1.671 0 0 0-.072.286 36.402 36.402 0 0 0-1.141 9.05 36.443 36.443 0 0 0 9.966 25.018 36.443 36.443 0 1 0 52.26-50.799 36.453 36.453 0 0 0-25.783-10.673zm-23.715 21.595a28.015 28.015 0 0 1 51.75 13.809v1.019a28.26 28.26 0 0 1-.612 5.85 28.107 28.107 0 0 1-19.362 21.003 25.477 25.477 0 0 1-4.077.876c-.188.035-.379.06-.57.072a26.497 26.497 0 0 1-3.384.214c-.887 0-1.763 0-2.619-.123a.764.764 0 0 1-.214 0 26.323 26.323 0 0 1-4.341-.795 27.516 27.516 0 0 1-9.305-4.443 27.801 27.801 0 0 1-11.526-22.634v-1.192a27.72 27.72 0 0 1 1.447-7.858 28.178 28.178 0 0 1 2.813-5.798z"/>
        <circle cx="206.326" cy="228.298" r="4.301" fill="#4A54B6"/>
        <path fill="#4A54B6" d="M190.571 226.433h14.9v3.72h-14.9a1.335 1.335 0 0 1-1.335-1.335v-1.02a1.335 1.335 0 0 1 1.335-1.365zM81.732 301.082c-.784 0-1.422.633-1.427 1.417v.07a1.396 1.396 0 0 0 1.427 1.397 1.457 1.457 0 0 0 1.426-1.467 1.417 1.417 0 0 0-1.426-1.417zm146.169-2.436a1.447 1.447 0 0 0-1.417 1.468 1.427 1.427 0 0 0 2.843 0v-.071a1.386 1.386 0 0 0-1.426-1.397zm-146.17-7.602c-.787 0-1.426.639-1.426 1.427v.071a1.396 1.396 0 0 0 1.427 1.396 1.457 1.457 0 0 0 1.012-2.473 1.427 1.427 0 0 0-1.012-.421zm146.17-3.852a1.447 1.447 0 0 0-1.417 1.467 1.427 1.427 0 0 0 2.843 0v-.071a1.386 1.386 0 0 0-1.426-1.396zm-146.17-7.603c-.787 0-1.426.639-1.426 1.427v.071a1.396 1.396 0 0 0 1.427 1.396 1.457 1.457 0 0 0 1.426-1.467c0-.788-.638-1.427-1.426-1.427zm146.17-3.852a1.447 1.447 0 0 0-1.417 1.457 1.427 1.427 0 1 0 2.843 0v-.06a1.386 1.386 0 0 0-1.426-1.397zm-146.17-7.602c-.787 0-1.426.638-1.426 1.426v.072a1.386 1.386 0 0 0 1.427 1.386 1.447 1.447 0 0 0 1.426-1.458c0-.788-.638-1.426-1.426-1.426zm146.17-3.853a1.447 1.447 0 0 0-1.417 1.458 1.427 1.427 0 1 0 2.843 0v-.072a1.386 1.386 0 0 0-1.426-1.386zM81.73 256.68c-.787 0-1.426.639-1.426 1.427v.071a1.386 1.386 0 0 0 1.427 1.386 1.447 1.447 0 0 0 1.008-2.466 1.427 1.427 0 0 0-1.008-.418zm146.17-3.852a1.447 1.447 0 0 0-1.417 1.457 1.427 1.427 0 1 0 2.843 0v-.071a1.386 1.386 0 0 0-1.426-1.386zm-146.17-7.603c-.787 0-1.426.64-1.426 1.427v.071a1.386 1.386 0 0 0 1.427 1.386 1.447 1.447 0 0 0 1.426-1.488 1.427 1.427 0 0 0-1.426-1.396zm146.17-3.852a1.447 1.447 0 0 0-1.417 1.457 1.427 1.427 0 1 0 2.843 0v-.07a1.386 1.386 0 0 0-1.426-1.387zm-146.17-7.602c-.787 0-1.426.638-1.426 1.426v.062a1.396 1.396 0 0 0 1.427 1.396 1.447 1.447 0 0 0 1.008-2.466 1.427 1.427 0 0 0-1.008-.418zm146.17-3.863a1.447 1.447 0 0 0-1.417 1.468 1.427 1.427 0 1 0 2.843 0v-.041a1.396 1.396 0 0 0-1.426-1.427zm-146.17-7.592c-.783 0-1.42.633-1.426 1.417v.07a1.396 1.396 0 0 0 1.427 1.417 1.447 1.447 0 0 0 1.426-1.467 1.427 1.427 0 0 0-1.426-1.437zm146.17-3.862a1.447 1.447 0 0 0-1.417 1.467 1.427 1.427 0 1 0 2.843 0v-.071a1.396 1.396 0 0 0-1.426-1.396zM81.73 210.86c-.783 0-1.42.633-1.426 1.417v.071a1.396 1.396 0 0 0 1.427 1.396 1.447 1.447 0 0 0 1.426-1.467 1.427 1.427 0 0 0-1.426-1.417zM227.902 207a1.447 1.447 0 0 0-1.417 1.467 1.427 1.427 0 1 0 2.843 0v-.07a1.396 1.396 0 0 0-1.426-1.397zm-146.17-7.592c-.783 0-1.42.632-1.426 1.416v.072a1.396 1.396 0 0 0 1.427 1.396 1.447 1.447 0 0 0 1.426-1.468 1.427 1.427 0 0 0-1.426-1.416zm146.17-3.863a1.447 1.447 0 0 0-1.417 1.468 1.427 1.427 0 1 0 2.843 0v-.072a1.396 1.396 0 0 0-1.426-1.396zm-146.17-7.592c-.783 0-1.42.633-1.426 1.417v.07a1.396 1.396 0 0 0 1.427 1.397 1.447 1.447 0 0 0 1.426-1.467 1.427 1.427 0 0 0-1.426-1.417zm146.17-3.862a1.447 1.447 0 0 0-1.417 1.467 1.427 1.427 0 1 0 2.843 0v-.081a1.396 1.396 0 0 0-1.426-1.386zm-146.17-7.593c-.783 0-1.42.633-1.426 1.417v.071a1.396 1.396 0 0 0 1.427 1.376 1.457 1.457 0 0 0 1.426-1.467 1.417 1.417 0 0 0-1.426-1.397zm146.17-3.862a1.447 1.447 0 0 0-1.417 1.468 1.427 1.427 0 1 0 2.843 0v-.072a1.396 1.396 0 0 0-1.426-1.396zm-146.17-7.541c-.783 0-1.42.632-1.426 1.416v.072a1.396 1.396 0 0 0 1.427 1.396 1.457 1.457 0 0 0 1.426-1.468 1.417 1.417 0 0 0-1.426-1.416zm.439-11.384c-.783 0-1.417.635-1.417 1.417v.092a1.396 1.396 0 0 0 1.417 1.375 1.457 1.457 0 0 0 1.427-1.467 1.427 1.427 0 0 0-1.427-1.468v.051zm145.73 7.521a1.447 1.447 0 0 0-1.416 1.468 1.427 1.427 0 1 0 2.843 0v-.072a1.396 1.396 0 0 0-1.426-1.447v.051zm.45-10.262a1.417 1.417 0 0 0-1.642-1.11 1.467 1.467 0 0 0-1.172 1.65c.11.697.71 1.212 1.417 1.213.07.01.143.01.214 0a1.417 1.417 0 0 0 1.192-1.62s-.01-.164-.01-.184v.051zm-143.561-8.51a1.417 1.417 0 0 0-1.763.948v.092a1.396 1.396 0 0 0 1.019 1.712c.117.043.242.064.367.061.637 0 1.201-.412 1.396-1.019a1.406 1.406 0 0 0-1.02-1.793zm4.29-10.608a1.447 1.447 0 0 0-1.895.683l1.263.662-1.263-.642a1.417 1.417 0 0 0 1.263 2.059 1.437 1.437 0 0 0 1.284-.785.438.438 0 0 1 0-.122 1.417 1.417 0 0 0-.652-1.855zm5.789-9.875a1.457 1.457 0 0 0-1.896.683l1.264.662-1.264-.642a1.417 1.417 0 0 0 .642 1.906c.193.098.406.15.622.152.544 0 1.04-.308 1.284-.794a.703.703 0 0 1 .061-.133 1.406 1.406 0 0 0-.713-1.834zm125.777 7.042a1.386 1.386 0 0 0-1.916-.51 1.467 1.467 0 0 0-.53 1.977c.25.44.716.713 1.223.714.245-.005.487-.067.703-.184.691-.41.923-1.302.52-1.997zm4.728 10.445a1.396 1.396 0 0 0-1.926-.499 1.437 1.437 0 0 0-.51 1.967c.241.443.71.715 1.213.703a1.406 1.406 0 0 0 1.386-1.07c.096-.374.037-.77-.163-1.1zm-11.21-20.127a.438.438 0 0 1-.06-.071 1.406 1.406 0 0 0-1.397-.48 1.63 1.63 0 0 0-.581.286c-.61.512-.7 1.416-.204 2.038a1.417 1.417 0 0 0 2.528-.743 1.376 1.376 0 0 0-.245-1.03h-.04zm-111.234-5.38a1.294 1.294 0 0 0-.357-.5 1.457 1.457 0 0 0-2.038 0 1.427 1.427 0 0 0 0 2.038.479.479 0 0 0 .122.092c.55.484 1.385.443 1.886-.092l.122-.112c.348-.389.45-.939.265-1.427zm103.316-3.19a1.437 1.437 0 0 0-2.038 0c-.311.325-.448.78-.367 1.223.04.303.189.581.418.784l.112.112c.253.215.575.33.907.326.108.016.218.016.326 0 .29-.066.55-.223.744-.448a1.427 1.427 0 0 0-.112-1.997h.01zm-94.848-4.627a1.406 1.406 0 0 0-1.977-.326l-.081.061a1.386 1.386 0 0 0-.275 1.957c.27.363.698.575 1.151.57.306.003.606-.09.856-.265a1.437 1.437 0 0 0 .316-1.997h.01zm85.727-2.517l-.143-.102a1.406 1.406 0 0 0-1.905.438 1.447 1.447 0 0 0 .397 1.967c.236.182.527.279.825.275a1.427 1.427 0 0 0 .826-2.578zm-75.933-3.404a1.447 1.447 0 0 0-1.926-.58h-.071a1.406 1.406 0 0 0-.55 1.915c.254.459.738.744 1.263.744a1.59 1.59 0 0 0 .703-.173c.666-.383.917-1.22.57-1.906h.011zm10.609-4.24a1.406 1.406 0 0 0-1.763-.947.897.897 0 0 0-.153 0 1.366 1.366 0 0 0-.815 1.763 1.437 1.437 0 0 0 1.375 1.04 1.57 1.57 0 0 0 .428-.072 1.406 1.406 0 0 0 .918-1.783h.01zm11.088-2.863a1.417 1.417 0 0 0-1.774-.948.601.601 0 0 0-.142.061 1.386 1.386 0 0 0-.826 1.774 1.457 1.457 0 0 0 1.794.896 1.427 1.427 0 0 0 .937-1.783h.01zm33.029.754l-.429 1.355.418-1.365a1.447 1.447 0 0 0-1.783.958 1.427 1.427 0 0 0 .958 1.773h.143c.106.031.215.048.326.051a1.427 1.427 0 0 0 1.365-1.07 1.447 1.447 0 0 0-1.009-1.702h.01zm10.73 3.964l-.427 1.346.417-1.346a1.396 1.396 0 0 0-1.763.938 1.417 1.417 0 0 0 .938 1.773h.153c.108.01.217.01.326 0a1.427 1.427 0 0 0 .357-2.802v.091zm-22.155-6.277h-.07a1.386 1.386 0 0 0-1.54 1.233 1.467 1.467 0 0 0 1.284 1.6h.174c.719 0 1.323-.54 1.406-1.254a1.437 1.437 0 0 0-1.254-1.58zm-11.627-.571v1.427-1.427a1.427 1.427 0 0 0 0 2.843h.163a1.396 1.396 0 0 0 1.314-1.477 1.447 1.447 0 0 0-1.477-1.366zM156.94 197.256h-.142a1.63 1.63 0 0 0-.397-.05h-.072c-.493.02-.935.31-1.151.754-.12.228-.173.486-.153.744.02.403.217.776.54 1.019.255.204.57.315.897.316h.081c.366-.02.709-.181.958-.449.269-.269.41-.64.388-1.019a1.447 1.447 0 0 0-.948-1.315zm-11.372-1.314h-.092a1.406 1.406 0 0 0-1.661 1.946c.176.378.5.665.897.795.139.04.283.061.428.061.255 0 .506-.07.723-.204.31-.17.54-.456.642-.794a1.437 1.437 0 0 0-.907-1.804h-.03zm23.266-.622a1.437 1.437 0 0 0-1.875-.744h-.092a1.376 1.376 0 0 0-.683 1.845c.138.299.376.54.673.683.39.182.842.182 1.233 0 .432-.176.744-.56.825-1.02.056-.254.038-.52-.05-.764h-.031zm-32.948-4.28a.54.54 0 0 0-.112-.092 1.376 1.376 0 0 0-1.936.286 1.671 1.671 0 0 0-.214.397 1.498 1.498 0 0 0 .469 1.61c.253.207.57.319.897.316.236.001.469-.062.672-.183a1.09 1.09 0 0 0 .428-.347 1.396 1.396 0 0 0-.173-1.987h-.03zm42.17-2.436a.296.296 0 0 0-.091-.112 1.406 1.406 0 0 0-2.038 0s-.072.051-.072.072a1.355 1.355 0 0 0-.265 1.549c.065.16.162.306.286.428.09.085.188.16.295.224.213.125.457.189.703.183.336 0 .661-.119.918-.336a.438.438 0 0 0 .102-.071 1.417 1.417 0 0 0 .193-1.937h-.03zM128.479 183v-.071a1.396 1.396 0 0 0-1.254-.632c-.25.017-.492.098-.703.234a1.447 1.447 0 0 0-.408 1.988c.257.41.709.658 1.193.652.272 0 .54-.074.774-.214.104-.067.2-.146.285-.234a1.467 1.467 0 0 0 .143-1.723h-.03zm-4.301-9.987v-.071a1.406 1.406 0 0 0-1.947-.408 1.447 1.447 0 0 0-.417 2.038c.259.408.709.654 1.192.653.273-.001.54-.075.775-.214a1.427 1.427 0 0 0 .428-1.998h-.031zm59.953 5.9a1.417 1.417 0 0 0-1.335.103c-.234.139-.422.344-.54.59l.337.174.927.469-.927-.449-.357-.173c-.198.394-.198.86 0 1.254.125.283.345.514.622.652.2.095.42.144.642.142.537.006 1.03-.3 1.263-.784l.072-.123a1.427 1.427 0 0 0-.673-1.854h-.03zm2.487-11.138a1.427 1.427 0 0 0-1.549 1.294v.102a1.386 1.386 0 0 0 1.294 1.508h.133a1.467 1.467 0 0 0 1.437-1.345 1.427 1.427 0 0 0-1.284-1.56h-.031zm-63.816-7.389a1.447 1.447 0 0 0-1.62 1.234 1.406 1.406 0 0 0 1.192 1.61c.071.01.143.01.214 0a1.427 1.427 0 0 0 1.437-1.193v-.07a1.386 1.386 0 0 0-1.192-1.58h-.03zm64-2.904a1.418 1.418 0 0 0-2.742.724.469.469 0 0 0 0 .091 1.366 1.366 0 0 0 1.733.958 1.427 1.427 0 0 0 1.039-1.773h-.03zm-59.903-7.735a1.447 1.447 0 0 0-1.936.581 1.406 1.406 0 0 0 .53 1.936c.215.119.457.182.703.184a1.447 1.447 0 0 0 1.243-.714 1.019 1.019 0 0 0 0-.102c.371-.662.145-1.5-.51-1.885h-.03zm54.776-2.996a1.427 1.427 0 1 0-2.323 1.65v.052c.253.362.669.576 1.11.57a1.427 1.427 0 0 0 1.173-2.272h.04zm-47.153-5.534a1.457 1.457 0 0 0-2.038-.142 1.437 1.437 0 0 0-.174 2.038c.516.61 1.428.688 2.039.173l.06-.061a1.406 1.406 0 0 0 .113-2.008zm38.603-2.69a1.42 1.42 0 0 0-1.62 2.334c.03.029.064.053.102.07a1.396 1.396 0 0 0 1.916-.428 1.437 1.437 0 0 0-.418-1.976h.02zm-28.535-2.7a1.457 1.457 0 0 0-1.864-.826 1.429 1.429 0 0 0 1.019 2.67h.06a1.406 1.406 0 0 0 .745-1.845h.04zm9.886-2.946a1.427 1.427 0 1 0 0 2.843h.071a1.406 1.406 0 0 0 1.396-1.426 1.457 1.457 0 0 0-1.508-1.417h.04zm9.59 1.417a1.427 1.427 0 1 0 0 2.853h.01a1.396 1.396 0 0 0 1.386-1.427 1.457 1.457 0 0 0-1.386-1.426h-.01z"/>
        <path fill="#B5BCE7" d="M247.844 185.72h39.338a2.589 2.589 0 0 1 2.588 2.589v46.654h-44.524v-46.654a2.589 2.589 0 0 1 2.598-2.589z"/>
        <rect width="36.188" height="37.248" x="249.414" y="189.634" fill="#EAF0FF" rx="2.96"/>
        <path fill="#9AA2DB" d="M245.246 234.973h44.524l-1.467 4.892a2.69 2.69 0 0 1-2.569 1.916h-36.453a2.69 2.69 0 0 1-2.568-1.916l-1.467-4.892z"/>
        <path fill="#F89896" d="M274.34 198.214a1.152 1.152 0 0 0-1.232 1.244v6.624a.5.5 0 0 1-.49.489.51.51 0 0 1-.509-.49v-9.11a1.141 1.141 0 0 0-1.223-1.213 1.182 1.182 0 0 0-1.223 1.233v8.602a.49.49 0 0 1-.5.489.5.5 0 0 1-.498-.49v-9.59a1.223 1.223 0 0 0-1.223-1.232 1.243 1.243 0 0 0-1.233 1.233v10.079a.49.49 0 0 1-.49.489.5.5 0 0 1-.489-.49v-8.09a1.203 1.203 0 0 0-1.233-1.234 1.182 1.182 0 0 0-1.233 1.172v12.718h-.061l-2.456-2.945a1.704 1.704 0 0 0-2.415 2.405l.06.072c.01.048.031.093.062.132l4.188 5.38 1.346 1.744.173.224a4.29 4.29 0 0 0 3.22 1.702h4.25a4.382 4.382 0 0 0 4.423-4.423v-15.46a1.152 1.152 0 0 0-1.213-1.264z"/>
        <path fill="#E1F1F6" d="M254.51 220.88c-.47.005-.916-.21-1.203-.582a1.539 1.539 0 0 1 .255-2.15l27.607-21.778a1.531 1.531 0 0 1 1.895 2.405l-27.607 21.778c-.27.212-.604.327-.948.326z"/>
        <path fill="#F89896" d="M254.51 219.86a.51.51 0 0 1-.317-.907l27.608-21.778a.51.51 0 1 1 .632.795l-27.608 21.778a.5.5 0 0 1-.316.112z"/>
        <path fill="#C92100" d="M262.285 230.418h5.218v2.211h-4.933a.285.285 0 0 1-.285-.285v-1.926z"/>
        <path fill="#F5DBD9" d="M267.513 230.418h5.218v1.936a.285.285 0 0 1-.286.285h-4.932v-2.221z"/>
        <path fill="#F56E6B" d="M262.55 229.378h4.963v2.66h-4.963a.265.265 0 0 1-.265-.265v-2.13a.265.265 0 0 1 .265-.265z"/>
        <path fill="#FFF0EE" d="M267.513 229.378h4.963c.146 0 .265.119.265.265v2.13a.265.265 0 0 1-.265.265h-4.963v-2.66z"/>
    </g>
</svg>
