<svg id="icon-placeholder" xmlns="http://www.w3.org/2000/svg" width="64" height="64" viewBox="0 0 64 64">
	<path d="M54,64H10A10,10,0,0,1,0,54V10A10,10,0,0,1,10,0H54A10,10,0,0,1,64,10V54A10,10,0,0,1,54,64Z" fill="#f9f9f9" stroke-width="0"/>
	<polygon points="0 12.61 12.61 0 10.91 0 0 10.91 0 12.61" fill="#fff" stroke-width="0"/>
	<polygon points="0 19.16 19.16 0 17.46 0 0 17.46 0 19.16" fill="#fff" stroke-width="0"/>
	<polygon points="0 25.71 25.71 0 24.01 0 0 24.01 0 25.71" fill="#fff" stroke-width="0"/>
	<polygon points="0 32.25 32.25 0 30.56 0 0 30.56 0 32.25" fill="#fff" stroke-width="0"/>
	<polygon points="0 38.8 38.8 0 37.1 0 0 37.1 0 38.8" fill="#fff" stroke-width="0"/>
	<polygon points="0 45.35 45.35 0 43.65 0 0 43.65 0 45.35" fill="#fff" stroke-width="0"/>
	<polygon points="0 51.9 51.9 0 50.2 0 0 50.2 0 51.9" fill="#fff" stroke-width="0"/>
	<path d="M.73,57.72l57-57A10,10,0,0,0,56.43.31L.31,56.43A10,10,0,0,0,.73,57.72Z" fill="#fff" stroke-width="0"/>
	<path d="M60.69,2.6,2.6,60.69a10.14,10.14,0,0,0,.86.84L61.53,3.46A10,10,0,0,0,60.69,2.6Z" fill="#fff" stroke-width="0"/>
	<path d="M7.79,63.74l56-56a9.88,9.88,0,0,0-.4-1.3L6.49,63.35A9.73,9.73,0,0,0,7.79,63.74Z" fill="#fff" stroke-width="0"/>
	<polygon points="14.08 64 64 14.08 64 12.39 12.39 64 14.08 64" fill="#fff" stroke-width="0"/>
	<polygon points="20.63 64 64 20.63 64 18.93 18.93 64 20.63 64" fill="#fff" stroke-width="0"/>
	<polygon points="27.18 64 64 27.18 64 25.48 25.48 64 27.18 64" fill="#fff" stroke-width="0"/>
	<polygon points="33.73 64 64 33.73 64 32.03 32.03 64 33.73 64" fill="#fff" stroke-width="0"/>
	<polygon points="40.27 64 64 40.27 64 38.58 38.58 64 40.27 64" fill="#fff" stroke-width="0"/>
	<polygon points="46.82 64 64 46.82 64 45.12 45.12 64 46.82 64" fill="#fff" stroke-width="0"/>
	<polygon points="53.37 64 64 53.37 64 51.67 51.67 64 53.37 64" fill="#fff" stroke-width="0"/>
	<polygon points="46.99 41.32 47 41.32 46.99 41.31 46.99 33.97 46.99 26.62 40.62 30.29 34.26 33.97 34.26 33.96 34.26 33.97 34.25 33.97 34.26 33.97 34.26 41.32 34.26 48.67 40.63 44.99 46.99 41.32 46.99 41.32 46.99 41.32" fill="#e8e9ea" stroke="#e8e9ea" stroke-linecap="round" stroke-linejoin="round" stroke-width="0.94"/>
	<polygon points="17 41.32 17 41.32 17 41.31 17 33.97 17 26.62 23.38 30.29 29.74 33.97 29.75 33.96 29.75 33.97 29.75 33.97 29.75 33.97 29.75 41.32 29.75 48.67 23.37 44.99 17.01 41.32 17 41.32 17 41.32" fill="#e8e9ea" stroke="#e8e9ea" stroke-linecap="round" stroke-linejoin="round" stroke-width="0.94"/>
	<polygon points="31.99 15.34 31.99 15.33 31.99 15.34 45.5 22.51 32 29.95 32 29.96 32 29.95 32 29.96 32 29.95 18.5 22.5 31.99 15.34 31.99 15.33 31.99 15.34" fill="#e8e9ea" stroke="#e8e9ea" stroke-linecap="round" stroke-linejoin="round" stroke-width="0.94"/>
	<path d="M54,64H10A10,10,0,0,1,0,54V10A10,10,0,0,1,10,0H54A10,10,0,0,1,64,10V54A10,10,0,0,1,54,64Z" fill="none" stroke-width="0"/>
</svg>
