<?xml version="1.0" encoding="UTF-8"?>
<svg width="26px" height="29px" viewBox="0 0 26 29" version="1.1" xmlns="http://www.w3.org/2000/svg" xmlns:xlink="http://www.w3.org/1999/xlink">
    <!-- Generator: Sketch 51.3 (57544) - http://www.bohemiancoding.com/sketch -->
    <title>logo</title>
    <desc>Created with Sketch.</desc>
    <defs>
        <polygon id="path-1" points="0 0 11.8248283 0 11.8248283 19.868074 0 19.868074"></polygon>
        <polygon id="path-3" points="0.0306630435 0 11.8548696 0 11.8548696 19.868161 0.0306630435 19.868161"></polygon>
    </defs>
    <g id="Symbols" stroke="none" stroke-width="1" fill="none" fill-rule="evenodd">
        <g id="Navigation/Header-2-alt" transform="translate(-29.000000, -16.000000)">
            <g id="Icon/z-WS1" transform="translate(24.000000, 12.000000)">
                <g id="WS1-icon-Outline" transform="translate(5.000000, 4.000000)">
                    <g id="Group-9">
                        <g id="Group-3">
                            <mask id="mask-2" fill="white">
                                <use xlink:href="#path-1"></use>
                            </mask>
                            <g id="Clip-2"></g>
                            <path d="M10.7311326,1.369844 L1.33693696,6.935234 C1.22558913,7.001354 1.09389348,7.235384 1.09389348,7.367044 L1.09389348,18.498114 L4.98767609,16.191454 C5.09902391,16.125334 5.23071957,15.891304 5.23071957,15.759644 L5.23071957,10.625774 C5.23071957,9.990964 5.61958913,9.299604 6.15569783,8.982344 L10.4880891,6.415554 C10.599437,6.349434 10.7311326,6.115404 10.7311326,5.983744 L10.7311326,1.369844 Z M0.736676087,19.868074 L0.736393478,19.868074 C0.381719565,19.868074 -8.47826087e-05,19.601854 -8.47826087e-05,19.018084 L-8.47826087e-05,7.367044 C-8.47826087e-05,6.833444 0.33961087,6.229954 0.790371739,5.963154 L10.6226109,0.137924 C10.7780457,0.046284 10.9343283,-0.000116 11.0886326,-0.000116 C11.4546109,-0.000116 11.8248283,0.291914 11.8248283,0.849874 L11.8248283,5.983744 C11.8248283,6.517344 11.4851326,7.120834 11.0346543,7.387634 L6.70226304,9.954424 C6.50443696,10.071584 6.32441522,10.391454 6.32441522,10.625774 L6.32441522,15.759644 C6.32441522,16.293244 5.98500217,16.896734 5.53452391,17.163534 L1.20213261,19.730324 C1.04754565,19.821674 0.890980435,19.868074 0.736676087,19.868074 Z" id="Fill-1" fill="#FFFFFF" mask="url(#mask-2)"></path>
                        </g>
                        <g id="Group-6" transform="translate(14.130435, 0.000000)">
                            <mask id="mask-4" fill="white">
                                <use xlink:href="#path-3"></use>
                            </mask>
                            <g id="Clip-5"></g>
                            <path d="M1.1243587,1.369931 L1.1243587,5.983541 C1.1243587,6.115491 1.25605435,6.349521 1.36683696,6.415351 L5.69951087,8.982431 C6.23561957,9.299691 6.62477174,9.991051 6.62477174,10.625861 L6.62477174,15.759441 C6.62477174,15.891391 6.75646739,16.125421 6.86725,16.191251 L10.7613152,18.498201 L10.7613152,7.367131 C10.7613152,7.235181 10.6296196,7.001151 10.5185543,6.935321 L1.1243587,1.369931 Z M11.1188152,19.868161 C10.9645109,19.868161 10.8085109,19.822051 10.6539239,19.730701 L6.32068478,17.163331 C5.87020652,16.896821 5.53079348,16.293331 5.53079348,15.759441 L5.53079348,10.625861 C5.53079348,10.391541 5.35048913,10.071671 5.15266304,9.954511 L0.820271739,7.387431 C0.369793478,7.120921 0.0306630435,6.517431 0.0306630435,5.983541 L0.0306630435,0.849961 C0.0306630435,0.292001 0.400880435,-2.9e-05 0.766576087,-2.9e-05 C0.920880435,-2.9e-05 1.07716304,0.046371 1.23175,0.137431 L11.0654022,5.963241 C11.5158804,6.229751 11.8550109,6.833531 11.8550109,7.367131 L11.8550109,19.018171 C11.8550109,19.246981 11.7919891,19.447661 11.6727283,19.599041 C11.5382065,19.771881 11.340663,19.868161 11.1188152,19.868161 Z" id="Fill-4" fill="#FFFFFF" mask="url(#mask-4)"></path>
                        </g>
                        <path d="M3.51494565,22.357463 L12.74975,27.828603 C12.7782935,27.845713 12.8656196,27.877613 12.9922283,27.877613 C13.1191196,27.877613 13.2067283,27.845423 13.2355543,27.828603 L22.4700761,22.357463 L18.6562717,20.097783 C18.6277283,20.080963 18.5401196,20.048773 18.4129457,20.048773 C18.2860543,20.048773 18.1984457,20.080963 18.1696196,20.097783 L13.9172065,22.617303 C13.4020109,22.922383 12.5818804,22.922383 12.0678152,22.617303 L7.81455435,20.097783 C7.78572826,20.080673 7.69868478,20.048773 7.57179348,20.048773 C7.44490217,20.048773 7.35757609,20.080963 7.32875,20.097783 L3.51494565,22.357463 Z M12.9922283,28.999913 C12.6997283,28.999913 12.4193804,28.929153 12.202337,28.800393 L2.52892391,23.069703 C2.24518478,22.901503 2.08240217,22.641953 2.08240217,22.357463 C2.08240217,22.072973 2.24518478,21.813423 2.52920652,21.645223 L6.78218478,19.125703 C7.21627174,18.868473 7.92816304,18.868763 8.36168478,19.125993 L12.614663,21.645513 C12.796663,21.753393 13.1889239,21.753103 13.3703587,21.645513 L17.6230543,19.125703 C18.0571413,18.868473 18.7690326,18.868763 19.2031196,19.125703 L23.4558152,21.645513 C23.7395543,21.813423 23.9026196,22.072973 23.9026196,22.357463 C23.9026196,22.641953 23.7395543,22.901503 23.4555326,23.069703 L13.7824022,28.800683 C13.5653587,28.929153 13.2847283,28.999913 12.9922283,28.999913 Z" id="Fill-7" fill="#FFFFFF"></path>
                    </g>
                </g>
            </g>
        </g>
    </g>
</svg>
