<svg id="icon-horizon-watermak" xmlns="http://www.w3.org/2000/svg" width="14" height="13" viewBox="0 0 14 13">
	<path d="M14.19,1.51H1.8a.79.79,0,0,0-.8.78v8.46a.79.79,0,0,0,.81.78H7.57v2.2H4.48a.39.39,0,1,0,0,.77h6.93a.39.39,0,1,0,0-.77h-3v-2.2h5.82a.79.79,0,0,0,.81-.78V2.29A.79.79,0,0,0,14.19,1.51Zm0,9.24H1.8V2.29H14.2v8.46Z" transform="translate(-1 -1.51)" fill="#9da2a8" stroke="transparent"/>
	<path d="M7.28,4.9H8.74a.17.17,0,0,0,.18-.17V3.9a.17.17,0,0,0-.18-.17H7.28a.17.17,0,0,0-.18.17v.82A.17.17,0,0,0,7.28,4.9Z" transform="translate(-1 -1.51)" fill="#9da2a8" stroke="transparent"/>
	<path d="M7.33,6.73V5.91a.17.17,0,0,0-.18-.17H5.7a.17.17,0,0,0-.18.17v.82a.17.17,0,0,0,.18.17H7.15A.17.17,0,0,0,7.33,6.73Z" transform="translate(-1 -1.51)" fill="#9da2a8" stroke="transparent"/>
	<path d="M10.47,6.73V5.91a.17.17,0,0,0-.18-.17H8.84a.17.17,0,0,0-.18.17v.82a.17.17,0,0,0,.18.17H10.3A.17.17,0,0,0,10.47,6.73Z" transform="translate(-1 -1.51)" fill="#9da2a8" stroke="transparent"/>
	<path d="M5.45,8H4a.17.17,0,0,0-.17.17v1A.17.17,0,0,0,4,9.34H5.45a.17.17,0,0,0,.17-.17v-1A.17.17,0,0,0,5.45,8Z" transform="translate(-1 -1.51)" fill="#9da2a8" stroke="transparent"/>
	<path d="M8.74,8H7.28a.17.17,0,0,0-.17.17v1a.17.17,0,0,0,.17.17H8.74a.17.17,0,0,0,.17-.17v-1A.17.17,0,0,0,8.74,8Z" transform="translate(-1 -1.51)" fill="#9da2a8" stroke="transparent"/>
	<path d="M12,8H10.57a.17.17,0,0,0-.17.17v1a.17.17,0,0,0,.17.17H12a.17.17,0,0,0,.17-.17v-1A.17.17,0,0,0,12,8Z" transform="translate(-1 -1.51)" fill="#9da2a8" stroke="transparent"/>
</svg>