<svg id="icon-call" xmlns="http://www.w3.org/2000/svg" viewBox="0 0 32 32">
	<path d="M7.65,8.24,8.83,7.06a1.93,1.93,0,0,1,2.9.2l2.39,3.19a1.91,1.91,0,0,1,.18,2l-.69,1.33a.94.94,0,0,0,0,.92,9.82,9.82,0,0,0,3.62,3.62.94.94,0,0,0,.92,0l1.33-.69a1.94,1.94,0,0,1,2,.18l3.19,2.39a1.93,1.93,0,0,1,.2,2.9L23.71,24.4a3.82,3.82,0,0,1-4.75.53,42.62,42.62,0,0,1-6.65-5.25,43.48,43.48,0,0,1-5.2-6.57A3.92,3.92,0,0,1,7.65,8.24ZM8.36,9A2.91,2.91,0,0,0,8,12.57,43.07,43.07,0,0,0,13,19a42.79,42.79,0,0,0,6.49,5.11A2.83,2.83,0,0,0,23,23.7l1.24-1.24a.93.93,0,0,0-.1-1.39L21,18.68a.92.92,0,0,0-1-.09l-1.34.69a1.92,1.92,0,0,1-1.87-.06,11.19,11.19,0,0,1-2.25-1.74,10.83,10.83,0,0,1-1.74-2.25,1.94,1.94,0,0,1-.06-1.87L13.41,12a.9.9,0,0,0-.09-1L10.93,7.86a.93.93,0,0,0-1.39-.1Z" stroke="transparent"/>
</svg>