<svg id="icon-skype" xmlns="http://www.w3.org/2000/svg" viewBox="0 0 32 32">
    <path d="M16.05,22.49c-3.65,0-5.28-1.79-5.28-3.13A1.15,1.15,0,0,1,12,18.19c1.56,0,1.16,2.23,4.07,2.23,1.48,0,2.31-.8,2.31-1.63,0-.5-.25-1.05-1.23-1.29l-3.24-.81c-2.61-.66-3.08-2.07-3.08-3.39,0-2.75,2.59-3.79,5-3.79,2.25,0,4.89,1.24,4.89,2.89a1.18,1.18,0,0,1-1.31,1.12c-1.33,0-1.09-1.84-3.77-1.84-1.33,0-2.07.6-2.07,1.46s1.06,1.14,2,1.35l2.4.53c2.62.58,3.29,2.12,3.29,3.56,0,2.24-1.72,3.91-5.18,3.91" style="fill:#0874aa" stroke="transparent"/>
    <path d="M24,24a4.5,4.5,0,0,1-3.42,1.25,5.13,5.13,0,0,1-2.42-.89,21.43,21.43,0,0,1-2.26.27A8.52,8.52,0,0,1,12.53,24a8.32,8.32,0,0,1-2.71-1.83,8.44,8.44,0,0,1-2.5-6,20.51,20.51,0,0,1,.25-2.36,4.57,4.57,0,0,1-.87-2.26,4.59,4.59,0,0,1,4.86-4.84,6.09,6.09,0,0,1,2.5.9h0A12.58,12.58,0,0,1,16,7.44a8.35,8.35,0,0,1,3.32.67A8.45,8.45,0,0,1,22,9.93a8.7,8.7,0,0,1,1.83,2.71A8.56,8.56,0,0,1,24.53,16a14.23,14.23,0,0,1-.12,2,5.55,5.55,0,0,1,.89,2.51A5,5,0,0,1,24,24m2.14-6.23,0-.13A10.26,10.26,0,0,0,20,6.51a10.13,10.13,0,0,0-4-.81,10.37,10.37,0,0,0-1.94.18h0l.11.06h0l-.1-.06-.19-.09,0,0h0a6.06,6.06,0,0,0-8,8.29l.06.12A10.38,10.38,0,0,0,5.75,16,10.24,10.24,0,0,0,16,26.2a10,10,0,0,0,1.64-.13h0l.15,0a6.07,6.07,0,0,0,9.06-5.28,6.09,6.09,0,0,0-.77-3" style="fill:#0874aa" stroke="transparent"/>
</svg>