<svg id="icon-bell" xmlns="http://www.w3.org/2000/svg" viewBox="0 0 32 32">
    <path d="M13.78,10.8a3,3,0,0,0-3,3v6a.5.5,0,0,0,.5.5.51.51,0,0,0,.5-.5v-6a2,2,0,0,1,2-2,.5.5,0,0,0,.5-.5.51.51,0,0,0-.5-.5" stroke="transparent"/>
    <path d="M24,22.16a.46.46,0,0,1-.38.21H8a.41.41,0,0,1-.39-.24.43.43,0,0,1,0-.46l1.06-1.44V14.92a7.08,7.08,0,0,1,5-6.84.51.51,0,0,0,.36-.64.46.46,0,0,0-.19-.26,2.09,2.09,0,0,1,4.1,0,.51.51,0,0,0-.19.26.52.52,0,0,0,.36.64,7.07,7.07,0,0,1,5,6.84v5.27L24,21.72a.46.46,0,0,1,0,.44m.92-.93-.7-1.3v-5A8.09,8.09,0,0,0,19,7.3a3.08,3.08,0,0,0-6.13,0,8.09,8.09,0,0,0-5.23,7.62v5l-.86,1.17A1.47,1.47,0,0,0,8,23.41H23.64a1.48,1.48,0,0,0,1.3-2.18" stroke="transparent"/>
    <path d="M14.37,24.93h-1a2.58,2.58,0,0,0,5.15,0h-1a1.58,1.58,0,0,1-3.15,0Z" stroke="transparent"/>
</svg>