<svg id="icon-hub"  xmlns="http://www.w3.org/2000/svg" xmlns:xlink="http://www.w3.org/1999/xlink" viewBox="0 0 32 32">
    <defs>
        <linearGradient id="linear-gradient" x1="6.73" y1="9.48" x2="17.15" y2="16.11" gradientUnits="userSpaceOnUse">
            <stop offset="0" stop-color="#000f55" stop-opacity="0.94"/><stop offset="0.11" stop-color="#000f55" stop-opacity="0.72"/>
            <stop offset="0.35" stop-color="#000f55" stop-opacity="0.33"/><stop offset="0.54" stop-color="#000f55" stop-opacity="0.09"/>
            <stop offset="0.67" stop-color="#000f55" stop-opacity="0"/>
        </linearGradient>
        <linearGradient id="linear-gradient-2" x1="15.87" y1="28.7" x2="15.87" y2="28.7" gradientUnits="userSpaceOnUse">
            <stop offset="0" stop-color="#266900"/>
            <stop offset="0.1" stop-color="#357a0c"/>
            <stop offset="0.34" stop-color="#539d26"/>
            <stop offset="0.57" stop-color="#6ab738"/>
            <stop offset="0.78" stop-color="#77c743"/>
            <stop offset="0.94" stop-color="#7ccc47"/>
        </linearGradient>
        <linearGradient id="linear-gradient-3" x1="-5.62" y1="-0.25" x2="9.22" y2="11.52" gradientUnits="userSpaceOnUse">
            <stop offset="0" stop-color="#004d8a"/>
            <stop offset="1" stop-color="#0095d3"/>
        </linearGradient>
        <linearGradient id="linear-gradient-4" x1="9.69" y1="-3.18" x2="21.13" y2="8.26" xlink:href="#linear-gradient-3"/>
        <linearGradient id="linear-gradient-5" x1="17.95" y1="16.97" x2="28.49" y2="23.54" gradientUnits="userSpaceOnUse">
            <stop offset="0" stop-color="#000f55" stop-opacity="0.94"/>
            <stop offset="0.06" stop-color="#000f55" stop-opacity="0.85"/>
            <stop offset="0.39" stop-color="#000f55" stop-opacity="0.46"/>
            <stop offset="0.45" stop-color="#000f55" stop-opacity="0.33"/>
            <stop offset="0.58" stop-color="#000f55" stop-opacity="0.09"/>
            <stop offset="0.67" stop-color="#000f55" stop-opacity="0"/>
        </linearGradient>
        <linearGradient id="linear-gradient-6" x1="5.89" y1="13.39" x2="14.91" y2="22.41" xlink:href="#linear-gradient-3"/>
    </defs>
    <path d="M18.07,28.91l10.66-6.15V10.42L14.48,2.19,7.89,11.56l-4.24,9a0,0,0,0,0,0,0l14.43,8.34Z" transform="translate(0 0)" opacity="0.24" fill="url(#linear-gradient)"/>
    <path d="M15.87,28.7" transform="translate(0 0)" fill="url(#linear-gradient-2)"/>
    <path d="M13.56,2.1,3.66,7.79a.79.79,0,0,0-.39.68V19.91a.78.78,0,0,0,1.17.67l4.17-2.4A.76.76,0,0,0,9,17.51V11.79a.79.79,0,0,1,.39-.68l4.94-2.84a.78.78,0,0,0,.4-.68V2.78A.79.79,0,0,0,13.56,2.1Z" transform="translate(0 0)" fill="url(#linear-gradient-3)"/>
    <path d="M18.44,2.1l9.89,5.69a.79.79,0,0,1,.39.68V19.91a.78.78,0,0,1-1.17.67l-4.16-2.4a.75.75,0,0,1-.4-.67V11.79a.79.79,0,0,0-.39-.68L17.66,8.27a.79.79,0,0,1-.39-.68V2.78A.79.79,0,0,1,18.44,2.1Z" transform="translate(0 0)" fill="url(#linear-gradient-4)"/>
    <polygon points="28.73 22.76 28.73 14.41 18.42 8.46 18.46 21.77 10.74 21.75 20.6 27.45 28.73 22.76" opacity="0.24" fill="url(#linear-gradient-5)"/>
    <path d="M23.67,19.39V12.45A1.7,1.7,0,0,0,22.84,11l-6-3.46a1.66,1.66,0,0,0-1.67,0L9.16,11a1.68,1.68,0,0,0-.84,1.45v6.94a1.68,1.68,0,0,0,.84,1.45l6,3.46a1.66,1.66,0,0,0,1.67,0l6-3.46A1.7,1.7,0,0,0,23.67,19.39Z" transform="translate(0 0)" fill="#fff"/>
    <path d="M5.72,24.17l9.87,5.72a.78.78,0,0,0,.78,0l9.9-5.73a.78.78,0,0,0,0-1.35l-4.16-2.41a.78.78,0,0,0-.78,0l-4.95,2.86a.78.78,0,0,1-.78,0l-4.93-2.86a.8.8,0,0,0-.79,0L5.72,22.82A.78.78,0,0,0,5.72,24.17Z" transform="translate(0 0)" fill="url(#linear-gradient-6)"/>
</svg>