<svg xmlns="http://www.w3.org/2000/svg" xmlns:xlink="http://www.w3.org/1999/xlink" viewBox="0 0 326 181">
	<defs>
		<linearGradient id="linear-gradient" x1="43.7" y1="211.12" x2="43.7" y2="210.15" gradientTransform="matrix(-281.43, -281.43, -281.43, 281.43, 71743.72, -46820.67)" gradientUnits="userSpaceOnUse">
			<stop offset="0" stop-color="#fff"/>
			<stop offset="1" stop-color="#fff" stop-opacity="0"/>
		</linearGradient>
		<linearGradient id="linear-gradient-2" x1="43.68" y1="211.16" x2="43.68" y2="210.18" gradientTransform="matrix(-239.77, -201.19, -201.19, 239.77, 53139.59, -41669.63)" xlink:href="#linear-gradient"/>
		<linearGradient id="linear-gradient-3" x1="43.3" y1="210.98" x2="43.3" y2="210" gradientTransform="matrix(230.49, -122.55, -122.55, -230.49, 16019.26, 53867.63)" xlink:href="#linear-gradient"/>
	</defs>
	<path id="arc1" d="M325.41,39.4C248.36-10.16,144.6-1.25,77.17,66.17a198.12,198.12,0,0,0-56.34,113H325.41Z" transform="translate(0.5 0.5)" fill-opacity="0.22" fill="url(#linear-gradient)"/>
	<path id="arc2" d="M325,0H180.65A156.64,156.64,0,0,0,195.5,180H325Z" transform="translate(0.5 0.5)" fill-opacity="0.22" fill="url(#linear-gradient-2)"/>
	<path id="arc3" d="M89.61,108.14A130.51,130.51,0,0,0,325,97.86V0H83A130.23,130.23,0,0,0,89.61,108.14Z" transform="translate(0.5 0.5)" fill-opacity="0.22" fill="url(#linear-gradient-3)"/>
</svg>