<svg width="24px" height="24px" viewBox="0 0 24 24" version="1.1" xmlns="http://www.w3.org/2000/svg"
     xmlns:xlink="http://www.w3.org/1999/xlink">
    <g stroke="none" stroke-width="0" fill="none">
        <g fill="#0079B8" fill-opacity="0.5">
            <circle id="Oval" cx="12" cy="12" r="12"></circle>
        </g>
        <g id="2px-/-Social-/-Notification" transform="translate(4.800000, 4.800000)">
            <path d="M8.80462209,11.7541667 C8.7300949,12.6509967 7.97570595,13.3586833 7.0595,13.3586833 C6.14329405,13.3586833 5.3889051,12.6509967 5.31437791,11.7541667 L2.58092207,11.7541667 C2.15508873,11.7541667 1.77183873,11.5179167 1.57992207,11.13875 C1.3880054,10.759 1.42533873,10.3104167 1.67733873,9.968 L2.1037554,9.387 L2.1037554,6.6885 C2.1037554,4.64916667 3.34742207,2.83616667 5.1732554,2.13558333 C5.28058873,1.183 6.0815054,0.4375 7.06208873,0.4375 C8.04267207,0.4375 8.84358873,1.183 8.95092207,2.13558333 C10.7773387,2.83616667 12.0204221,4.64916667 12.0204221,6.6885 L12.0204221,9.43191667 L12.3797554,10.1021667 C12.5681721,10.45275 12.5588387,10.8663333 12.3540887,11.2081667 C12.1499221,11.55 11.7905887,11.7541667 11.3921721,11.7541667 L8.80462209,11.7541667 Z"
                  fill="#FFFFFF"></path>
            <path d="M8.96086559,2.13847294 C10.7821443,2.84186703 12.0204221,4.65287624 12.0204221,6.68838333 L12.0204221,9.4318 L12.3797554,10.10205 C12.5687554,10.4532167 12.5588387,10.8668 12.3540887,11.20805 C12.1505054,11.5498833 11.7905887,11.75405 11.3921721,11.75405 L8.81331373,11.75405 C8.81331373,12.719175 8.02756373,13.504925 7.06214707,13.504925 C6.0967304,13.504925 5.3109804,12.719175 5.3109804,11.7543417 L2.58092207,11.75405 C2.15508873,11.75405 1.77183873,11.5183833 1.57992207,11.1386333 C1.3880054,10.7594667 1.42533873,10.3108833 1.67733873,9.96788333 L2.1037554,9.38746667 L2.1037554,6.68838333 C2.1037554,4.65287617 3.34203322,2.84186691 5.16331206,2.13847287 C5.26770846,1.18340398 6.07948635,0.4375 7.0623804,0.4375 C8.04473024,0.4375 8.85647167,1.18340401 8.96086559,2.13847294 Z M7.80554707,2.55100168 L7.80554707,2.34733333 C7.80554707,1.93783333 7.47246373,1.60416667 7.0623804,1.60416667 C6.65171373,1.60416667 6.3186304,1.93783333 6.3186304,2.34733333 L6.3186304,2.53925325 C6.32915193,2.80287021 6.15808418,3.0493592 5.89308873,3.12421667 C4.3490054,3.55705 3.27042207,5.02296667 3.27042207,6.68838333 L3.27042207,9.76955 L2.67017207,10.5873833 L11.3163387,10.5873833 L10.8537554,9.72521667 L10.8537554,6.68838333 C10.8537554,5.02296667 9.7757554,3.55705 8.23108873,3.12421667 C7.97003389,3.05047236 7.80013401,2.81016306 7.80554707,2.55100168 Z M6.47764707,11.7543417 C6.47764707,12.0763417 6.73956373,12.3382583 7.06214707,12.3382583 C7.3847304,12.3382583 7.64664707,12.0763417 7.64664707,11.7543417 L6.47764707,11.75405 Z"></path>
        </g>

    </g>
</svg>
