<svg id="icon-settings-dear" xmlns="http://www.w3.org/2000/svg" width="32" height="32" viewBox="0 0 32 32">
    <path d="M23.65,16a7.62,7.62,0,0,0-.12-1.3l1.94-1.84-2-3.5-2.56.76a7.65,7.65,0,0,0-2.26-1.3L18,6.22H14l-.62,2.6a7.65,7.65,0,0,0-2.25,1.3L8.54,9.36l-2,3.5L8.47,14.7a7.18,7.18,0,0,0,0,2.59L6.52,19.14l2,3.5,2.56-.76a7.64,7.64,0,0,0,2.26,1.3l.62,2.6h4l.62-2.6a7.65,7.65,0,0,0,2.26-1.3l2.56.76,2-3.5L23.53,17.3A7.6,7.6,0,0,0,23.65,16ZM16,19.83A3.83,3.83,0,1,1,19.83,16,3.83,3.83,0,0,1,16,19.83Z" stroke-width="1.3" stroke-linecap="round" stroke-linejoin="round"/>
</svg>