<svg id="icon-newtips" xmlns="http://www.w3.org/2000/svg" width="16" height="16" viewBox="0 0 16 16">
    <path d="M8.58,2.38,10,5.28a.65.65,0,0,0,.49.36l3.19.46a.65.65,0,0,1,.36,1.11L11.74,9.46a.65.65,0,0,0-.19.58l.55,3.18a.65.65,0,0,1-.94.69L8.3,12.4a.65.65,0,0,0-.61,0L4.84,13.9a.65.65,0,0,1-.94-.69L4.44,10a.65.65,0,0,0-.19-.58L1.94,7.21A.65.65,0,0,1,2.31,6.1L5.5,5.63A.65.65,0,0,0,6,5.28L7.42,2.38A.65.65,0,0,1,8.58,2.38Z" fill="#fef3b5" stroke-width="0"/>
    <path d="M8.52,2.26,10,5.33a.58.58,0,0,0,.43.32l3.39.49a.58.58,0,0,1,.32,1L11.72,9.5a.57.57,0,0,0-.16.51l.58,3.37a.57.57,0,0,1-.83.61l-3-1.59a.58.58,0,0,0-.53,0L4.71,14a.57.57,0,0,1-.83-.61L4.45,10a.58.58,0,0,0-.16-.51L1.83,7.12a.58.58,0,0,1,.32-1l3.38-.49A.58.58,0,0,0,6,5.33L7.49,2.26A.58.58,0,0,1,8.52,2.26Z" fill="none" stroke="#fdd006" stroke-linecap="round" stroke-linejoin="round" stroke-width="1.5"/>
</svg>