<svg id="icon-notify-error" xmlns="http://www.w3.org/2000/svg" width="32" height="32" viewBox="0 0 32 32">
    <path d="M27.76,24,17.51,6.25a1.74,1.74,0,0,0-3,0L4.24,24a1.74,1.74,0,0,0,1.51,2.61H26.25A1.74,1.74,0,0,0,27.76,24Zm-1.3,1a.24.24,0,0,1-.21.12H5.75a.25.25,0,0,1-.21-.37L15.79,7a.25.25,0,0,1,.42,0L26.47,24.76A.24.24,0,0,1,26.47,25Z" stroke-width="0"/>
    <path d="M16,16.35a.75.75,0,0,0-.75.75v5a.75.75,0,1,0,1.5,0v-5A.75.75,0,0,0,16,16.35Z" stroke-width="0"/>
    <circle cx="16" cy="13.8" r="1" stroke-width="0"/>
</svg>