<svg width="24" height="24" xmlns="http://www.w3.org/2000/svg">

    <g>
        <title>Layer 1</title>
        <path id="svg_1" stroke-width="1.3" stroke-linejoin="round" stroke-linecap="round" fill="none" d="m7.874377,7.474377l-0.4,0c-0.5,0 -0.8,0.6 -0.9,0.9l-2.8,6.6"/>
        <path id="svg_2" stroke-width="1.3" stroke-linejoin="round" stroke-linecap="round" fill="none" d="m16.296441,7.652313l0.4,0c0.5,0 0.8,0.6 0.9,0.9l2.8,6.6"/>
        <path id="svg_3" d="m12.194128,3.708185c-0.1,0 -0.1,0 -0.1,0l-2.8,3.2c0,0.1 0,0.1 0,0.1s0,0.1 0.1,0.1l1.5,0l0,0c0,0 0.1,0 0.1,0.1c0,1.7 -0.6,3.2 -2.8,4.8l0,0.1c0,0 0,0.1 0.1,0.1c2.7,-0.3 4.8,-2.4 5.1,-5c0,-0.1 0,-0.1 0.1,-0.1l1.5,0c0.1,0 0.1,0 0.1,0c0,-0.1 0,-0.1 0,-0.2l-2.9,-3.2l0,0z"/>
        <path id="svg_4" stroke-width="1.3" stroke-linejoin="round" stroke-linecap="round" fill="none" d="m19.692287,21.163345l-15.3,0c-0.5,0 -0.9,-0.4 -0.9,-0.9l0,-4.7c0,-0.5 0.4,-0.9 0.9,-0.9l15.2,0c0.5,0 0.9,0.4 0.9,0.9l0,4.7c0.1,0.5 -0.3,0.9 -0.8,0.9z"/>
        <path id="svg_5" stroke-width="1.3" stroke-linejoin="round" stroke-linecap="round" fill="none" d="m15.5,17.530249l0,0c0,0.5 -0.5,1 -1,1l-5,0c-0.6,0 -1,-0.5 -1,-1l0,0"/>
    </g>
</svg>