<svg id="Layer_1" data-name="Layer 1" xmlns="http://www.w3.org/2000/svg" viewBox="0 0 32 32">
	<path d="M15.87,25.21a2.71,2.71,0,0,1-2.72-2.69V18.78H4.5l2.24-2.51V9.48a2.71,2.71,0,0,1,2.72-2.7h6.67a2.71,2.71,0,0,1,2.72,2.7v3.74h3.69a2.71,2.71,0,0,1,2.72,2.69V22.7l2.24,2.51Z" style="fill:#003d79" stroke-width="0"/>
	<path d="M14.31,22.52a1.55,1.55,0,0,0,1.56,1.54h9.05l-.81-.91V15.91a1.56,1.56,0,0,0-1.57-1.53H18.85v1.71a2.71,2.71,0,0,1-2.72,2.69H14.31v3.74Z" style="fill:#fff" stroke-width="0"/>
	<path d="M16.13,17.62a1.55,1.55,0,0,0,1.56-1.54v-1.7H15.87a1.55,1.55,0,0,0-1.56,1.53v1.71Z" style="fill:#fff" stroke-width="0"/>
	<path d="M13.15,17.62V15.91a2.71,2.71,0,0,1,2.72-2.69h1.82V9.48a1.55,1.55,0,0,0-1.56-1.54H9.46A1.55,1.55,0,0,0,7.89,9.48v7.23l-.81.91Z" style="fill:#fff" stroke-width="0"/>
</svg>