<svg id="icon-people" xmlns="http://www.w3.org/2000/svg" width="32" height="32" viewBox="0 0 32 32">
	<path d="M16.5,25.5H5a8,8,0,0,1,8.1-8,6.72,6.72,0,0,1,2.4.4l.4.3a6.24,6.24,0,0,0-1.1,3.4,5.65,5.65,0,0,0,1.7,3.9" stroke-width="0"/>
	<path id="body" d="M15.5,17.9a10,10,0,0,0-2.4-.4,8,8,0,0,0-8.1,8H16" fill="none"  stroke-linecap="round" stroke-linejoin="round" stroke-width="1.3"/>
	<circle cx="13" cy="10.5" r="5" stroke-linecap="round" stroke-linejoin="round" stroke-width="1.3"/>
	<circle id="searchglass" cx="22" cy="21" r="4.5" fill="none"  stroke-linecap="round" stroke-linejoin="round" stroke-width="1.3"/>
	<line x1="19.5" y1="25.3" x2="17.5" y2="28.5" fill="none"  stroke-linecap="round" stroke-linejoin="round" stroke-width="1.3"/>
</svg>