<svg id="icon-horizonclient" xmlns="http://www.w3.org/2000/svg" width="32" height="32" viewBox="0 0 32 32">
    <path id="monitor" d="M24.48,7.64H7.32A1.12,1.12,0,0,0,6.21,8.77V20.91h0A1.12,1.12,0,0,0,7.32,22h8v3.15H11a.56.56,0,1,0,0,1.11h9.59a.56.56,0,0,0,0-1.11H16.42V22h8.07a1.12,1.12,0,0,0,1.11-1.12V8.77h0A1.12,1.12,0,0,0,24.48,7.64Zm0,13.27H7.32V8.77H24.48Z" stroke-width="0"/>
    <path d="M21.48,18.88h-2a.24.24,0,0,1-.24-.24h0V17.18a.24.24,0,0,1,.23-.24h2a.24.24,0,0,1,.24.24h0v1.47a.24.24,0,0,1-.23.24h0Z" stroke-width="0"/>
    <path d="M19.08,15.38h-2a.25.25,0,0,1-.25-.24V14a.25.25,0,0,1,.25-.24h2a.24.24,0,0,1,.24.24v1.19A.24.24,0,0,1,19.08,15.38Z" stroke-width="0"/>
    <path d="M16.93,12.51h-2a.24.24,0,0,1-.24-.24V11.08a.24.24,0,0,1,.22-.26h2a.24.24,0,0,1,.24.24v1.19a.24.24,0,0,1-.24.24Z" stroke-width="0"/>
    <path d="M15,14v1.19a.24.24,0,0,1-.24.24h-2a.24.24,0,0,1-.24-.24V14a.24.24,0,0,1,.24-.24h2A.24.24,0,0,1,15,14Z" stroke-width="0"/>
    <path d="M12.61,17.17v1.47a.24.24,0,0,1-.24.24h-2a.24.24,0,0,1-.24-.24V17.17a.24.24,0,0,1,.24-.24h2a.24.24,0,0,1,.24.24Z" stroke-width="0"/>
    <path d="M14.88,16.94h2.05a.24.24,0,0,1,.24.24v1.47a.24.24,0,0,1-.24.24H14.88a.24.24,0,0,1-.24-.24V17.17a.24.24,0,0,1,.24-.24Z" stroke-width="0"/>
</svg>