<svg id="icon-requestapp" xmlns="http://www.w3.org/2000/svg" width="32" height="32" viewBox="0 0 32 32">
    <rect x="9.91" y="6.21" width="16.74" height="16.74" rx="1.55" ry="1.55" fill="none"  stroke-width="1.3"/>
    <rect x="6.56" y="9.3" width="16.74" height="16.74" rx="1.55" ry="1.55" fill="#fff"  stroke-width="1.3"/>
    <path d="M11,17h8.11a.58.58,0,0,1,.58.58h0a.58.58,0,0,1-.58.58H11a.58.58,0,0,1-.58-.58h0A.58.58,0,0,1,11,17Z"  stroke-width="0"/>
    <path d="M15.64,13.55v8.11a.58.58,0,0,1-.58.58h0a.58.58,0,0,1-.58-.58V13.55a.58.58,0,0,1,.58-.58h0A.58.58,0,0,1,15.64,13.55Z" stroke-width="0"/>
</svg>