<svg width="24" height="24" xmlns="http://www.w3.org/2000/svg">
	<g>
		<title>Layer 1</title>
		<path id="svg_1" stroke-width="1.3" stroke-linejoin="round" stroke-linecap="round" fill="none" d="m7.840352,6.680118l-0.4,0c-0.5,0 -0.8,0.6 -0.9,0.9l-2.8,6.6"/>
		<path id="svg_2" stroke-width="1.3" stroke-linejoin="round" stroke-linecap="round" fill="none" d="m16.264913,6.797077l0.4,0c0.5,0 0.8,0.6 0.9,0.9l2.8,6.6"/>
		<path id="svg_3" stroke-width="1.3" stroke-linejoin="round" stroke-linecap="round" fill="none" d="m12.082164,10.495323l2.9,-3.2c0,-0.1 0,-0.1 0,-0.2c0,0 0,0 -0.1,0l-1.5,0c-0.1,0 -0.1,0 -0.1,-0.1c-0.3,-2.6 -2.4,-4.7 -5.1,-5c-0.1,0 -0.1,0.1 -0.1,0.1l0,0.1c2.2,1.6 2.8,3.1 2.8,4.8c0,0.1 -0.1,0.1 -0.1,0.1l0,0l-1.5,0c-0.1,0 -0.1,0.1 -0.1,0.1s0,0 0,0.1l2.8,3.2c0,0 0,0 0.1,0l0,0z"/>
		<path id="svg_4" stroke-width="1.3" stroke-linejoin="round" stroke-linecap="round" fill="none" d="m19.692287,20.630995l-15.3,0c-0.5,0 -0.9,-0.4 -0.9,-0.9l0,-4.7c0,-0.5 0.4,-0.9 0.9,-0.9l15.2,0c0.5,0 0.9,0.4 0.9,0.9l0,4.7c0.1,0.5 -0.3,0.9 -0.8,0.9z"/>
		<path id="svg_5" stroke-width="1.3" stroke-linejoin="round" stroke-linecap="round" fill="none" d="m15.757311,16.964913l0,0c0,0.5 -0.5,1 -1,1l-5,0c-0.6,0 -1,-0.5 -1,-1l0,0"/>
	</g>
</svg>