<svg xmlns="http://www.w3.org/2000/svg" width="40" height="40" viewBox="0 0 40 40">
    <g id="ws1-lockup">
        <polygon points="5.1 14.85 5.1 10.95 8.4 12.85 11.8 14.85 8.4 16.75 5.1 18.75 5.1 14.85" fill="#6cb23e" stroke-width="0"/>
        <polygon points="5.1 22.55 5.1 18.75 8.4 20.65 11.8 22.55 8.4 24.55 5.1 26.45 5.1 22.55" fill="#6cb23e" stroke-width="0"/>
        <polygon points="11.8 18.75 11.8 22.55 8.4 20.65 5.1 18.75 8.4 16.75 11.8 14.85 11.8 18.75" fill="#a9da1e" stroke-width="0"/>
        <polygon points="11.8 10.95 11.8 14.85 8.4 12.85 5.1 10.95 8.4 9.05 11.8 7.05 11.8 10.95" fill="#a9da1e" stroke-width="0"/>
        <polygon points="11.8 10.95 11.8 7.05 15.2 9.05 18.5 10.95 15.2 12.85 11.8 14.85 11.8 10.95" fill="#6cb23e" stroke-width="0"/>
        <polygon points="18.5 7.05 18.5 10.95 15.2 9.05 11.8 7.05 15.2 5.15 18.5 3.25 18.5 7.05" fill="#a9da1e" stroke-width="0"/>
        <polygon points="34.9 14.85 34.9 10.95 31.6 12.85 28.2 14.85 31.6 16.75 34.9 18.75 34.9 14.85" fill="#0093d1" stroke-width="0"/>
        <polygon points="34.9 22.55 34.9 18.75 31.6 20.65 28.2 22.55 31.6 24.55 34.9 26.45 34.9 22.55" fill="#0093d1" stroke-width="0"/>
        <polygon points="28.2 18.75 28.2 22.55 31.6 20.65 34.9 18.75 31.6 16.75 28.2 14.85 28.2 18.75" fill="#87c9de" stroke-width="0"/>
        <polygon points="28.2 10.95 28.2 14.85 31.6 12.85 34.9 10.95 31.6 9.05 28.2 7.05 28.2 10.95" fill="#87c9de" stroke-width="0"/>
        <polygon points="28.2 10.95 28.2 7.05 24.8 9.05 21.5 10.95 24.8 12.85 28.2 14.85 28.2 10.95" fill="#0093d1" stroke-width="0"/>
        <polygon points="21.5 7.05 21.5 10.95 24.8 9.05 28.2 7.05 24.8 5.15 21.5 3.25 21.5 7.05" fill="#87c9de" stroke-width="0"/>
        <polygon points="13.3 29.05 13.3 25.15 9.9 27.05 6.6 29.05 9.9 30.95 13.3 32.85 13.3 29.05" fill="#c33" stroke-width="0"/>
        <polygon points="13.3 29.05 13.3 32.85 16.6 30.95 20 29.05 16.6 27.05 13.3 25.15 13.3 29.05" fill="#ef8a20" stroke-width="0"/>
        <polygon points="20 32.85 20 29.05 16.6 30.95 13.3 32.85 16.6 34.85 20 36.75 20 32.85" fill="#c33" stroke-width="0"/>
        <polygon points="26.7 29.05 26.7 25.15 30.1 27.05 33.4 29.05 30.1 30.95 26.7 32.85 26.7 29.05" fill="#ef8a20" stroke-width="0"/>
        <polygon points="26.7 29.05 26.7 32.85 23.4 30.95 20 29.05 23.4 27.05 26.7 25.15 26.7 29.05" fill="#c33" stroke-width="0"/>
        <polygon points="20 32.85 20 29.05 23.4 30.95 26.7 32.85 23.4 34.85 20 36.75 20 32.85" fill="#ef8a20" stroke-width="0"/>
    </g>
</svg>