<svg id="icon-avatar" xmlns="http://www.w3.org/2000/svg" width="64" height="64" viewBox="0 0 64 64">
    <circle cx="32" cy="32" r="32" fill="#cdd0d3" opacity="0.5" style="isolation:isolate" stroke-width="0"/>
    <path d="M20.15,36.33h.38a11.71,11.71,0,0,0,23,0h.38a2.27,2.27,0,0,0,2.26-2.27V32.73a2.27,2.27,0,0,0-2.26-2.27h-.14l.08-2.24s1-11.59-10.62-12.21c-2.64-.14-7.73,1-9.49.89-2.64-.18-3.46-.89-3.46-.89a17,17,0,0,0,2.29,5.78,11.67,11.67,0,0,0-2.24,6.88v1.79h-.14a2.27,2.27,0,0,0-2.26,2.27v1.33A2.27,2.27,0,0,0,20.15,36.33Z" fill="#9da2a8" opacity="0.7" style="isolation:isolate" stroke-width="0"/>
    <path d="M39.69,46.86a13.33,13.33,0,0,1-15.39,0A15.83,15.83,0,0,0,12.83,57.62a32,32,0,0,0,38.35,0A15.83,15.83,0,0,0,39.69,46.86Z" fill="#9da2a8" opacity="0.7" style="isolation:isolate" stroke-width="0"/>
</svg>