<svg id="illo-von-tunnel" xmlns="http://www.w3.org/2000/svg" width="210" height="170" viewBox="0 0 210 170">
	<path d="M102.25,44.44l7-3.49c4.63-2.26,9-6.57,9-11V11.31c0-.2,0-.4,0-.6-.53,0-1.07,0-1.61,0a24.24,24.24,0,0,1-14.35-5.19A24.25,24.25,0,0,1,87.9,10.74c-.54,0-1.08,0-1.61,0,0,.2,0,.4,0,.6v18.6c0,4.48,4.33,8.79,9,11Z" fill="none" stroke="#9da2a8" stroke-linecap="round" stroke-linejoin="round" stroke-width="1.6"/>
	<circle cx="102.25" cy="21.42" r="6.65" fill="none" stroke="#9da2a8" stroke-linecap="round" stroke-linejoin="round" stroke-width="1.6"/>
	<path d="M112.81,38.77a11.75,11.75,0,0,0-21.13,0" fill="none" stroke="#9da2a8" stroke-linecap="round" stroke-linejoin="round" stroke-width="1.6"/>
	<path d="M30.94,68.53H8.65A3.44,3.44,0,0,1,5.22,65.1V42.82a3.44,3.44,0,0,1,3.43-3.43H30.94a3.44,3.44,0,0,1,3.43,3.43V65.1A3.44,3.44,0,0,1,30.94,68.53Z" fill="none" stroke="#9da2a8" stroke-linecap="round" stroke-linejoin="round" stroke-width="1.6"/>
	<path d="M34.74,61.68H38a3.25,3.25,0,0,0,3.24-3.24V35.77A3.25,3.25,0,0,0,38,32.53H15.32a3.25,3.25,0,0,0-3.24,3.24V39" fill="none" stroke="#9da2a8" stroke-linecap="round" stroke-linejoin="round" stroke-width="1.6"/>
	<polygon points="23.19 54.73 23.19 46.17 16.14 46.17 16.14 54.73 12.12 54.73 19.67 62.28 27.21 54.73 23.19 54.73" fill="none" stroke="#9da2a8" stroke-linecap="round" stroke-linejoin="round" stroke-width="1.6"/>
	<path d="M183.16,63.42H167.64a2.37,2.37,0,0,1-2.37-2.37V46.86a2.37,2.37,0,0,1,2.37-2.37h21.29A2.38,2.38,0,0,1,191.15,46" fill="none" stroke="#9da2a8" stroke-linecap="round" stroke-linejoin="round" stroke-width="1.6"/>
	<path d="M187.75,44.5V41.86c0-5.7-4.26-10.37-9.46-10.37s-9.46,4.67-9.46,10.37V44.5" fill="none" stroke="#9da2a8" stroke-linecap="round" stroke-linejoin="round" stroke-width="1.6"/>
	<circle cx="178.29" cy="51.6" r="2.37" fill="none" stroke="#9da2a8" stroke-linecap="round" stroke-linejoin="round" stroke-width="1.6"/>
	<path d="M178.29,58.69h0a1,1,0,0,1-.95-.95V54.91a1,1,0,0,1,.95-.95h0a1,1,0,0,1,.95.95v2.84A1,1,0,0,1,178.29,58.69Z" fill="#9da2a8" stroke-width="0"/>
	<path d="M199.15,50.3a8.24,8.24,0,0,0-9.74,13.17L186.77,68,185,67l-2.25,3.89,1.81,1-1.41,2.44,3.6,2.08,6.34-11a8.24,8.24,0,0,0,6.08-15.15Z" fill="none" stroke="#9da2a8" stroke-linecap="round" stroke-linejoin="round" stroke-width="1.6"/>
	<circle cx="195.04" cy="57.43" r="2.75" transform="translate(47.77 197.61) rotate(-59.99)" fill="none" stroke="#9da2a8" stroke-linecap="round" stroke-linejoin="round" stroke-width="1.6"/>
	<circle cx="134.39" cy="127.6" r="37" fill="#7ec64f" stroke-width="0"/>
	<line x1="134.39" y1="138.32" x2="134.39" y2="141.05" fill="none" stroke="#fff" stroke-linecap="round" stroke-linejoin="round" stroke-width="2.4"/>
	<line x1="134.39" y1="146.16" x2="134.39" y2="148.89" fill="none" stroke="#fff" stroke-linecap="round" stroke-linejoin="round" stroke-width="2.4"/>
	<path d="M118,142V114.86l0-.14a18.53,18.53,0,0,1,32.74,0l0,.14V142" fill="none" stroke="#fff" stroke-linecap="round" stroke-linejoin="round" stroke-width="2.4"/>
	<path d="M113.39,147.14l15.43-15.43.11-.08V120.32a6.18,6.18,0,0,1,10.91,0v11.31l.11.08,15.43,15.43" fill="none" stroke="#fff" stroke-linecap="round" stroke-linejoin="round" stroke-width="2.4"/>
	<line x1="128.93" y1="131.62" x2="139.85" y2="131.62" fill="none" stroke="#fff" stroke-linecap="round" stroke-linejoin="round" stroke-width="2.4"/>
	<circle cx="70.11" cy="127.6" r="37" fill="#bac1c6" stroke-width="0"/>
	<circle cx="70.11" cy="127.6" r="35.4" fill="#fff" stroke-width="0"/>
	<polygon points="48.66 120.12 48.66 114.56 53.47 117.34 58.27 120.12 53.47 122.89 48.66 125.67 48.66 120.12" fill="#6cb23e" stroke-width="0"/>
	<polygon points="48.66 131.22 48.66 125.67 53.47 128.44 58.27 131.22 53.47 134 48.66 136.77 48.66 131.22" fill="#6cb23e" stroke-width="0"/>
	<polygon points="58.27 125.67 58.27 131.22 53.47 128.44 48.66 125.67 53.47 122.89 58.27 120.12 58.27 125.67" fill="#a9da1e" stroke-width="0"/>
	<polygon points="58.27 114.56 58.27 120.12 53.47 117.34 48.66 114.56 53.47 111.79 58.27 109.01 58.27 114.56" fill="#a9da1e" stroke-width="0"/>
	<polygon points="58.27 114.56 58.27 109.01 63.08 111.79 67.89 114.56 63.08 117.34 58.27 120.12 58.27 114.56" fill="#6cb23e" stroke-width="0"/>
	<polygon points="67.89 109.01 67.89 114.56 63.08 111.79 58.27 109.01 63.08 106.24 67.89 103.46 67.89 109.01" fill="#a9da1e" stroke-width="0"/>
	<polygon points="91.38 120.12 91.38 114.56 86.58 117.34 81.77 120.12 86.58 122.89 91.38 125.67 91.38 120.12" fill="#0093d1" stroke-width="0"/>
	<polygon points="91.38 131.22 91.38 125.67 86.58 128.44 81.77 131.22 86.58 134 91.38 136.77 91.38 131.22" fill="#0093d1" stroke-width="0"/>
	<polygon points="81.77 125.67 81.77 131.22 86.58 128.44 91.38 125.67 86.58 122.89 81.77 120.12 81.77 125.67" fill="#87c9de" stroke-width="0"/>
	<polygon points="81.77 114.56 81.77 120.12 86.58 117.34 91.38 114.56 86.58 111.79 81.77 109.01 81.77 114.56" fill="#87c9de" stroke-width="0"/>
	<polygon points="81.77 114.56 81.77 109.01 76.96 111.79 72.15 114.56 76.96 117.34 81.77 120.12 81.77 114.56" fill="#0093d1" stroke-width="0"/>
	<polygon points="72.15 109.01 72.15 114.56 76.96 111.79 81.77 109.01 76.96 106.24 72.15 103.46 72.15 109.01" fill="#87c9de" stroke-width="0"/>
	<polygon points="60.41 140.46 60.41 134.91 55.6 137.69 50.79 140.46 55.6 143.24 60.41 146.01 60.41 140.46" fill="#c33" stroke-width="0"/>
	<polygon points="60.41 140.46 60.41 146.01 65.21 143.24 70.02 140.46 65.21 137.69 60.41 134.91 60.41 140.46" fill="#ef8a20" stroke-width="0"/>
	<polygon points="70.02 146.01 70.02 140.46 65.21 143.24 60.41 146.01 65.21 148.79 70.02 151.56 70.02 146.01" fill="#c33" stroke-width="0"/>
	<polygon points="79.64 140.46 79.64 134.91 84.44 137.69 89.25 140.46 84.44 143.24 79.64 146.01 79.64 140.46" fill="#ef8a20" stroke-width="0"/>
	<polygon points="79.64 140.46 79.64 146.01 74.83 143.24 70.02 140.46 74.83 137.69 79.64 134.91 79.64 140.46" fill="#c33" stroke-width="0"/>
	<polygon points="70.02 146.01 70.02 140.46 74.83 143.24 79.64 146.01 74.83 148.79 70.02 151.56 70.02 146.01" fill="#ef8a20" stroke-width="0"/>
	<path d="M45.77,75a3.23,3.23,0,0,1,.5,0" fill="none" stroke="#9da2a8" stroke-linecap="round" stroke-linejoin="round" stroke-width="1.6"/>
	<path d="M49.48,76.15a10.79,10.79,0,0,1,2,1.61,9.63,9.63,0,0,1,2.29,3.58" fill="none" stroke="#9da2a8" stroke-linecap="round" stroke-linejoin="round" stroke-width="1.6" stroke-dasharray="0.86 3.44"/>
	<path d="M54.21,83a4.33,4.33,0,0,1,0,.49" fill="none" stroke="#9da2a8" stroke-linecap="round" stroke-linejoin="round" stroke-width="1.6"/>
	<path d="M158.73,75a3.23,3.23,0,0,0-.5,0" fill="none" stroke="#9da2a8" stroke-linecap="round" stroke-linejoin="round" stroke-width="1.6"/>
	<path d="M155,76.15a10.79,10.79,0,0,0-2,1.61,9.64,9.64,0,0,0-2.29,3.58" fill="none" stroke="#9da2a8" stroke-linecap="round" stroke-linejoin="round" stroke-width="1.6" stroke-dasharray="0.86 3.44"/>
	<path d="M150.28,83a4.15,4.15,0,0,0,0,.49" fill="none" stroke="#9da2a8" stroke-linecap="round" stroke-linejoin="round" stroke-width="1.6"/><line x1="102.25" y1="57.56" x2="102.25" y2="69.56" fill="none" stroke="#9da2a8" stroke-linecap="round" stroke-linejoin="round" stroke-width="1.6" stroke-dasharray="1 4"/>
</svg>