<svg id="icon-browser" xmlns="http://www.w3.org/2000/svg" width="82" height="82" viewBox="0 0 82 82">
    <path d="M80,82H2a2,2,0,0,1-2-2V2A2,2,0,0,1,2,0H80a2,2,0,0,1,2,2V80A2,2,0,0,1,80,82Z" transform="translate(0 0)" style="isolation:isolate" stroke="transparent"/>
    <path d="M34.53,53.65H20.94A1.89,1.89,0,0,1,19,51.83V21.47a1.89,1.89,0,0,1,1.94-1.82H61.06A1.89,1.89,0,0,1,63,21.47V51.83a1.89,1.89,0,0,1-1.94,1.82H47.47" transform="translate(0 0)" fill="none" stroke="#fff" stroke-linecap="round" stroke-linejoin="round" stroke-width="2.8"/>
    <line x1="19" y1="31.85" x2="63" y2="31.85" fill="none" stroke="#fff" stroke-linecap="round" stroke-linejoin="round" stroke-width="2.8"/>
    <circle cx="26.5" cy="25.7" r="1.9" fill="#fff" stroke="transparent"/>
    <circle cx="34.5" cy="25.7" r="1.9" fill="#fff" stroke="transparent"/>
    <circle cx="42.5" cy="25.7" r="1.9" fill="#fff" stroke="transparent"/>
    <polyline points="47.5 47.1 41 40.6 34.5 47.1" fill="none" stroke="#fff" stroke-linecap="round" stroke-linejoin="round" stroke-width="2.8"/>
    <line x1="41" y1="41.35" x2="41" y2="64.35" fill="none" stroke="#fff" stroke-linecap="round" stroke-linejoin="round" stroke-width="2.8"/>
</svg>



