<svg id="icon-new-recommendation" xmlns="http://www.w3.org/2000/svg" xmlns:xlink="http://www.w3.org/1999/xlink" viewBox="0 0 40 40">
    <circle id="Oval-2" cx="20" cy="20" r="20" style="fill:#6db33f;fill-opacity:0.20000000298023224" stroke-width="0"/>
    <path id="Fill-1" d="M29.5,26.06h0V17.16a.52.52,0,0,0-.78-.45l-3.47,2L21,21.15h0v8.9a.52.52,0,0,0,.78.45l3.47-2,4.25-2.45Z" style="fill:#9ccc7f" stroke-width="0"/>
    <path id="Fill-3" d="M11,26.06h0v-8.9a.52.52,0,0,1,.78-.45l3.47,2,4.25,2.44h0v8.9a.52.52,0,0,1-.78.45l-3.47-2L11,26.06Z" style="fill:#9ccc7f" stroke-width="0"/>
    <path id="Fill-5" d="M20.24,10h0l8.15,4.33a.52.52,0,0,1,0,.92l-8.16,4.5h0l-8.16-4.51a.52.52,0,0,1,0-.91L20.24,10Z" style="fill:#9ccc7f" stroke-width="0"/>
</svg>