<svg id="icon-thumbs-down" xmlns="http://www.w3.org/2000/svg" viewBox="0 0 32 32">
	<path id="Stroke-1" d="M17.46,6.66s2.73-1.34,2.73,4v6.72a5.19,5.19,0,0,1-2.3,3.11c-1.79.93-4.52,5-4.52,5s-3.43.31-1.72-3.88-2-2.84-2-2.84H5.19a1.34,1.34,0,0,1-1.37-1.35c0-1.34,0-2.68,1.37-2.68,0,0,0-2.69,1.36-2.69,0,0,0-2.69,1.36-2.69,0,0,0-2.69,1.37-2.69Z" stroke-width="1.34"/>
	<path id="Stroke-3" d="M27,20.1H24.29a1.35,1.35,0,0,1-1.37-1.34V8a1.36,1.36,0,0,1,1.37-1.35H27A1.37,1.37,0,0,1,28.38,8V18.76A1.36,1.36,0,0,1,27,20.1Z" stroke-width="1.34"/>
</svg>