<?xml version="1.0" encoding="UTF-8" standalone="no"?>
<svg width="58px" height="58px" viewBox="0 0 58 58" version="1.1" xmlns="http://www.w3.org/2000/svg" xmlns:xlink="http://www.w3.org/1999/xlink" xmlns:sketch="http://www.bohemiancoding.com/sketch/ns">
    <!-- Generator: Sketch 3.5.1 (25234) - http://www.bohemiancoding.com/sketch -->
    <title>1454036530_android</title>
    <desc>Created with Sketch.</desc>
    <defs></defs>
    <g id="Page-1" stroke="none" stroke-width="1" fill="none" fill-rule="evenodd" sketch:type="MSPage">
        <g id="1454036530_android" sketch:type="MSLayerGroup">
            <g id="Layer_1" sketch:type="MSShapeGroup">
                <g id="g3788" transform="translate(0.346820, 0.343710)">
                    <rect id="Rectangle-1" fill="#A5C63B" x="0" y="0" width="57" height="57" rx="14"></rect>
                    <g id="g4602" transform="translate(12.000000, 9.000000)" fill="#FFFFFF">
                        <path d="M27.5813878,29.6025306 L27.5813878,16.160898 L27.5813878,14.5489796 L27.5813878,14.5489796 L27.5813878,12.726449 L27.5856327,12.726449 L6.37763265,12.726449 L6.35689796,12.726449 L6.35689796,14.5969796 L6.35689796,16.1607347 L6.35689796,29.6023673 C6.35689796,30.9458776 7.30236735,31.9915918 8.64587755,31.9915918 L10.4060408,31.9915918 C10.3453061,32.1548571 10.4385306,32.4560816 10.4385306,32.6774694 L10.4385306,32.8072653 L10.4385306,33.5760816 L10.4385306,37.5509388 C10.4385306,38.8242449 11.3693061,39.8585306 12.6426122,39.8585306 C13.9159184,39.8585306 14.8466939,38.8244082 14.8466939,37.5509388 L14.8466939,33.5760816 L14.8466939,32.8072653 L14.8466939,32.6774694 C14.8466939,32.4573878 14.896,32.1548571 14.8377143,31.9915918 L19.1242449,31.9915918 C19.0635102,32.1548571 19.0914286,32.4560816 19.0914286,32.6774694 L19.0914286,32.8072653 L19.0914286,33.5760816 L19.0914286,37.5509388 C19.0914286,38.8242449 20.0222041,39.8585306 21.2955102,39.8585306 C22.5712653,39.8585306 23.4995918,38.8244082 23.4995918,37.5509388 L23.4995918,33.5760816 L23.4995918,32.8072653 L23.4995918,32.6774694 C23.4995918,32.4573878 23.6142041,32.1548571 23.5559184,31.9915918 L25.3136327,31.9915918 C26.6597551,31.9917551 27.5813878,30.9460408 27.5813878,29.6025306 L27.5813878,29.6025306 Z" id="path6-5"></path>
                        <path d="M29.3773061,14.9850612 L29.3773061,24.8565714 C29.3773061,26.1323265 30.3074286,27.1641633 31.5831837,27.1641633 C32.8577959,27.1641633 33.7854694,26.1323265 33.7854694,24.8565714 L33.7854694,14.9850612 C33.7854694,13.7093061 32.8564898,12.6774694 31.5831837,12.6774694 C30.3074286,12.6774694 29.3773061,13.7093061 29.3773061,14.9850612 L29.3773061,14.9850612 Z" id="path8"></path>
                        <path d="M2.3557551,27.164 C3.63036735,27.164 4.56097959,26.1321633 4.56097959,24.8564082 L4.56097959,14.984898 C4.56097959,13.7091429 3.63020408,12.6773061 2.3557551,12.6773061 C1.08130612,12.6773061 0.152816327,13.7091429 0.152816327,14.984898 L0.152816327,24.8564082 C0.152816327,26.1323265 1.08114286,27.164 2.3557551,27.164 L2.3557551,27.164 Z" id="path10"></path>
                        <path d="M23.1371429,2.14783673 L24.0951837,0.708979592 C24.2142041,0.531673469 24.1642449,0.293632653 23.9905306,0.175755102 C23.8120816,0.0567346939 23.572898,0.10555102 23.4561633,0.282857143 L22.4267755,1.82636735 L21.9947755,2.47502041 L21.5555918,3.13314286 C20.1679837,2.59404082 18.6150204,2.29183673 16.9786122,2.29183673 C15.3446531,2.29183673 13.7939592,2.59404082 12.4040816,3.13314286 L11.964898,2.47502041 L11.5353306,1.82636735 L10.5059592,0.282857143 C10.3880653,0.10555102 10.148898,0.0591836735 9.97159184,0.175755102 C9.79428571,0.292326531 9.74791837,0.531510204 9.8644898,0.708979592 L10.8225306,2.14783673 L11.2520816,2.78930612 L11.6840816,3.41836735 C8.41861224,4.93804082 6.21093878,7.8284898 6.21093878,11.0937959 L27.7497143,11.0937959 C27.7497143,7.8284898 25.540898,4.93689796 22.2754286,3.41836735 L22.7097143,2.77836735 L23.1371429,2.14783673 L23.1371429,2.14783673 Z M12.3660408,8.06130612 C11.7284898,8.06130612 11.2117551,7.54457143 11.2117551,6.90702041 C11.2117551,6.26946939 11.7286531,5.75273469 12.3660408,5.75273469 C13.0035918,5.75273469 13.5203265,6.26963265 13.5203265,6.90702041 C13.5203265,7.54440816 13.0035918,8.06130612 12.3660408,8.06130612 L12.3660408,8.06130612 Z M22.7516735,6.90685714 C22.7516735,7.54440816 22.2347755,8.06114286 21.5973878,8.06114286 C20.96,8.06114286 20.443102,7.54440816 20.443102,6.90685714 C20.443102,6.26930612 20.96,5.75257143 21.5973878,5.75257143 C22.2347755,5.75257143 22.7516735,6.26930612 22.7516735,6.90685714 L22.7516735,6.90685714 Z" id="path12"></path>
                    </g>
                </g>
            </g>
        </g>
    </g>
</svg>