<svg width="24px" height="24px" viewBox="0 0 25 25" version="1.1" xmlns="http://www.w3.org/2000/svg">
    <title>avatar icon</title>
    <g stroke-width="1" fill-rule="evenodd">
        <g transform="translate(-691.000000, -27.000000)">
            <g>
                <g transform="translate(617.000000, 25.000000)">
                    <g transform="translate(86.000000, 14.000000) rotate(-180.000000) translate(-86.000000, -14.000000) translate(74.000000, 2.000000)">
                        <path fill="none" d="M23.47415,11.9868 C23.47415,5.59384 18.27987,0.49945 11.9868,0.49945 C5.69373,0.49945 0.49945,5.59384 0.49945,11.9868 C0.49945,18.37976 5.59384,23.47415 11.9868,23.47415 C18.37976,23.47415 23.47415,18.37976 23.47415,11.9868 L23.47415,11.9868 Z"></path>
                        <path stroke="none" d="M16.58174,5.59384 L16.28207,5.69373 L15.38306,7.39186 L14.78372,7.39186 L14.78372,7.79142 C14.78372,7.79142 15.18328,8.19098 15.38306,8.69043 C15.68273,9.18988 15.58284,10.48845 15.58284,10.48845 C15.58284,10.48845 16.08229,10.58834 16.28207,10.88801 C16.48185,11.28757 16.58174,11.18768 16.68163,12.18658 C16.78152,13.58504 16.28207,13.9846 16.28207,13.9846 L16.38196,14.28427 L16.48185,15.9824 C16.48185,15.9824 16.78152,17.08119 16.48185,17.78042 C16.18218,18.27987 15.9824,18.57954 15.78262,18.77932 C15.58284,18.9791 14.88361,19.17888 14.88361,19.17888 C14.88361,19.17888 14.28427,20.07789 12.28647,19.978 C10.28867,19.978 9.48955,19.17888 9.18988,19.07899 C8.89021,19.07899 8.59054,18.77932 8.19098,18.08009 C7.79142,17.38086 7.59164,16.68163 7.59164,15.9824 C7.59164,15.28317 7.89131,13.9846 7.89131,13.9846 L7.59164,13.58504 C7.59164,13.58504 7.59164,13.58504 7.59164,13.28537 C7.59164,12.68603 7.59164,12.28647 7.69153,11.68713 C7.79142,11.18768 8.09109,10.58834 8.29087,10.48845 C8.49065,10.38856 8.79032,10.38856 8.79032,10.38856 L8.89021,9.18988 C8.89021,9.18988 8.89021,8.79032 9.08999,8.49065 C9.28977,8.19098 9.48955,7.69153 9.48955,7.69153 L9.48955,7.39186 L9.08999,7.39186 L8.39076,6.09329 L7.9912,5.69373 L7.49175,5.59384 C7.49175,5.59384 5.39406,4.79472 4.09549,4.19538 C4.09549,4.09549 3.89571,4.09549 3.69593,3.9956 C5.79362,1.79802 8.69043,0.49945 11.9868,0.49945 C15.48295,0.49945 18.67943,2.09769 20.77712,4.59494 C20.67723,4.39516 20.57734,4.29527 20.47745,4.19538 L16.58174,5.59384 L16.58174,5.59384 Z"></path>
                    </g>
                </g>
            </g>
        </g>
    </g>
</svg>
