<svg width="11px" height="7px" viewBox="-2 -4 16 14" version="1.1" xmlns="http://www.w3.org/2000/svg" xmlns:xlink="http://www.w3.org/1999/xlink">
    <title>down carat</title>
    <defs></defs>
    <g stroke="none" stroke-width="1" fill-rule="evenodd" transform="rotate(-90,5.25,2.25)">
        <g transform="translate(-140, -11)">
            <path d="M150.046404,12.3321429 L145.583751,17.1972449 C145.570077,17.2178571 145.574771,17.2445918 145.556812,17.2627551 C145.4762,17.3435714 145.369465,17.3782653 145.263955,17.3735714 C145.159465,17.377449 145.054159,17.3423469 144.974159,17.262551 C144.956404,17.2445918 144.961302,17.2182653 144.947628,17.1984694 L140.484567,12.3329592 C140.33273,12.1805102 140.33273,11.9345918 140.484567,11.7827551 C140.636404,11.6311224 140.882322,11.6311224 141.034567,11.7827551 L145.264975,16.3958163 L149.4962,11.782551 C149.648037,11.6303061 149.894363,11.6303061 150.0462,11.782551 C150.198037,11.9339796 150.198037,12.1803061 150.046404,12.3321429"></path>
        </g>
    </g>
</svg>
