<?xml version="1.0" encoding="UTF-8" standalone="no"?>
<svg width="16px" height="12px" viewBox="0 0 16 12" version="1.1" xmlns="http://www.w3.org/2000/svg" xmlns:xlink="http://www.w3.org/1999/xlink">
    <!-- Generator: Sketch 3.6.1 (26313) - http://www.bohemiancoding.com/sketch -->
    <title>Fill 1</title>
    <desc>Created with Sketch.</desc>
    <defs></defs>
    <g id="Page-1" stroke="none" stroke-width="1" fill="none" fill-rule="evenodd">
        <path d="M15.6651429,2.11903448 L15.6651429,2.11903448 L6.9032381,11.6362759 C6.69638095,11.8609655 6.41066667,12 6.0952381,12 C5.77942857,12 5.49371429,11.8609655 5.28685714,11.6362759 L0.33447619,6.25696552 C0.127619048,6.03227586 0,5.72193103 0,5.37889655 C0,4.69365517 0.511619048,4.13793103 1.14285714,4.13793103 C1.45828571,4.13793103 1.744,4.27655172 1.95085714,4.50124138 L6.0952381,9.00289655 L14.0487619,0.363310345 C14.255619,0.13862069 14.5413333,0 14.8571429,0 C15.488,0 16,0.555724138 16,1.24137931 C16,1.584 15.872,1.89434483 15.6651429,2.11903448" id="Fill-1" fill="#70B14C"></path>
    </g>
</svg>