<svg width="16px" height="16px" viewBox="0 0 16 16" version="1.1" xmlns="http://www.w3.org/2000/svg">
    <title>Close</title>
    <g stroke="none" stroke-width="1" fill-rule="evenodd">
        <g transform="translate(-991.000000, -164.000000)">
            <g transform="translate(679.000000, 152.000000)">
                <path d="M320.645754,19.8644912 L327.567298,26.7860351 C327.783158,27.0021754 327.783158,27.3519298 327.567298,27.5675088 C327.351439,27.7833684 327.001684,27.7833684 326.786105,27.5675088 L319.864561,20.6456842 L312.943018,27.5675088 C312.727158,27.7833684 312.377404,27.7833684 312.162105,27.5675088 C311.945965,27.3519298 311.945965,27.0021754 312.162105,26.7860351 L319.083649,19.8644912 L312.162105,12.9435088 C311.945965,12.7279298 311.945965,12.377614 312.162105,12.1623158 C312.377684,11.9458947 312.727439,11.9458947 312.943018,12.1623158 L319.864561,19.0838596 L326.786105,12.1623158 C327.001965,11.9458947 327.351719,11.9458947 327.567298,12.1623158 C327.783158,12.3778947 327.783158,12.7282105 327.567298,12.9435088 L320.645754,19.8644912"></path>
            </g>
        </g>
    </g>
</svg>
