<?xml version="1.0" encoding="UTF-8" standalone="no"?>
<svg width="58px" height="58px" viewBox="0 0 58 58" version="1.1" xmlns="http://www.w3.org/2000/svg" xmlns:xlink="http://www.w3.org/1999/xlink" xmlns:sketch="http://www.bohemiancoding.com/sketch/ns">
    <!-- Generator: Sketch 3.5.1 (25234) - http://www.bohemiancoding.com/sketch -->
    <title>1454036513_iOS</title>
    <desc>Created with Sketch.</desc>
    <defs></defs>
    <g id="Page-1" stroke="none" stroke-width="1" fill="none" fill-rule="evenodd" sketch:type="MSPage">
        <g id="1454036513_iOS" sketch:type="MSLayerGroup">
            <g id="Layer_1" sketch:type="MSShapeGroup">
                <g id="g10133" transform="translate(0.227400, 0.664000)">
                    <rect id="Rectangle-1" fill="#8E8E93" x="0" y="0" width="57" height="57" rx="14"></rect>
                    <g id="g10088" transform="translate(9.000000, 18.000000)" fill="#FFFFFF">
                        <path d="M15.790027,0.0371891892 C14.2008716,0.0580472973 12.8327027,0.369540541 11.4885,1.03919595 C8.05600676,2.74918919 6.07359459,6.35014865 6.07359459,10.8872027 C6.07359459,15.4348176 8.02358784,18.928723 11.4682568,20.5631486 C12.3987973,21.0046892 13.3315135,21.244973 14.7475541,21.4133378 C15.4642973,21.4423514 16.1344122,21.4929932 16.8325338,21.4133378 C18.2485743,21.244973 19.1812905,21.0046892 20.1118311,20.5631486 C23.5565,18.928723 25.5064595,15.4348176 25.5064595,10.8872027 C25.5064595,6.35014865 23.5240811,2.74918919 20.0915878,1.03919595 C18.7473851,0.369540541 17.3792162,0.0580472973 15.790027,0.0371891892 L15.790027,0.0371891892 Z M17.1564189,3.23551351 C19.2174324,3.78487162 20.7129527,5.64442568 21.2858986,8.35687838 C21.6883514,10.2618446 21.5786554,12.4631419 21.0025068,14.1968581 C20.1052905,16.8968919 18.1573378,18.4216757 15.790027,18.3971959 C13.42275,18.4216757 11.4747973,16.8968919 10.5775811,14.1968581 C10.0014324,12.4631419 9.89172973,10.2618446 10.2941892,8.35687838 C10.8671351,5.64442568 12.3626554,3.78487162 14.4236689,3.23551351 C15.3581959,3.03744595 16.2893514,3.07312838 17.1564189,3.23551351 L17.1564189,3.23551351 Z" id="path10079"></path>
                        <path d="M2.10304054,0.0371891892 C0.965108108,0.0371891892 0.0426351351,0.959668919 0.0426351351,2.09759459 C0.0426351351,3.23552703 0.965108108,4.158 2.10304054,4.158 C3.24097297,4.158 4.16344595,3.23552703 4.16344595,2.09759459 C4.16344595,0.959668919 3.24097297,0.0371891892 2.10304054,0.0371891892 L2.10304054,0.0371891892 Z M0.177743243,6.32395946 L0.177743243,21.4561081 L4.02833784,21.4561081 L4.02833784,6.32395946 L0.177743243,6.32395946 L0.177743243,6.32395946 Z" id="path10077"></path>
                        <path d="M31.1049932,21.4244459 C29.4552838,21.1419662 27.8685338,20.9230473 26.521723,20.1585946 C26.5037432,20.1428108 27.3168378,17.104777 27.3535473,17.0505878 C29.5182568,17.7855743 32.5656486,18.8166757 34.6202905,17.8721554 C35.7405,17.3117365 36.2922838,16.2758581 36.1069257,15.0812095 C35.8983919,13.737223 34.9676824,12.9627703 32.4135,12.0079054 C29.5647635,10.9429189 27.894,9.63372297 27.2112162,7.9314527 C26.8754932,7.09444595 26.7641554,6.02880405 26.9151757,5.09798649 C27.3351959,2.50922973 29.3519527,0.708195946 32.4470541,0.157824324 C33.3437568,-0.00162837838 35.2613108,-0.00329054054 36.2048041,0.154581081 C37.5645473,0.382081081 39.123777,0.896324324 39.123777,1.11727027 C39.123777,1.19885811 38.3270203,4.00783108 38.286223,4.07006757 C36.9418243,3.53761486 35.4341284,3.15702703 34.1581689,3.14971622 C32.3524662,3.12452027 30.3946419,4.19617568 30.7397973,6.08883784 C30.9842297,7.27497973 31.7412432,7.85408784 34.5272365,8.98618243 C36.5791622,9.81998649 37.5637703,10.3951014 38.4078649,11.2528716 C39.5805743,12.424027 39.9512905,13.798027 39.9599054,15.1598514 C39.9630135,16.2942973 39.85725,16.8235203 39.4524865,17.69925 C38.4692027,19.8266216 36.4644459,21.063027 33.4535946,21.3990203 C32.8893986,21.461973 31.5604392,21.4763649 31.1049932,21.4244527 L31.1049932,21.4244459 Z" id="path10039"></path>
                    </g>
                </g>
            </g>
        </g>
    </g>
</svg>