<svg xmlns="http://www.w3.org/2000/svg" width="14" height="13.28" viewBox="0 0 14 13.28">
  <defs>
    <style>
      .cls-1 {
        fill: #68727a;
        fill-rule: evenodd;
      }
    </style>
  </defs>
  <path class="cls-1" d="M1229.39,5021.2a3.479,3.479,0,0,0,3.17-5.04l2.73-2.69,1.18,1.16,1.01-.99-1.18-1.16,0.76-.75,1.48,1.45,1.3-1.28-1.48-1.46,0.68-.66a1.111,1.111,0,0,0,0-1.58,1.173,1.173,0,0,0-1.6,0l-6.48,6.39a3.536,3.536,0,0,0-5.11,3.12A3.517,3.517,0,0,0,1229.39,5021.2Zm0-5.23a1.745,1.745,0,1,1-1.77,1.74A1.754,1.754,0,0,1,1229.39,5015.97Z" transform="translate(-1225.84 -5007.91)"/>
</svg>
