<svg width="20px" height="20px" viewBox="0 0 20 20" version="1.1" xmlns="http://www.w3.org/2000/svg">
    <title>Launch</title>
    <g stroke="none" stroke-width="1" fill-rule="evenodd">
        <g transform="translate(-776.000000, -397.000000)">
            <g transform="translate(679.000000, 152.000000)">
                <g transform="translate(19.000000, 243.000000)">
                    <path d="M97.6357377,2.65854426 L97.6770492,9.19952787 C97.6783607,9.54083934 97.3842623,9.81723279 97.0203279,9.8192 C96.6557377,9.82116721 96.3593443,9.54575738 96.3577049,9.20477377 L96.3265574,4.2192 L85.6586885,14.9264131 C85.4085246,15.1775607 85.0006557,15.1795279 84.7488525,14.9300197 C84.4967213,14.6805115 84.4947541,14.2749377 84.744918,14.024118 L95.4055738,3.32313443 L90.3872131,3.35428197 C90.0452459,3.35592131 89.7665574,3.06379016 89.7652459,2.70083934 C89.7636066,2.33854426 90.0396721,2.04313443 90.3822951,2.04116721 L96.9698361,2.00083934 C96.9711475,2.00083934 96.972459,2.00018361 96.9737705,2.00018361 C96.9754098,1.99952787 96.9770492,2.00083934 96.9786885,2.00083934 L97.0144262,2.00083934 C97.1606557,2.00018361 97.2895082,2.06116721 97.3957377,2.15001967 C97.4121311,2.16313443 97.4314754,2.17133115 97.4462295,2.18608525 C97.4590164,2.19887213 97.4668852,2.21624918 97.4790164,2.23067541 C97.5714754,2.33592131 97.6357377,2.46674098 97.6363934,2.61362623 L97.6363934,2.6496918 C97.6363934,2.65100328 97.6370492,2.65231475 97.6370492,2.65428197 C97.6370492,2.65624918 97.6357377,2.65756066 97.6357377,2.65854426 L97.6357377,2.65854426 Z M79.3114754,5.27198689 L79.3114754,19.6988721 C79.3114754,20.0608393 79.6045902,20.354282 79.9672131,20.354282 L94.3931148,20.354282 C94.7554098,20.354282 95.0488525,20.0608393 95.0488525,19.6988721 L95.0488525,11.1736262 L96.3606557,11.1736262 L96.3606557,20.354282 C96.3606557,21.0782164 95.7731148,21.6657574 95.0488525,21.6657574 L79.3114754,21.6657574 C78.5868852,21.6657574 78,21.0782164 78,20.354282 L78,4.61657705 C78,3.89198689 78.5868852,3.30477377 79.3114754,3.30477377 L88.4914754,3.30477377 L88.4914754,4.61657705 L79.9672131,4.61657705 C79.6045902,4.61657705 79.3114754,4.91034754 79.3114754,5.27198689 L79.3114754,5.27198689 Z"></path>
                </g>
            </g>
        </g>
    </g>
</svg>
