<?xml version="1.0" encoding="UTF-8" standalone="no"?>
<svg width="17px" height="17px" viewBox="0 0 17 17" version="1.1" xmlns="http://www.w3.org/2000/svg" xmlns:xlink="http://www.w3.org/1999/xlink" xmlns:sketch="http://www.bohemiancoding.com/sketch/ns">
    <!-- Generator: Sketch 3.3.3 (12081) - http://www.bohemiancoding.com/sketch -->
    <title>Imported Layers</title>
    <desc>Created with Sketch.</desc>
    <defs></defs>
    <g id="Catalog" stroke="none" stroke-width="1" fill="none" fill-rule="evenodd" sketch:type="MSPage">
        <g id="-DHD_CATALOG-(DEFAULT)_TWO-LINES" sketch:type="MSArtboardGroup" transform="translate(-668.000000, -93.000000)" fill="#939CA3">
            <g id="Filter-set" sketch:type="MSLayerGroup" transform="translate(0.000000, 80.000000)">
                <g id="Tabs" transform="translate(503.000000, 12.000000)" sketch:type="MSShapeGroup">
                    <g id="Launcher" transform="translate(165.000000, 0.000000)">
                        <g id="Imported-Layers" transform="translate(0.000000, 1.000000)">
                            <path d="M4.051,3.996 C4.051,4.326 3.781,4.596 3.451,4.596 L0.651,4.596 C0.321,4.596 0.051,4.326 0.051,3.996 L0.051,1.196 C0.051,0.866 0.321,0.596 0.651,0.596 L3.451,0.596 C3.781,0.596 4.051,0.866 4.051,1.196 L4.051,3.996" id="Fill-1"></path>
                            <path d="M10.051,3.996 C10.051,4.326 9.781,4.596 9.451,4.596 L6.651,4.596 C6.321,4.596 6.051,4.326 6.051,3.996 L6.051,1.196 C6.051,0.866 6.321,0.596 6.651,0.596 L9.451,0.596 C9.781,0.596 10.051,0.866 10.051,1.196 L10.051,3.996" id="Fill-2"></path>
                            <path d="M16.051,3.996 C16.051,4.326 15.781,4.596 15.451,4.596 L12.651,4.596 C12.321,4.596 12.051,4.326 12.051,3.996 L12.051,1.196 C12.051,0.866 12.321,0.596 12.651,0.596 L15.451,0.596 C15.781,0.596 16.051,0.866 16.051,1.196 L16.051,3.996" id="Fill-3"></path>
                            <path d="M4.051,9.996 C4.051,10.326 3.781,10.596 3.451,10.596 L0.651,10.596 C0.321,10.596 0.051,10.326 0.051,9.996 L0.051,7.196 C0.051,6.866 0.321,6.596 0.651,6.596 L3.451,6.596 C3.781,6.596 4.051,6.866 4.051,7.196 L4.051,9.996" id="Fill-4"></path>
                            <path d="M10.051,9.996 C10.051,10.326 9.781,10.596 9.451,10.596 L6.651,10.596 C6.321,10.596 6.051,10.326 6.051,9.996 L6.051,7.196 C6.051,6.866 6.321,6.596 6.651,6.596 L9.451,6.596 C9.781,6.596 10.051,6.866 10.051,7.196 L10.051,9.996" id="Fill-5"></path>
                            <path d="M16.051,9.996 C16.051,10.326 15.781,10.596 15.451,10.596 L12.651,10.596 C12.321,10.596 12.051,10.326 12.051,9.996 L12.051,7.196 C12.051,6.866 12.321,6.596 12.651,6.596 L15.451,6.596 C15.781,6.596 16.051,6.866 16.051,7.196 L16.051,9.996" id="Fill-6"></path>
                            <path d="M4.051,15.996 C4.051,16.326 3.781,16.596 3.451,16.596 L0.651,16.596 C0.321,16.596 0.051,16.326 0.051,15.996 L0.051,13.196 C0.051,12.866 0.321,12.596 0.651,12.596 L3.451,12.596 C3.781,12.596 4.051,12.866 4.051,13.196 L4.051,15.996" id="Fill-7"></path>
                            <path d="M10.051,15.996 C10.051,16.326 9.781,16.596 9.451,16.596 L6.651,16.596 C6.321,16.596 6.051,16.326 6.051,15.996 L6.051,13.196 C6.051,12.866 6.321,12.596 6.651,12.596 L9.451,12.596 C9.781,12.596 10.051,12.866 10.051,13.196 L10.051,15.996" id="Fill-8"></path>
                            <path d="M16.051,15.996 C16.051,16.326 15.781,16.596 15.451,16.596 L12.651,16.596 C12.321,16.596 12.051,16.326 12.051,15.996 L12.051,13.196 C12.051,12.866 12.321,12.596 12.651,12.596 L15.451,12.596 C15.781,12.596 16.051,12.866 16.051,13.196 L16.051,15.996" id="Fill-9"></path>
                        </g>
                    </g>
                </g>
            </g>
        </g>
    </g>
</svg>