<svg xmlns="http://www.w3.org/2000/svg" width="12" height="16" viewBox="0 0 12 16">
  <defs>
    <style>
      .cls-1 {
        fill: #68727a;
        fill-rule: evenodd;
      }
    </style>
  </defs>
  <path id="Lock" class="cls-1" d="M1236.5,5013.18V5011a4,4,0,0,0-8,0v2.18a3.01,3.01,0,0,0-2,2.82v4a3.009,3.009,0,0,0,3,3h6a3.009,3.009,0,0,0,3-3v-4A3.01,3.01,0,0,0,1236.5,5013.18Zm-4,5.82a1.335,1.335,0,1,1,1.33-1.33A1.329,1.329,0,0,1,1232.5,5019Zm3.33-6h-6.66v-2a3.33,3.33,0,0,1,6.66,0v2Z" transform="translate(-1226.5 -5007)"/>
</svg>
