<?xml version="1.0" encoding="UTF-8" standalone="no"?>
<svg width="170px" height="30px" viewBox="0 0 170 30" version="1.1" xmlns="http://www.w3.org/2000/svg" xmlns:xlink="http://www.w3.org/1999/xlink" xmlns:sketch="http://www.bohemiancoding.com/sketch/ns">
    <!-- Generator: Sketch 3.5.1 (25234) - http://www.bohemiancoding.com/sketch -->
    <title>New_Symbol_130 + Page 1</title>
    <desc>Created with Sketch.</desc>
    <defs>
        <path id="path-1" d="M0,0.529411765 L126.303088,0.529411765 L126.303088,15.8823529 L0,15.8823529 L0,0.529411765 Z"></path>
    </defs>
    <g id="My-Apps-" stroke="none" stroke-width="1" fill="none" fill-rule="evenodd" sketch:type="MSPage">
        <g id="Catalog" sketch:type="MSArtboardGroup" transform="translate(-101.000000, -27.000000)">
            <g id="New_Symbol_130-+-Page-1" sketch:type="MSLayerGroup" transform="translate(101.000000, 27.000000)">
                <g id="New_Symbol_130" transform="translate(0.135747, 0.000000)" sketch:type="MSShapeGroup">
                    <g id="New_Symbol_127">
                        <g id="New_Symbol_121" transform="translate(0.000000, 16.670409)">
                            <path d="M10.3180995,0.325999102 L2.3928733,0.325999102 C1.77056611,0.324970037 1.17321572,0.568746789 0.731674208,1.00392905 C0.329133468,1.41494032 0.0869932915,1.95461202 0.0485294118,2.52649304 L0.0485294118,10.6764706 C0.139771704,11.9204412 1.1771402,12.8870606 2.43393665,12.8991917 L10.3591629,12.8991917 C10.9932611,12.8929418 11.601967,12.6510537 12.0651584,12.2212618 C12.5036882,11.7830908 12.7493401,11.1903004 12.7483032,10.5727436 L12.7483032,2.73765155 C12.7205752,1.41729823 11.6486094,0.35351536 10.3180995,0.325999102 L10.3180995,0.325999102 Z" id="Shape" fill="#607078"></path>
                            <path d="M2.69151584,5.06409969 C2.63791137,4.93791584 2.53416157,4.83931129 2.40481128,4.79161361 C2.27546099,4.74391592 2.13200114,4.75136237 2.00837104,4.81219129 C1.88339128,4.86787047 1.78614697,4.97098133 1.73842908,5.09841831 C1.69071119,5.22585529 1.69650957,5.36696295 1.75452489,5.49012124 L2.87443439,7.90177369 C2.96001582,8.23476881 3.25293102,8.47450424 3.59864253,8.49449933 C3.9719457,8.49449933 4.15113122,8.28334082 4.32285068,7.90177369 C4.32285068,7.90177369 5.30090498,5.78648406 5.30090498,5.74573417 C5.30632663,5.71772034 5.32275275,5.69299642 5.34656195,5.67701314 C5.37037116,5.66102986 5.39960845,5.65509964 5.42782805,5.66052986 C5.52028901,5.66599487 5.59404046,5.73918333 5.59954751,5.83093848 L5.59954751,7.90177369 C5.56463702,8.10378655 5.65377789,8.30711004 5.82651562,8.41947056 C5.99925335,8.53183109 6.22269236,8.53183109 6.39543008,8.41947056 C6.56816781,8.30711004 6.65730868,8.10378655 6.62239819,7.90177369 L6.62239819,6.20880108 C6.62239819,5.90190733 6.87309847,5.65312079 7.18235294,5.65312079 C7.49160741,5.65312079 7.74230769,5.90190733 7.74230769,6.20880108 L7.74230769,7.90177369 C7.7073972,8.10378655 7.79653807,8.30711004 7.9692758,8.41947056 C8.14201353,8.53183109 8.36545254,8.53183109 8.53819026,8.41947056 C8.71092799,8.30711004 8.80006886,8.10378655 8.76515837,7.90177369 L8.76515837,6.20880108 C8.76099343,6.06216248 8.81786339,5.9202932 8.92239164,5.81656288 C9.02691989,5.71283255 9.16988047,5.65639671 9.31764706,5.66052986 C9.46735687,5.64931045 9.6145498,5.70346107 9.72071205,5.80881292 C9.8268743,5.91416477 9.88144146,6.06023409 9.87013575,6.20880108 L9.87013575,7.90177369 C9.83522526,8.10378655 9.92436613,8.30711004 10.0971039,8.41947056 C10.2698416,8.53183109 10.4932806,8.53183109 10.6660183,8.41947056 C10.838756,8.30711004 10.9278969,8.10378655 10.8929864,7.90177369 L10.8929864,5.95689268 C10.8974556,5.62318583 10.7629945,5.30243212 10.5213375,5.07033305 C10.2796804,4.83823398 9.95223774,4.71535304 9.61628959,4.73069151 C9.19578624,4.73470127 8.79366049,4.90230483 8.49638009,5.19746295 C8.24492554,4.87230098 7.8440486,4.69642407 7.43246606,4.73069151 C7.03677828,4.76984457 6.66403204,4.93337968 6.36855204,5.19746295 C6.13986848,4.91358542 5.79758232,4.74307213 5.43156109,4.73069151 C4.92241856,4.70789769 4.45712674,5.01522462 4.28178733,5.49012124 L3.55757919,7.18309385 L2.69151584,5.06409969" id="Shape" fill="#FFFFFF"></path>
                        </g>
                        <path d="M29.106448,11.8804445 C29.5449778,11.4422736 29.7906297,10.8494831 29.7895928,10.2319264 L29.7895928,2.36719802 C29.7905856,1.73907654 29.5395855,1.13639782 29.0920195,0.692248308 C28.6444534,0.248098799 28.0371387,-0.000985290424 27.4041855,2.26582711e-15 L19.5200226,2.26582711e-15 C18.8977154,-0.00102906457 18.300365,0.242747687 17.8588235,0.677929951 L29.106448,11.8804445 Z" id="Shape" fill="#6DB144"></path>
                        <path d="M29.106448,11.8804445 L17.8065611,0.677929951 C17.4040203,1.08894122 17.1618802,1.62861292 17.1234163,2.20049394 L17.1234163,10.3504715 C17.2146586,11.5944421 18.2520271,12.5610615 19.5088235,12.5731926 L27.4340498,12.5731926 C28.0614784,12.5687965 28.6620647,12.320019 29.106448,11.8804445 L29.106448,11.8804445 Z" id="Shape" fill="#B0D246"></path>
                        <path d="M12.020362,11.9211944 C12.4588918,11.4830235 12.7045438,10.890233 12.7035068,10.2726762 L12.7035068,2.41165245 C12.7044997,1.78353096 12.4534995,1.18085224 12.0059335,0.736702731 C11.5583674,0.292553222 10.9510527,0.0434691326 10.3180995,0.044454423 L2.3928733,0.044454423 C1.77056611,0.0434253584 1.17321572,0.28720211 0.731674208,0.722384374 L12.020362,11.9211944 Z" id="Shape" fill="#D65529"></path>
                        <path d="M12.020362,11.9211944 L0.731674208,0.718679838 C0.329133468,1.1296911 0.0869932915,1.6693628 0.0485294118,2.24124383 L0.0485294118,10.3912214 C0.139771704,11.635192 1.1771402,12.6018114 2.43393665,12.6139425 L10.3591629,12.6139425 C10.9747579,12.57127 11.5588348,12.3277001 12.020362,11.9211944 L12.020362,11.9211944 Z" id="Shape" fill="#F9B52F"></path>
                        <path d="M29.106448,28.9176022 C29.5449778,28.4794312 29.7906297,27.8866407 29.7895928,27.269084 L29.7895928,19.4080602 C29.7905856,18.7799387 29.5395855,18.17726 29.0920195,17.7331105 C28.6444534,17.2889609 28.0371387,17.0398769 27.4041855,17.0408621 L19.5200226,17.0408621 C18.8977154,17.0398331 18.300365,17.2836098 17.8588235,17.7187921 L29.106448,28.9176022 Z" id="Shape" fill="#1E94CF"></path>
                        <path d="M29.106448,28.9176022 L17.8065611,17.7150876 C17.4040203,18.1260988 17.1618802,18.6657705 17.1234163,19.2376515 L17.1234163,27.3876291 C17.2146586,28.6315997 18.2520271,29.5982191 19.5088235,29.6103502 L27.4340498,29.6103502 C28.0573767,29.5867627 28.6512001,29.3407866 29.106448,28.9176022 L29.106448,28.9176022 Z" id="Shape" fill="#8ACADC"></path>
                    </g>
                </g>
                <g id="Page-1" transform="translate(43.235294, 8.823529)">
                    <path d="M13.7646397,0.529279412 L10.852875,11.1175147 L7.94111029,0.529279412 L7.01463971,0.529279412 L4.03669853,11.1175147 L1.12493382,0.529279412 L-6.61764707e-05,0.529279412 L3.44111029,12.5733971 L4.56611029,12.5733971 L7.47853676,2.24986765 L10.3896397,12.5733971 L11.4484632,12.5733971 L14.8896397,0.529279412 L13.7646397,0.529279412 Z" id="Fill-1" fill="white" sketch:type="MSShapeGroup"></path>
                    <g id="Group-25">
                        <path d="M22.8970588,8.20588235 C22.8970588,6.28676471 21.7720588,4.5 19.7205882,4.5 C17.6691176,4.5 16.5441176,6.28676471 16.5441176,8.20588235 C16.5441176,10.125 17.6691176,11.9117647 19.7205882,11.9117647 C21.7720588,11.9779412 22.8970588,10.1911765 22.8970588,8.20588235 M15.5514706,8.20588235 C15.5514706,5.69117647 17.2058824,3.63970588 19.7205882,3.63970588 C22.3014706,3.63970588 23.9558824,5.69117647 23.9558824,8.20588235 C23.9558824,10.7205882 22.3014706,12.7720588 19.7205882,12.7720588 C17.1397059,12.7720588 15.5514706,10.7867647 15.5514706,8.20588235" id="Fill-2" fill="white" sketch:type="MSShapeGroup"></path>
                        <path d="M26.3382353,12.5735294 L26.3382353,3.83823529 L27.2647059,3.83823529 L27.2647059,5.36029412 C27.9926471,4.36764706 28.9852941,3.70588235 30.1764706,3.70588235 L30.1764706,4.76470588 C30.0441176,4.69852941 29.9117647,4.69852941 29.7132353,4.69852941 C28.8529412,4.69852941 27.6617647,5.49264706 27.2647059,6.22058824 L27.2647059,12.5735294 L26.3382353,12.5735294 L26.3382353,12.5735294 Z" id="Fill-4" fill="white" sketch:type="MSShapeGroup"></path>
                        <path d="M38.1176471,12.5735294 L34.6102941,8.40441176 L32.9558824,9.92647059 L32.9558824,12.5735294 L32.0294118,12.5735294 L32.0294118,0.529411765 L32.9558824,0.529411765 L32.9558824,8.86764706 L38.0514706,3.90441176 L39.3088235,3.90441176 L35.2720588,7.80882353 L39.3088235,12.5735294 L38.1176471,12.5735294 Z" id="Fill-6" fill="white" sketch:type="MSShapeGroup"></path>
                        <path d="M40.3676471,11.3823529 L40.8970588,10.7205882 C41.4264706,11.4485294 42.4852941,11.9779412 43.7426471,11.9779412 C45.1985294,11.9779412 46.0588235,11.25 46.0588235,10.1911765 C46.0588235,7.80882353 40.5661765,9.13235294 40.5661765,6.02205882 C40.5661765,4.69852941 41.6911765,3.57352941 43.6764706,3.57352941 C45.1985294,3.57352941 46.1911765,4.16911765 46.7867647,4.83088235 L46.2573529,5.49264706 C45.7279412,4.83088235 44.8014706,4.36764706 43.6764706,4.36764706 C42.3529412,4.36764706 41.4926471,5.02941176 41.4926471,5.95588235 C41.4926471,8.13970588 46.9852941,6.81617647 46.9852941,10.1911765 C46.9852941,11.5808824 45.9264706,12.7720588 43.7426471,12.7720588 C42.3529412,12.7720588 41.2279412,12.375 40.3676471,11.3823529" id="Fill-8" fill="white" sketch:type="MSShapeGroup"></path>
                        <path d="M56.3161765,8.20588235 C56.3161765,6.08823529 55.1911765,4.5 53.2720588,4.5 C52.0808824,4.5 50.8897059,5.22794118 50.4264706,6.02205882 L50.4264706,10.3235294 C50.9558824,11.1838235 52.0808824,11.9117647 53.2720588,11.9117647 C55.1911765,11.9779412 56.3161765,10.3235294 56.3161765,8.20588235 M50.3602941,11.1838235 L50.3602941,15.8823529 L49.4338235,15.8823529 L49.4338235,3.83823529 L50.3602941,3.83823529 L50.3602941,5.22794118 C50.9558824,4.36764706 52.0808824,3.63970588 53.4044118,3.63970588 C55.7205882,3.63970588 57.3088235,5.42647059 57.3088235,8.20588235 C57.3088235,10.9852941 55.7205882,12.7720588 53.4044118,12.7720588 C52.1470588,12.7720588 51.0882353,12.1764706 50.3602941,11.1838235" id="Fill-10" fill="white" sketch:type="MSShapeGroup"></path>
                        <path d="M65.1838235,10.8529412 L65.1838235,8.93382353 C64.5882353,8.13970588 63.5955882,7.74264706 62.5367647,7.74264706 C61.0808824,7.74264706 60.1544118,8.66911765 60.1544118,9.92647059 C60.1544118,11.1838235 61.0808824,12.0441176 62.5367647,12.0441176 C63.5955882,12.0441176 64.5882353,11.6470588 65.1838235,10.8529412 L65.1838235,10.8529412 Z M65.1838235,12.5735294 L65.1838235,11.5147059 C64.3897059,12.375 63.4632353,12.7720588 62.2058824,12.7720588 C60.6838235,12.7720588 59.1617647,11.7132353 59.1617647,9.86029412 C59.1617647,7.94117647 60.6838235,6.94852941 62.2058824,6.94852941 C63.3970588,6.94852941 64.3897059,7.34558824 65.1838235,8.20588235 L65.1838235,6.41911765 C65.1838235,5.09558824 64.125,4.43382353 62.8676471,4.43382353 C61.7426471,4.43382353 60.9485294,4.83088235 60.1544118,5.69117647 L59.625,5.02941176 C60.5514706,4.03676471 61.5441176,3.57352941 63,3.57352941 C64.7867647,3.57352941 66.1764706,4.43382353 66.1764706,6.35294118 L66.1764706,12.5073529 L65.1838235,12.5073529 L65.1838235,12.5735294 Z" id="Fill-12" fill="white" sketch:type="MSShapeGroup"></path>
                        <path d="M68.5588235,8.20588235 C68.5588235,5.69117647 70.2132353,3.63970588 72.7941176,3.63970588 C74.3161765,3.63970588 75.1764706,4.23529412 75.9044118,5.09558824 L75.2426471,5.69117647 C74.5808824,4.83088235 73.7867647,4.5 72.8602941,4.5 C70.8088235,4.5 69.5514706,6.15441176 69.5514706,8.20588235 C69.5514706,10.3235294 70.8088235,11.9117647 72.8602941,11.9117647 C73.7867647,11.9117647 74.5808824,11.5808824 75.2426471,10.6544118 L75.9044118,11.25 C75.1764706,12.1764706 74.3161765,12.7720588 72.7941176,12.7720588 C70.2132353,12.7720588 68.5588235,10.7867647 68.5588235,8.20588235" id="Fill-14" fill="white" sketch:type="MSShapeGroup"></path>
                        <path d="M81.6617647,4.43382353 C79.6102941,4.43382353 78.5514706,6.22058824 78.4852941,7.74264706 L84.8382353,7.74264706 C84.8382353,6.28676471 83.8455882,4.43382353 81.6617647,4.43382353 M77.4926471,8.20588235 C77.4926471,5.69117647 79.2794118,3.63970588 81.6617647,3.63970588 C84.3088235,3.63970588 85.7647059,5.75735294 85.7647059,8.27205882 L85.7647059,8.53676471 L78.4852941,8.53676471 C78.5514706,10.4558824 79.8088235,11.9779412 81.9264706,11.9779412 C83.0514706,11.9779412 84.0441176,11.5808824 84.7720588,10.7867647 L85.2352941,11.3823529 C84.375,12.3088235 83.25,12.7720588 81.7941176,12.7720588 C79.2794118,12.7720588 77.4926471,10.9191176 77.4926471,8.20588235" id="Fill-16" fill="white" sketch:type="MSShapeGroup"></path>
                        <path d="M102.663794,7.50533824 C102.663794,4.48636765 100.805559,2.27144118 97.9480588,2.27144118 C95.0720294,2.27144118 93.2323235,4.48636765 93.2323235,7.50533824 C93.2323235,10.5057794 95.0720294,12.7385735 97.9480588,12.7385735 C100.805559,12.7385735 102.663794,10.5057794 102.663794,7.50533824 M92.1602647,7.50533824 C92.1602647,4.02180882 94.4466618,1.34232353 97.9480588,1.34232353 C101.431588,1.34232353 103.735191,4.02180882 103.735191,7.50533824 C103.735191,10.9888676 101.431588,13.6683529 97.9480588,13.6683529 C94.4466618,13.6683529 92.1602647,10.9888676 92.1602647,7.50533824" id="Fill-18" fill="white" sketch:type="MSShapeGroup"></path>
                        <path d="M114.778456,13.4534779 L107.276029,3.21796324 L107.276029,13.4534779 L106.257574,13.4534779 L106.257574,1.53906618 L107.293235,1.53906618 L114.760588,11.6316397 L114.760588,1.53906618 L115.779044,1.53906618 L115.779044,13.4534779 L114.778456,13.4534779 Z" id="Fill-20" fill="white" sketch:type="MSShapeGroup"></path>
                        <g id="Group-24">
                            <mask id="mask-2" sketch:name="Clip 23" fill="white">
                                <use xlink:href="#path-1"></use>
                            </mask>
                            <g id="Clip-23"></g>
                            <path d="M118.747125,13.4534779 L118.747125,1.53906618 L126.303154,1.53906618 L126.303154,2.46752206 L119.765581,2.46752206 L119.765581,6.87950735 L126.178081,6.87950735 L126.178081,7.80928676 L119.765581,7.80928676 L119.765581,12.5250221 L126.303154,12.5250221 L126.303154,13.4534779 L118.747125,13.4534779 Z" id="Fill-22" fill="white" sketch:type="MSShapeGroup" mask="url(#mask-2)"></path>
                        </g>
                    </g>
                </g>
            </g>
        </g>
    </g>
</svg>