<?xml version="1.0" encoding="UTF-8" standalone="no"?>
<svg width="57px" height="57px" viewBox="0 0 57 57" version="1.1" xmlns="http://www.w3.org/2000/svg" xmlns:xlink="http://www.w3.org/1999/xlink" xmlns:sketch="http://www.bohemiancoding.com/sketch/ns">
    <!-- Generator: Sketch 3.5.1 (25234) - http://www.bohemiancoding.com/sketch -->
    <title>1454036534_apple</title>
    <desc>Created with Sketch.</desc>
    <defs></defs>
    <g id="Page-1" stroke="none" stroke-width="1" fill="none" fill-rule="evenodd" sketch:type="MSPage">
        <g id="1454036534_apple" sketch:type="MSLayerGroup" transform="translate(-1.000000, -1.000000)">
            <g id="Layer_1" sketch:type="MSShapeGroup">
                <g id="g3811" transform="translate(0.909210, 0.250010)">
                    <rect id="Rectangle-1" fill="#B8B8BD" x="0.09079" y="0.74999" width="57" height="57" rx="14"></rect>
                    <path d="M30.2865996,12.0297831 C31.7230517,10.3408916 34.1510516,9.08444521 36.1546109,9 C36.4101703,11.346226 35.4697298,13.6955638 34.0795038,15.3884553 C32.6870517,17.0782361 30.4079329,18.3946824 28.1710392,18.2191264 C27.8670392,15.9235683 28.9941591,13.5297864 30.2865996,12.0297831 L30.2865996,12.0297831 Z M41.6848481,44.034283 C40.02217,46.4725112 38.3026106,48.8960694 35.5879442,48.9467372 C32.916385,48.9974039 32.0599444,47.3591779 29.0110403,47.3591779 C25.9590393,47.3591779 25.0039205,48.8960694 22.4817062,48.9974039 C19.860802,49.0960694 17.8674803,46.364066 16.1919094,43.9365056 C12.7683501,38.9733859 10.1541241,29.9027023 13.6687906,23.7813589 C15.4092428,20.7413547 18.5283615,18.8182394 21.9074801,18.7671287 C24.481706,18.7195728 26.9132653,20.5080214 28.4848258,20.5080214 C30.059933,20.5080214 33.0114922,18.3609061 36.1137297,18.6760168 C37.4123962,18.7297942 41.0572887,19.2009072 43.3986219,22.6369128 C43.2132886,22.7586902 39.0479555,25.1902504 39.09817,30.2551475 C39.1488483,36.3053802 44.3835146,38.3160503 44.4444074,38.343605 C44.3964074,38.4858288 43.6070741,41.2147226 41.6848481,44.034283 L41.6848481,44.034283 Z" id="Apple" fill="#FFFFFF"></path>
                </g>
            </g>
        </g>
    </g>
</svg>