<?xml version="1.0" encoding="UTF-8" standalone="no"?>
<!DOCTYPE svg PUBLIC "-//W3C//DTD SVG 1.1//EN" "http://www.w3.org/Graphics/SVG/1.1/DTD/svg11.dtd">
<svg version="1.1" xmlns="http://www.w3.org/2000/svg" x="0px" y="0px" viewBox="0 0 72 72">
  <g
     id="g3926"
     transform="translate(17.38983,25.322034)">
    <g
       transform="matrix(1,0,0,-1,35.50017,-12.504)"
       id="g3928">
      <path
         d="m 0,0 -4.853,-4.853 c 5.056,-3.721 8.345,-9.71 8.345,-16.456 0,-11.261 -9.162,-20.424 -20.425,-20.424 -11.262,0 -20.424,9.163 -20.424,20.424 0,6.762 3.304,12.764 8.381,16.483 l -4.853,4.853 c -6.288,-4.986 -10.326,-12.687 -10.326,-21.336 0,-15.035 12.188,-27.222 27.222,-27.222 15.035,0 27.223,12.187 27.223,27.222 C 10.29,-12.676 6.268,-4.988 0,0"
         id="path3930"/>
    </g>
    <g
       transform="translate(15.20017,11.399966)"
       id="g3932">
      <path
         d="m 0,0 0,-18.523 0,-9.33 7.143,0 0,10.663 L 7.143,0 0,0 z"
         id="path3934"/>
    </g>
  </g>
</svg>
