<svg viewBox="-1 -2 19 18" version="1.1" xmlns="http://www.w3.org/2000/svg">
    <title>Search</title>
    <g stroke="none" stroke-width="1" fill-rule="evenodd">
        <g transform="translate(-501.000000, -32.000000)">
            <g>
                <g transform="translate(491.000000, 25.000000)">
                    <g transform="translate(10.000000, 7.000000)">
                        <path d="M16.2882401,15.0795473 L11.5432726,10.3402154 C12.4334295,9.24959266 12.9685381,7.85876373 12.9685381,6.34189884 C12.9685381,2.84392606 10.1300534,0.00843373494 6.62838913,0.00843373494 C3.12735885,0.00843373494 0.288240135,2.84392606 0.288240135,6.34189884 C0.288240135,9.83923827 3.12735885,12.6747306 6.62838913,12.6747306 C8.15446299,12.6747306 9.55436789,12.1357527 10.6486776,11.2383007 L15.3911091,15.9757326 L16.2882401,15.0795473 L16.2882401,15.0795473 Z M6.62838913,11.4074042 C3.8273113,11.4074042 1.55626993,9.13875703 1.55626993,6.34063214 C1.55626993,3.54187392 3.82667729,1.27322672 6.62838913,1.27322672 C9.42946695,1.27322672 11.7005083,3.54187392 11.7005083,6.34063214 C11.7011423,9.13939037 9.43010097,11.4074042 6.62838913,11.4074042 L6.62838913,11.4074042 Z"></path>
                    </g>
                </g>
            </g>
        </g>
    </g>
</svg>
