<svg xmlns="http://www.w3.org/2000/svg" width="17.94" height="18" viewBox="0 0 17.94 18">
  <defs>
    <style>
      .cls-1 {
        fill: #9daab3;
        fill-rule: evenodd;
      }
    </style>
  </defs>
  <path id="Key" class="cls-1" d="M2237.81,4545a5.87,5.87,0,0,1,0-11.74,5.7,5.7,0,0,1,2,.36l6.3-6.33a1.033,1.033,0,0,1,.71-0.29h2.08a0.994,0.994,0,0,1,.99,1v2.09a0.967,0.967,0,0,1-.29.7l-0.23.23,0.45,1.13a1,1,0,0,1-.22,1.08,0.988,0.988,0,0,1-1.07.22l-1.13-.45-1.27,1.25,0.44,1.12a1,1,0,0,1-1.29,1.3l-1.11-.45-0.87.89a6.055,6.055,0,0,1,.36,2.02A5.868,5.868,0,0,1,2237.81,4545Zm0-9.74a3.87,3.87,0,1,0,3.86,3.87,3.773,3.773,0,0,0-.44-1.77,1,1,0,0,1,.17-1.16l1.8-1.86c0.21-.2.85-0.85,1.06-1.05l2.21-2.18,1.03-1.03,0.4-.41V4529h-0.67l-6.49,6.52a1,1,0,0,1-1.16.18A3.8,3.8,0,0,0,2237.81,4535.26Zm-0.69,6.61a2.045,2.045,0,1,1,2.03-2.04A2.042,2.042,0,0,1,2237.12,4541.87Zm0-2.09,0.04,0.05A0.046,0.046,0,0,0,2237.12,4539.78Z" transform="translate(-2231.97 -4527)"/>
</svg>
