<svg width="69px" height="28px" viewBox="0 0 69 28" version="1.1" xmlns="http://www.w3.org/2000/svg">
    <title>Sort ascending</title>
    <defs></defs>
    <g stroke-width="0">
        <path d="M68.3256004,18.0532573 C67.9561972,17.6819693 67.3568593,17.6819693 66.9883984,18.0532573 L62.0240713,23.764872 L62.0240713,0.805330486 L60.139361,0.805330486 L60.139361,23.7987968 L55.1458209,18.0532573 C54.77736,17.6819693 54.1780221,17.6819693 53.8086189,18.0532573 C53.4392157,18.4245452 53.4392157,19.0257678 53.8086189,19.3970558 L60.3504485,26.9245889 C60.5483431,27.1224835 60.8093755,27.2072955 61.0666385,27.1931601 C61.3248438,27.2072955 61.5858762,27.1224835 61.7837708,26.9245889 L68.3256004,19.3970558 C68.6950036,19.0257678 68.6950036,18.4245452 68.3256004,18.0532573 L68.3256004,18.0532573 Z"></path>
        <path d="M14.234375,17.9375 L4.953125,17.9375 L1.765625,26 L0,26 L9.1875,3.0625 L10.203125,3.0625 L19.203125,26 L17.40625,26 L14.234375,17.9375 Z M5.53125,16.5 L13.703125,16.5 L10.59375,8.265625 C10.333332,7.61978844 10.0208352,6.72396406 9.65625,5.578125 C9.37499859,6.57813 9.06771,7.48437094 8.734375,8.296875 L5.53125,16.5 Z M20.640625,18 L20.640625,16.71875 L28.0625,16.71875 L28.0625,18 L20.640625,18 Z M46.65625,26 L30.78125,26 L30.78125,24.8125 L44.15625,4.65625 L31.390625,4.65625 L31.390625,3.15625 L46.296875,3.15625 L46.296875,4.34375 L32.890625,24.5 L46.65625,24.5 L46.65625,26 Z"></path>
    </g>
</svg>
