<svg width="24px" height="24px" viewBox="-.5 -1.5 23.5 22.5" version="1.1" xmlns="http://www.w3.org/2000/svg">
    <!-- Generator: Sketch 3.3.2 (12043) - http://www.bohemiancoding.com/sketch -->
    <title>Star icon</title>
    <desc>Created with Sketch.</desc>
    <defs></defs>
    <g stroke-width="1" fill-rule="evenodd">
        <path d="M20.7992356,7.03466225 L13.817023,7.03466225 L11.5312703,0.488905162 C11.431002,0.204228108 11.2335129,0.0693014706 10.9250887,0.0693014706 C10.6169692,0.0693014706 10.4072895,0.204228108 10.308545,0.488905162 L8.0227923,7.03466225 L1.03936062,7.03466225 C0.730936392,7.03466225 0.536799796,7.17170657 0.433179007,7.45517352 C0.353634812,7.76132993 0.421293092,7.9894346 0.639201517,8.15854669 L6.23929565,12.503729 L4.20467097,19.1629333 C4.115679,19.454871 4.20467097,19.6956818 4.43324624,19.866004 C4.68589811,20.0136367 4.94891205,20.0314858 5.18815417,19.866004 L10.9250887,15.895349 L16.6501373,19.866004 C16.7729584,19.9510138 16.9027892,19.9794513 17.0277437,19.9794513 C17.3824925,19.9794513 17.6561733,19.7065727 17.6561733,19.3553399 C17.6561733,19.2987676 17.6491636,19.2182956 17.6110678,19.0942599 L15.5989958,12.503729 L21.19909,8.15854669 C21.424008,7.9836866 21.4849614,7.74953141 21.3825597,7.45517352 C21.3252635,7.1940935 21.0741355,7.03466225 20.7992356,7.03466225 Z"></path>
    </g>
</svg>
