<svg width="22px" height="24px" viewBox="0 0 22 24" version="1.1" xmlns="http://www.w3.org/2000/svg">
    <title>Delete</title>
    <g stroke="none" stroke-width="1" fill-rule="evenodd">
        <g transform="translate(-698.000000, -395.000000)">
            <g transform="translate(679.000000, 152.000000)">
                <g transform="translate(19.000000, 243.000000)">
                    <path d="M20.9180328,4.4 L20.1967213,4.4 L20.1967213,22.0003667 C20.1967213,22.8099667 19.5511475,23.4674 18.7540984,23.4674 L2.8852459,23.4674 C2.08891803,23.4674 1.44262295,22.8099667 1.44262295,22.0003667 L1.44262295,4.4 L0.72095082,4.4 C0.323147541,4.4 0,4.07146667 0,3.66703333 C0,3.26186667 0.323147541,2.93333333 0.72095082,2.93333333 L7.2127541,2.93333333 L7.2127541,0.734066667 C7.2127541,0.328533333 7.53590164,0 7.93406557,0 L13.704918,0 C14.1034426,0 14.4262295,0.328533333 14.4262295,0.734066667 L14.4262295,2.93333333 L20.9180328,2.93333333 C21.3161967,2.93333333 21.6393443,3.26186667 21.6393443,3.66703333 C21.6393443,4.07146667 21.3161967,4.4 20.9180328,4.4 L20.9180328,4.4 Z M8.6557377,2.93333333 L12.9836066,2.93333333 L12.9836066,1.46703333 L8.6557377,1.46703333 L8.6557377,2.93333333 Z M18.7540984,4.4 L2.8852459,4.4 L2.8852459,21.2666667 C2.8852459,21.6722 3.20803279,22.0003667 3.60655738,22.0003667 L18.0327869,22.0003667 C18.4313115,22.0003667 18.7540984,21.6722 18.7540984,21.2666667 L18.7540984,5.86813333 L18.7540984,5.86886667 L18.7540984,4.4 L18.7540984,4.4 Z M14.4262295,9.53333333 L15.8688525,9.53333333 L15.8688525,18.3337 L14.4262295,18.3337 L14.4262295,9.53333333 Z M10.0983607,8.06593333 L11.5409836,8.06593333 L11.5409836,18.3333333 L10.0983607,18.3333333 L10.0983607,8.06593333 Z M5.7704918,9.53333333 L7.2127541,9.53333333 L7.2127541,18.3337 L5.7704918,18.3337 L5.7704918,9.53333333 Z"></path>
                </g>
            </g>
        </g>
    </g>
</svg>
