<?xml version="1.0" encoding="utf-8"?>
<!DOCTYPE svg PUBLIC "-//W3C//DTD SVG 1.1//EN" "http://www.w3.org/Graphics/SVG/1.1/DTD/svg11.dtd">
<svg version="1.1" baseProfile="full"
 xmlns="http://www.w3.org/2000/svg"
 xmlns:xlink="http://www.w3.org/1999/xlink"
 xmlns:ev="http://www.w3.org/2001/xml-events" 
  viewBox="0 0 72 72"
>
<path fill="rgb( 0, 0, 0 )"
 d="M30.206,49.489 C30.102,48.589 29.941,47.689 29.705,46.796 C29.705,46.796 30.167,45.392 30.167,45.392 C30.167,45.392 31.874,40.205 31.874,40.205 C32.568,38.089 32.538,35.857 31.821,33.81 C31.821,33.81 32.566,31.544 32.566,31.544 C32.566,31.544 71.998,31.544 71.998,31.544 C71.998,31.544 71.998,49.489 71.998,49.489 C71.998,49.489 30.206,49.489 30.206,49.489 ZM37.498,34.284 C37.498,34.284 34.498,34.284 34.498,34.284 C34.498,34.284 34.498,43.758 34.498,43.758 C34.498,43.758 37.498,43.758 37.498,43.758 C37.498,43.758 37.498,34.284 37.498,34.284 ZM46.499,34.284 C46.499,34.284 43.498,34.284 43.498,34.284 C43.498,34.284 43.498,39.519 43.498,39.519 C43.498,39.519 46.499,39.519 46.499,39.519 C46.499,39.519 46.499,34.284 46.499,34.284 ZM55.496,34.284 C55.496,34.284 52.498,34.284 52.498,34.284 C52.498,34.284 52.498,43.758 52.498,43.758 C52.498,43.758 55.496,43.758 55.496,43.758 C55.496,43.758 55.496,34.284 55.496,34.284 ZM64.497,34.284 C64.497,34.284 61.497,34.284 61.497,34.284 C61.497,34.284 61.497,39.519 61.497,39.519 C61.497,39.519 64.497,39.519 64.497,39.519 C64.497,39.519 64.497,34.284 64.497,34.284 ZM36.938,8.081 C35.792,5.391 37.051,2.283 39.75,1.142 C42.448,0 45.565,1.254 46.71,3.946 C46.71,3.946 56.799,27.644 56.799,27.644 C56.799,27.644 45.265,27.644 45.265,27.644 C45.265,27.644 36.938,8.081 36.938,8.081 ZM26.773,34.131 C27.653,35.444 27.945,37.129 27.411,38.746 C27.411,38.746 25.705,43.932 25.705,43.932 C23.165,41.217 20.009,40.114 17.169,39.921 C16.708,39.886 16.257,39.874 15.815,39.876 C15.815,39.876 17.278,35.428 17.278,35.428 C17.808,33.815 19.048,32.626 20.536,32.092 C20.536,32.092 30.169,2.823 30.169,2.823 C30.58,1.577 31.667,0.744 32.889,0.593 C33.354,0.537 33.837,0.579 34.311,0.734 C36.035,1.296 36.97,3.145 36.405,4.864 C36.405,4.864 26.773,34.131 26.773,34.131 ZM16.987,42.259 C19.752,42.507 22.599,43.505 24.838,46.573 C24.838,46.573 24.782,46.743 24.782,46.743 C28.717,57.871 18.471,66.99 11.64,69.456 C10.723,69.786 9.862,69.987 9.059,70.085 C3.811,70.728 1.037,67.01 1.721,66.665 C3.084,65.978 9.879,65.048 7.124,55.414 C5.178,48.61 12.797,43.357 14.82,42.258 C15.518,42.208 16.248,42.2 16.987,42.259 ZM11.354,38.416 C11.354,38.416 11.164,38.995 11.164,38.995 C10.945,39.139 10.723,39.292 10.5,39.451 C10.5,39.451 10.5,34.284 10.5,34.284 C10.5,34.284 7.498,34.284 7.498,34.284 C7.498,34.284 7.498,39.519 7.498,39.519 C7.498,39.519 10.403,39.519 10.403,39.519 C7.418,41.654 3.997,45.139 2.674,49.489 C2.674,49.489 0,49.489 0,49.489 C0,49.489 0,31.544 0,31.544 C0,31.544 14.001,31.544 14.001,31.544 C13.507,32.287 13.103,33.1 12.815,33.973 C12.815,33.973 11.354,38.416 11.354,38.416 ZM71.839,59.88 C69.891,61.149 69.608,65.134 71.168,69.33 C71.168,69.33 67.212,71.003 67.212,71.003 C65.241,66.912 62.112,64.339 59.835,64.951 C59.835,64.951 56.869,53.39 56.869,53.39 C56.869,53.39 67.846,53.39 67.846,53.39 C67.846,53.39 71.839,59.88 71.839,59.88 ZM67.323,61.209 C66.936,60.303 65.886,59.878 64.975,60.264 C64.063,60.649 63.638,61.698 64.024,62.607 C64.411,63.514 65.464,63.938 66.373,63.555 C67.284,63.169 67.711,62.119 67.323,61.209 Z "/>
</svg>
