<?xml version="1.0" encoding="utf-8"?>
<!-- Generator: Adobe Illustrator 16.0.4, SVG Export Plug-In . SVG Version: 6.00 Build 0)  -->
<!DOCTYPE svg PUBLIC "-//W3C//DTD SVG 1.1//EN" "http://www.w3.org/Graphics/SVG/1.1/DTD/svg11.dtd">
<svg version="1.1" id="Layer_3" xmlns="http://www.w3.org/2000/svg" xmlns:xlink="http://www.w3.org/1999/xlink" x="0px" y="0px"
	 width="4.031px" height="20.172px" viewBox="0 0 4.031 20.172" enable-background="new 0 0 4.031 20.172" xml:space="preserve">
<g>
	<path d="M0.127,17.995c0-0.51,0.187-0.952,0.561-1.326c0.374-0.374,0.82-0.561,1.34-0.561s0.966,0.187,1.34,0.561
		c0.374,0.374,0.561,0.82,0.561,1.34c0,0.529-0.187,0.98-0.561,1.354c-0.365,0.364-0.812,0.547-1.34,0.547
		c-0.538,0-0.989-0.183-1.354-0.547C0.309,18.998,0.127,18.542,0.127,17.995z M0.482,14.622L0.182,0h3.69l-0.3,14.622H0.482z"/>
</g>
</svg>
