<?xml version="1.0" encoding="utf-8"?>
<!DOCTYPE svg PUBLIC "-//W3C//DTD SVG 1.1//EN" "http://www.w3.org/Graphics/SVG/1.1/DTD/svg11.dtd">
<svg version="1.1" xmlns="http://www.w3.org/2000/svg" x="0px" y="0px" viewBox="0 0 72 72">
<g id="Icon">
<!-- Icon picto1d-08.svg -->
	<g>
		<path d="M36,0C16.118,0,0,16.117,0,36s16.118,36,36,36s36-16.117,36-36S55.882,0,36,0z M58.996,26.517L33.722,51.85
			c-0.728,0.73-2.166,1.327-3.196,1.327h-2.183c-1.03,0-2.468-0.599-3.195-1.327L13.245,39.893c-0.727-0.73-0.726-1.924,0.003-2.652
			l4.684-4.684c0.729-0.73,1.921-0.73,2.651-0.002l7.604,7.588c0.73,0.729,1.922,0.728,2.65-0.002l20.841-20.89
			c0.728-0.729,1.921-0.733,2.652-0.007l4.659,4.627C59.72,24.598,59.723,25.787,58.996,26.517z"/>
	</g>
</g>
</svg>
