<?xml version="1.0" encoding="utf-8"?>
<!-- Generator: Adobe Illustrator 16.0.4, SVG Export Plug-In . SVG Version: 6.00 Build 0)  -->
<!DOCTYPE svg PUBLIC "-//W3C//DTD SVG 1.1//EN" "http://www.w3.org/Graphics/SVG/1.1/DTD/svg11.dtd">
<svg version="1.1" xmlns="http://www.w3.org/2000/svg" xmlns:xlink="http://www.w3.org/1999/xlink" x="0px" y="0px" width="72px"
	 height="72px" viewBox="0 0 72 72" enable-background="new 0 0 72 72" xml:space="preserve">
<g id="Layer_1" display="none">
	<g display="inline">
		<g>
			<path d="M25.91,23.191H14.036c-4.466,0-8.12,3.653-8.12,8.12v15.501c0,3.705,2.518,6.844,5.923,7.809V72h4.011l0.013-21.078
				h-1.827c-2.266,0-4.11-1.844-4.11-4.109V31.311c0-2.266,1.844-4.109,4.11-4.109h11.873c2.266,0,4.11,1.844,4.11,4.109v15.501
				c0,2.268-1.844,4.111-4.11,4.111h-1.824L24.091,72h4.011V54.621c3.408-0.963,5.929-4.102,5.929-7.809V31.311
				C34.031,26.845,30.375,23.191,25.91,23.191z"/>
			<g>
				<path d="M62.64,31.957c2.33,0,4.215,1.889,4.215,4.218c0,2.329-1.885,4.217-4.215,4.217c-2.331,0-4.22-1.889-4.22-4.217
					C58.42,33.846,60.309,31.957,62.64,31.957z"/>
			</g>
			<g>
				<path d="M62.64,6.585c2.33,0,4.215,1.89,4.215,4.217c0,2.33-1.885,4.218-4.215,4.218c-2.331,0-4.22-1.888-4.22-4.218
					C58.42,8.475,60.309,6.585,62.64,6.585z"/>
			</g>
			<g>
				<path d="M62.64,57.32c2.33,0,4.215,1.889,4.215,4.219c0,2.326-1.885,4.215-4.215,4.215c-2.331,0-4.22-1.889-4.22-4.215
					C58.42,59.209,60.309,57.32,62.64,57.32z"/>
			</g>
			<path d="M52.065,59.531h-4.164V38.18h4.209c1.106,0,2.005-0.897,2.005-2.004c0-1.108-0.898-2.005-2.005-2.005h-4.209V12.808
				h4.164c1.108,0,2.007-0.898,2.007-2.006s-0.898-2.004-2.007-2.004h-6.116c-0.716,0-1.34,0.376-1.694,0.941
				c-0.228,0.325-0.364,0.719-0.364,1.147v23.285h-3.8c-1.108,0-2.007,0.897-2.007,2.004c0,1.107,0.898,2.004,2.007,2.004h3.8
				v23.238c0,0.305,0.073,0.592,0.195,0.85c0.293,0.748,1.015,1.273,1.863,1.273h6.116c1.108,0,2.007-0.898,2.007-2.002
				C54.072,60.43,53.174,59.531,52.065,59.531z"/>
		</g>
		<path d="M19.974,19.065c5.215,0,9.437-4.227,9.437-9.441s-4.222-9.441-9.437-9.441c-5.215,0-9.442,4.227-9.442,9.441
			C10.533,14.838,14.759,19.065,19.974,19.065z M19.974,4.194c2.991,0,5.426,2.435,5.426,5.43c0,2.993-2.435,5.431-5.426,5.431
			c-2.995,0-5.431-2.438-5.431-5.431C14.543,6.629,16.979,4.194,19.974,4.194z"/>
	</g>
</g>
<g id="Layer_2">
	<path d="M3.174,22.892h7.866V3.645c0-1.928,1.575-3.51,3.508-3.51l0,0c1.93,0,3.509,1.582,3.509,3.51v19.247h16.937V3.645
		c0-1.928,1.58-3.51,3.511-3.51l0,0c1.93,0,3.509,1.582,3.509,3.51v19.247h9.407v7.375h-6.85L42.16,50.018l-0.521,4.289H30.187
		c0.136,2.107,1.061,8.84,7.483,9.512c5.665,0.589,9.976-8.055,13.072-14.282c0.25-0.496,0.487-0.976,0.725-1.44
		c1.013-2.006,1.941-3.741,2.927-5.035c5.888-7.675,15.445-2.649,15.473-2.632l-3.555,7.047c-0.012,0-3.82-1.991-5.641,0.379
		c-0.725,0.954-1.713,2.929-2.849,5.215c-4.119,8.263-9.849,19.757-20.96,18.604c-13.108-1.381-14.46-14.345-14.596-17.366h-9.608
		L9.893,34.511l14.388-1.797v-2.447H3.174V22.892z"/>
</g>
</svg>
