<?xml version="1.0" encoding="utf-8"?>
<!-- Generator: Adobe Illustrator 16.0.4, SVG Export Plug-In . SVG Version: 6.00 Build 0)  -->
<!DOCTYPE svg PUBLIC "-//W3C//DTD SVG 1.1//EN" "http://www.w3.org/Graphics/SVG/1.1/DTD/svg11.dtd">
<svg version="1.1" id="Layer_1" xmlns="http://www.w3.org/2000/svg" xmlns:xlink="http://www.w3.org/1999/xlink" x="0px" y="0px"
	 width="72px" height="72px" viewBox="0 0 72 72" enable-background="new 0 0 72 72" xml:space="preserve">
<g>
	<g>
		<path d="M25.91,23.191H14.036c-4.466,0-8.12,3.653-8.12,8.12v15.501c0,3.705,2.518,6.844,5.923,7.809V72h4.011l0.013-21.078
			h-1.827c-2.266,0-4.11-1.844-4.11-4.109V31.311c0-2.266,1.844-4.109,4.11-4.109h11.873c2.266,0,4.11,1.844,4.11,4.109v15.501
			c0,2.268-1.844,4.111-4.11,4.111h-1.824L24.091,72h4.011V54.621c3.408-0.963,5.929-4.102,5.929-7.809V31.311
			C34.031,26.845,30.375,23.191,25.91,23.191z"/>
		<g>
			<path d="M62.64,31.957c2.33,0,4.215,1.889,4.215,4.218c0,2.329-1.885,4.217-4.215,4.217c-2.331,0-4.22-1.889-4.22-4.217
				C58.42,33.846,60.309,31.957,62.64,31.957z"/>
		</g>
		<g>
			<path d="M62.64,6.585c2.33,0,4.215,1.89,4.215,4.217c0,2.33-1.885,4.218-4.215,4.218c-2.331,0-4.22-1.888-4.22-4.218
				C58.42,8.475,60.309,6.585,62.64,6.585z"/>
		</g>
		<g>
			<path d="M62.64,57.32c2.33,0,4.215,1.889,4.215,4.219c0,2.326-1.885,4.215-4.215,4.215c-2.331,0-4.22-1.889-4.22-4.215
				C58.42,59.209,60.309,57.32,62.64,57.32z"/>
		</g>
		<path d="M52.065,59.531h-4.164V38.18h4.209c1.106,0,2.005-0.897,2.005-2.004c0-1.108-0.898-2.005-2.005-2.005h-4.209V12.808h4.164
			c1.108,0,2.007-0.898,2.007-2.006s-0.898-2.004-2.007-2.004h-6.116c-0.716,0-1.34,0.376-1.694,0.941
			c-0.228,0.325-0.364,0.719-0.364,1.147v23.285h-3.8c-1.108,0-2.007,0.897-2.007,2.004c0,1.107,0.898,2.004,2.007,2.004h3.8v23.238
			c0,0.305,0.073,0.592,0.195,0.85c0.293,0.748,1.015,1.273,1.863,1.273h6.116c1.108,0,2.007-0.898,2.007-2.002
			C54.072,60.43,53.174,59.531,52.065,59.531z"/>
	</g>
	<path d="M19.974,19.065c5.215,0,9.437-4.227,9.437-9.441s-4.222-9.441-9.437-9.441c-5.215,0-9.442,4.227-9.442,9.441
		C10.533,14.838,14.759,19.065,19.974,19.065z M19.974,4.194c2.991,0,5.426,2.435,5.426,5.43c0,2.993-2.435,5.431-5.426,5.431
		c-2.995,0-5.431-2.438-5.431-5.431C14.543,6.629,16.979,4.194,19.974,4.194z"/>
</g>
</svg>
