<?xml version="1.0" encoding="utf-8"?>
<!DOCTYPE svg PUBLIC "-//W3C//DTD SVG 1.1//EN" "http://www.w3.org/Graphics/SVG/1.1/DTD/svg11.dtd">
<svg version="1.1" xmlns="http://www.w3.org/2000/svg" x="0px" y="0px" viewBox="0 0 72 72">
<g id="Icon">
<!-- Icon picto1o-13.svg -->
	<g>
		<path d="M70.081,29.542l-10.746-1.979c-1.043-0.191-1.41-1.066-0.818-1.945l6.165-9.14c0.593-0.879,0.464-2.21-0.285-2.96
			l-5.914-5.912c-0.749-0.75-2.081-0.878-2.96-0.285l-9.14,6.165c-0.879,0.593-1.755,0.224-1.946-0.817l-1.979-10.75
			c-0.192-1.042-1.217-1.895-2.276-1.895h-8.364c-1.06,0-2.084,0.853-2.275,1.895l-1.978,10.749
			c-0.192,1.041-1.068,1.41-1.947,0.817l-9.138-6.164c-0.878-0.593-2.21-0.465-2.96,0.285l-5.914,5.913
			c-0.75,0.75-0.878,2.083-0.285,2.96l6.164,9.139c0.592,0.879,0.225,1.754-0.818,1.945L1.919,29.542
			c-1.043,0.192-1.895,1.217-1.895,2.276v8.362c0,1.06,0.852,2.084,1.895,2.276l10.75,1.979c1.041,0.192,1.409,1.068,0.816,1.946
			l-6.166,9.141c-0.593,0.879-0.465,2.21,0.285,2.96l5.914,5.913c0.75,0.75,2.082,0.879,2.96,0.285l9.138-6.162
			c0.879-0.595,1.755-0.225,1.947,0.815l1.978,10.747c0.191,1.042,1.216,1.895,2.275,1.895h8.364c1.059,0,2.084-0.853,2.276-1.895
			l1.979-10.748c0.191-1.041,1.067-1.41,1.946-0.815l9.14,6.163c0.879,0.594,2.211,0.465,2.96-0.285l5.913-5.911
			c0.75-0.751,0.878-2.082,0.285-2.961l-6.166-9.142c-0.593-0.878-0.225-1.754,0.816-1.946l10.75-1.979
			c1.043-0.192,1.895-1.217,1.895-2.276v-8.362C71.976,30.759,71.124,29.735,70.081,29.542z M35.995,49.03c-7.18,0-13-5.82-13-13
			s5.82-13,13-13s13,5.82,13,13S43.175,49.03,35.995,49.03z"/>
	</g>
</g>
</svg>
