<?xml version="1.0" encoding="utf-8"?>
<!-- Generator: Adobe Illustrator 16.0.4, SVG Export Plug-In . SVG Version: 6.00 Build 0)  -->
<!DOCTYPE svg PUBLIC "-//W3C//DTD SVG 1.1//EN" "http://www.w3.org/Graphics/SVG/1.1/DTD/svg11.dtd">
<svg version="1.1" id="Layer_1" xmlns="http://www.w3.org/2000/svg" xmlns:xlink="http://www.w3.org/1999/xlink" x="0px" y="0px"
	 width="33.167px" height="33.167px" viewBox="0 0 33.167 33.167" xml:space="preserve">
<g transform="translate(0,4.125)">
	<path fill="#FFFFFF" d="M0,0v24.893h33.159V0H0z M30.392,22.126H2.766V2.767h27.626V22.126z"/>
	<path fill="#FFFFFF" d="M5.502,17.051c0.593,0.481,1.464,0.391,1.946-0.202v-0.001l1.41-1.737l2.246,3.04
		c0.298,0.404,0.794,0.615,1.294,0.549c0.498-0.064,0.922-0.397,1.105-0.866l2.135-5.444l3.095,7.288
		c0.217,0.515,0.718,0.843,1.272,0.843c0.026,0,0.052,0,0.078-0.002c0.583-0.033,1.081-0.428,1.247-0.986l2.946-9.912l1.299,2.668
		c0.333,0.687,1.161,0.972,1.849,0.638c0.687-0.333,0.974-1.163,0.639-1.849l-2.854-5.865c-0.251-0.515-0.788-0.82-1.357-0.773
		c-0.571,0.047-1.05,0.435-1.213,0.984l-2.865,9.632L16.86,8.188c-0.22-0.519-0.729-0.852-1.293-0.843
		c-0.563,0.008-1.063,0.354-1.268,0.879l-2.458,6.271l-1.82-2.464c-0.256-0.345-0.652-0.55-1.081-0.561
		c-0.43-0.01-0.835,0.177-1.105,0.512L5.3,15.104C4.819,15.698,4.91,16.569,5.502,17.051z"/>
</g>
</svg>
