<?xml version="1.0" encoding="utf-8"?>
<!DOCTYPE svg PUBLIC "-//W3C//DTD SVG 1.1//EN" "http://www.w3.org/Graphics/SVG/1.1/DTD/svg11.dtd">
<svg version="1.1" xmlns="http://www.w3.org/2000/svg" x="0px" y="0px" viewBox="0 0 72 72">
<g id="Icon">
<!-- Icon picto1d-15.svg -->
	<g>
		<path d="M41.112,15.393c0.042,0,0.085,0,0.126,0c4.938-0.016,8.475-4.231,8.475-8.685c0-1.718-0.494-3.393-1.574-4.664
			c-1.076-1.275-2.749-2.09-4.861-2.081c-5.576,0.022-8.473,4.773-8.48,8.376C34.824,12.52,37.241,15.393,41.112,15.393z"/>
		<path d="M49.737,58.225l-2.203-4.835l-0.632,0.573c-2.67,2.456-6.794,5.285-7.414,5.359c-0.028-0.09-0.07-0.283-0.066-0.58
			c0-0.525,0.111-1.355,0.388-2.492l5.81-23.644c0.508-2.203,0.781-5.601,0.781-7.227c0-1.492-0.223-2.733-0.786-3.688
			c-0.55-0.969-1.571-1.568-2.744-1.549c-4.107,0.051-13.061,5.572-20.513,12.464l-0.404,0.375l2.063,5.598l0.702-0.525
			c1.989-1.546,6.016-4.495,6.932-4.825c-0.009,0.461-0.15,1.355-0.406,2.627l-5.296,22.811c-0.6,2.504-0.864,5.969-0.864,7.572
			c0,2.098,0.458,3.566,1.343,4.529c0.882,0.957,2.098,1.269,3.271,1.269c0.007,0,0.014,0,0.021,0
			c3.464-0.044,12.567-4.854,19.948-12.914l0.38-0.424L49.737,58.225z"/>
	</g>
</g>
</svg>
