<?xml version="1.0" encoding="utf-8"?>
<!-- Generator: Adobe Illustrator 16.0.4, SVG Export Plug-In . SVG Version: 6.00 Build 0)  -->
<!DOCTYPE svg PUBLIC "-//W3C//DTD SVG 1.1//EN" "http://www.w3.org/Graphics/SVG/1.1/DTD/svg11.dtd">
<svg version="1.1" xmlns="http://www.w3.org/2000/svg" xmlns:xlink="http://www.w3.org/1999/xlink" x="0px" y="0px" width="72px"
	 height="72px" viewBox="0 0 72 72" enable-background="new 0 0 72 72" xml:space="preserve">
<g id="Layer_1" display="none">
	<g display="inline">
		<g>
			<path d="M25.91,23.191H14.036c-4.466,0-8.12,3.653-8.12,8.12v15.501c0,3.705,2.518,6.844,5.923,7.809V72h4.011l0.013-21.078
				h-1.827c-2.266,0-4.11-1.844-4.11-4.109V31.311c0-2.266,1.844-4.109,4.11-4.109h11.873c2.266,0,4.11,1.844,4.11,4.109v15.501
				c0,2.268-1.844,4.111-4.11,4.111h-1.824L24.091,72h4.011V54.621c3.408-0.963,5.929-4.102,5.929-7.809V31.311
				C34.031,26.845,30.375,23.191,25.91,23.191z"/>
			<g>
				<path d="M62.64,31.957c2.33,0,4.215,1.889,4.215,4.218c0,2.329-1.885,4.217-4.215,4.217c-2.331,0-4.22-1.889-4.22-4.217
					C58.42,33.846,60.309,31.957,62.64,31.957z"/>
			</g>
			<g>
				<path d="M62.64,6.585c2.33,0,4.215,1.89,4.215,4.217c0,2.33-1.885,4.218-4.215,4.218c-2.331,0-4.22-1.888-4.22-4.218
					C58.42,8.475,60.309,6.585,62.64,6.585z"/>
			</g>
			<g>
				<path d="M62.64,57.32c2.33,0,4.215,1.889,4.215,4.219c0,2.326-1.885,4.215-4.215,4.215c-2.331,0-4.22-1.889-4.22-4.215
					C58.42,59.209,60.309,57.32,62.64,57.32z"/>
			</g>
			<path d="M52.065,59.531h-4.164V38.18h4.209c1.106,0,2.005-0.897,2.005-2.004c0-1.108-0.898-2.005-2.005-2.005h-4.209V12.808
				h4.164c1.108,0,2.007-0.898,2.007-2.006s-0.898-2.004-2.007-2.004h-6.116c-0.716,0-1.34,0.376-1.694,0.941
				c-0.228,0.325-0.364,0.719-0.364,1.147v23.285h-3.8c-1.108,0-2.007,0.897-2.007,2.004c0,1.107,0.898,2.004,2.007,2.004h3.8
				v23.238c0,0.305,0.073,0.592,0.195,0.85c0.293,0.748,1.015,1.273,1.863,1.273h6.116c1.108,0,2.007-0.898,2.007-2.002
				C54.072,60.43,53.174,59.531,52.065,59.531z"/>
		</g>
		<path d="M19.974,19.065c5.215,0,9.437-4.227,9.437-9.441s-4.222-9.441-9.437-9.441c-5.215,0-9.442,4.227-9.442,9.441
			C10.533,14.838,14.759,19.065,19.974,19.065z M19.974,4.194c2.991,0,5.426,2.435,5.426,5.43c0,2.993-2.435,5.431-5.426,5.431
			c-2.995,0-5.431-2.438-5.431-5.431C14.543,6.629,16.979,4.194,19.974,4.194z"/>
	</g>
</g>
<g id="Layer_2" display="none">
	<path display="inline" d="M3.174,22.892h7.866V3.645c0-1.928,1.575-3.51,3.508-3.51l0,0c1.93,0,3.509,1.582,3.509,3.51v19.247
		h16.937V3.645c0-1.928,1.58-3.51,3.511-3.51l0,0c1.93,0,3.509,1.582,3.509,3.51v19.247h9.407v7.375h-6.85L42.16,50.018
		l-0.521,4.289H30.187c0.136,2.107,1.061,8.84,7.483,9.512c5.665,0.589,9.976-8.055,13.072-14.282
		c0.25-0.496,0.487-0.976,0.725-1.44c1.013-2.006,1.941-3.741,2.927-5.035c5.888-7.675,15.445-2.649,15.473-2.632l-3.555,7.047
		c-0.012,0-3.82-1.991-5.641,0.379c-0.725,0.954-1.713,2.929-2.849,5.215c-4.119,8.263-9.849,19.757-20.96,18.604
		c-13.108-1.381-14.46-14.345-14.596-17.366h-9.608L9.893,34.511l14.388-1.797v-2.447H3.174V22.892z"/>
</g>
<g id="Layer_3" display="none">
	<g display="inline">
		<rect x="17.903" y="17.937" fill="#010101" width="30.734" height="4.472"/>
		<rect x="17.903" y="28.652" fill="#010101" width="30.734" height="4.472"/>
		<path fill="#010101" d="M61.618,0H4.982C4.157,0,3.49,0.665,3.49,1.491v49.667c-0.016,0.143-0.042,0.287-0.042,0.43
			c0,7.324,5.485,13.375,12.56,14.297l-0.043,0.031l44.165,5.631c1.646,0,2.981-1.336,2.981-2.98V1.491
			C63.111,0.665,62.44,0,61.618,0z M55.658,62.91L26.086,45.566c-0.695-0.439-1.258-0.131-1.258,0.693v5.1v-0.02
			c-0.007,0.084,0,0.164,0,0.248c0,3.846-3.111,6.977-6.956,6.977c-3.846,0-6.929-2.873-6.929-6.719c0-0.137,0.012-0.33,0-0.459
			v-0.189V7.452h44.715V62.91L55.658,62.91z"/>
	</g>
	<g display="inline">
		<path fill="#FFFFFF" d="M59.004,38.377c-4.064,0-7.354,3.291-7.354,7.354s3.293,7.355,7.354,7.355
			c4.062,0,7.354-3.293,7.354-7.355S63.066,38.377,59.004,38.377z"/>
		<g>
			<path fill="#010101" d="M58.868,34.232c-6.565,0-11.883,5.319-11.883,11.881c0,6.566,5.317,11.885,11.883,11.885
				c6.562,0,11.882-5.318,11.882-11.885C70.75,39.551,65.431,34.232,58.868,34.232z M57.034,50.324
				c-0.138,0.139-0.332,0.252-0.503,0.252s-0.365-0.119-0.508-0.256l-3.2-3.199l1.019-1.018l2.695,2.697l7.13-7.18l1,1.033
				L57.034,50.324z"/>
		</g>
	</g>
</g>
<g id="Layer_4">
	<g>
		<g>
			<path fill="#010101" d="M61.82,11.943H44.295v8.752H26.789v-8.752H9.265c-3.618,0-6.549,3.071-6.549,6.691v30.521
				c0,3.619,2.931,6.557,6.549,6.557H33.35v2.547c-1.853,0.658-3.314,2.158-3.974,4.018H15.847v4.342h13.529
				c0.907,2.545,3.31,4.377,6.162,4.377c2.855,0,5.262-1.832,6.163-4.377h13.532v-4.342H41.701
				c-0.657-1.859-2.126-3.359-3.976-4.018v-2.547h24.094c3.617,0,6.549-2.938,6.549-6.557V18.635
				C68.369,15.014,65.437,11.943,61.82,11.943z M55.237,40.391H37.731v-4.375h17.506V40.391L55.237,40.391z M55.237,31.639H37.731
				v-4.377h17.506V31.639L55.237,31.639z"/>
			<path fill="#010101" d="M42.107,7.566C42.107,3.941,39.169,1,35.545,1c-3.629,0-6.568,2.941-6.568,6.566v10.942h13.131V7.566z
				 M35.545,10.886c-1.832,0-3.318-1.485-3.318-3.315s1.486-3.315,3.318-3.315c1.828,0,3.316,1.485,3.316,3.315
				S37.373,10.886,35.545,10.886z"/>
		</g>
		<g>
			<path fill="#FFFFFF" d="M21.923,40.328c3.857,0,6.981-3.127,6.981-6.984c0-3.856-3.124-6.983-6.981-6.983
				s-6.983,3.127-6.983,6.983C14.94,37.201,18.066,40.328,21.923,40.328z M21.923,29.328c2.213,0,4.013,1.802,4.013,4.016
				c0,2.215-1.8,4.018-4.013,4.018c-2.214,0-4.016-1.802-4.016-4.018C17.908,31.13,19.709,29.328,21.923,29.328z"/>
		</g>
	</g>
</g>
</svg>
