<?xml version="1.0" encoding="utf-8"?>
<!-- Generator: Adobe Illustrator 16.0.4, SVG Export Plug-In . SVG Version: 6.00 Build 0)  -->
<!DOCTYPE svg PUBLIC "-//W3C//DTD SVG 1.1//EN" "http://www.w3.org/Graphics/SVG/1.1/DTD/svg11.dtd">
<svg version="1.1" id="Layer_1" xmlns="http://www.w3.org/2000/svg" xmlns:xlink="http://www.w3.org/1999/xlink" x="0px" y="0px"
	 width="72px" height="72px" viewBox="0 0 72 72" enable-background="new 0 0 72 72" xml:space="preserve">
<g>
	<g>
		<rect x="17.527" y="18.391" fill="#010101" width="30.734" height="4.472"/>
		<rect x="17.527" y="29.105" fill="#010101" width="30.734" height="4.472"/>
	</g>
	<path fill="#010101" d="M62.736,35.282V1.944c0-0.826-0.672-1.491-1.493-1.491H4.607c-0.825,0-1.492,0.665-1.492,1.491v49.667
		c-0.016,0.143-0.042,0.287-0.042,0.43c0,7.324,5.485,13.375,12.56,14.297l-0.043,0.031L59.755,72c1.646,0,2.981-1.336,2.981-2.98
		V57.521c4.507-1.688,7.722-6.021,7.722-11.121C70.458,41.303,67.243,36.969,62.736,35.282 M55.283,63.363L25.711,46.02
		c-0.695-0.439-1.258-0.131-1.258,0.692v5.08v0.021c-0.004,0.076,0,0.15,0,0.229c0,3.846-3.111,6.977-6.956,6.977
		c-3.846,0-6.929-2.873-6.929-6.719c0-0.137,0.012-0.33,0-0.459v-0.188V7.905h44.715V34.99c-4.96,1.428-8.59,5.99-8.59,11.41
		c0,5.422,3.63,9.984,8.59,11.412V63.363z M56.742,50.611c-0.139,0.139-0.332,0.252-0.504,0.252c-0.17,0-0.364-0.119-0.508-0.256
		l-3.199-3.199l1.019-1.018l2.695,2.696l7.13-7.18l1,1.032L56.742,50.611z"/>
</g>
</svg>
