<?xml version="1.0" encoding="utf-8"?>
<!-- Generator: Adobe Illustrator 17.0.1, SVG Export Plug-In . SVG Version: 6.00 Build 0)  -->
<!DOCTYPE svg PUBLIC "-//W3C//DTD SVG 1.1//EN" "http://www.w3.org/Graphics/SVG/1.1/DTD/svg11.dtd">
<svg version="1.1" xmlns="http://www.w3.org/2000/svg" xmlns:xlink="http://www.w3.org/1999/xlink" x="0px" y="0px" viewBox="0 0 72 72">
<g id="Icons">
	<g>
		<path d="M63.055,39.888H55.54h-2.503v2.504c0,9.393-7.643,17.036-17.037,17.036c-9.392,0-17.035-7.643-17.035-17.036
			c0-9.394,7.643-17.035,17.035-17.035c0.708,0,1.418,0.043,2.123,0.133v7.564v6.055l4.275-4.288l13.447-13.486l1.764-1.768
			l-1.765-1.767L42.397,4.332L38.123,0.05V6.1v6.812c-0.712-0.051-1.42-0.077-2.123-0.077c-16.298,0-29.557,13.259-29.557,29.557
			C6.443,58.689,19.702,71.95,36,71.95c16.299,0,29.557-13.261,29.557-29.558v-2.504H63.055z"/>
	</g>
</g>
</svg>
