<?xml version="1.0" encoding="utf-8"?>
<!DOCTYPE svg PUBLIC "-//W3C//DTD SVG 1.1//EN" "http://www.w3.org/Graphics/SVG/1.1/DTD/svg11.dtd">
<svg version="1.1" xmlns="http://www.w3.org/2000/svg" x="0px" y="0px" viewBox="0 0 72 72">
<g id="Icon">
<!-- Icon picto1d-09.svg -->
	<g>
		<path d="M72.009,60.852l-21.223-21.22c2.027-3.789,3.18-8.115,3.18-12.712c0-14.905-12.083-26.987-26.987-26.987
			S-0.009,12.015-0.009,26.92c0,14.903,12.083,26.987,26.987,26.987c4.535,0,8.806-1.124,12.557-3.101l21.259,21.261L72.009,60.852z
			 M8.991,26.92c0-9.918,8.069-17.987,17.987-17.987c9.919,0,17.987,8.069,17.987,17.987c0,9.918-8.069,17.987-17.987,17.987
			C17.06,44.907,8.991,36.839,8.991,26.92z"/>
	</g>
</g>
</svg>
