<?xml version="1.0" encoding="utf-8"?>
<!DOCTYPE svg PUBLIC "-//W3C//DTD SVG 1.1//EN" "http://www.w3.org/Graphics/SVG/1.1/DTD/svg11.dtd">
<svg version="1.1" xmlns="http://www.w3.org/2000/svg" x="0px" y="0px" viewBox="0 0 72 72">
<g id="Icon">
<!-- Icon picto1b-01.svg -->
	<g>
		<path d="M59.834,37.778v10.334c0,1.818-1.479,3.297-3.296,3.297H14.753v-0.502v-9.94l-14.78,14.839l14.78,14.813v-9.318h43.982
			c7.282,0,10.988-3.707,10.988-10.989V27.848l-7.807,7.838L59.834,37.778z"/>
		<path d="M12.149,34.238V23.904c0-1.816,1.478-3.296,3.296-3.296h41.802v0.484v9.941l14.78-14.84L57.247,1.382v9.336H13.248
			c-7.284,0-10.989,3.706-10.989,10.989v22.46l7.824-7.854L12.149,34.238z"/>
	</g>
</g>
</svg>
