<?xml version="1.0" encoding="utf-8"?>
<!DOCTYPE svg PUBLIC "-//W3C//DTD SVG 1.1//EN" "http://www.w3.org/Graphics/SVG/1.1/DTD/svg11.dtd">
<svg version="1.1" xmlns="http://www.w3.org/2000/svg" x="0px" y="0px" viewBox="0 0 72 72">
<g id="Icon">
	<g transform="scale(1.94,1.94)">
<path d="M33.781,11.313 C33.781,11.313 33.781,33.939 33.781,33.939 C33.781,35.188 32.772,36.201 31.529,36.201 C31.529,36.201 4.50399999999999,36.201 4.50399999999999,36.201 C3.261,36.201 2.252,35.188 2.252,33.939 C2.252,33.939 2.252,11.313 2.252,11.313 C2.252,11.313 0,11.313 0,11.313 C0,11.313 0,9.04999999999995 0,9.04999999999995 C0,7.80099999999993 1.009,6.78800000000001 2.252,6.78800000000001 C2.252,6.78800000000001 4.50399999999999,6.78800000000001 4.50399999999999,6.78800000000001 C4.50399999999999,6.78800000000001 6.756,6.78800000000001 6.756,6.78800000000001 C6.756,6.78800000000001 11.26,6.78800000000001 11.26,6.78800000000001 C11.26,6.78800000000001 11.26,2.26199999999994 11.26,2.26199999999994 C11.26,1.01300000000003 12.269,0 13.512,0 C13.512,0 22.521,0 22.521,0 C23.764,0 24.773,1.01300000000003 24.773,2.26199999999994 C24.773,2.26199999999994 24.773,6.78800000000001 24.773,6.78800000000001 C24.773,6.78800000000001 29.277,6.78800000000001 29.277,6.78800000000001 C29.277,6.78800000000001 31.529,6.78800000000001 31.529,6.78800000000001 C31.529,6.78800000000001 33.781,6.78800000000001 33.781,6.78800000000001 C35.024,6.78800000000001 36.033,7.80099999999993 36.033,9.04999999999995 C36.033,9.04999999999995 36.033,11.313 36.033,11.313 C36.033,11.313 33.781,11.313 33.781,11.313 ZM20.269,4.52499999999998 C20.269,4.52499999999998 15.764,4.52499999999998 15.764,4.52499999999998 C15.764,4.52499999999998 15.764,6.78800000000001 15.764,6.78800000000001 C15.764,6.78800000000001 20.269,6.78800000000001 20.269,6.78800000000001 C20.269,6.78800000000001 20.269,4.52499999999998 20.269,4.52499999999998 ZM29.277,11.313 C29.277,11.313 6.756,11.313 6.756,11.313 C6.756,11.313 6.756,31.6759999999999 6.756,31.6759999999999 C6.756,31.6759999999999 29.277,31.6759999999999 29.277,31.6759999999999 C29.277,31.6759999999999 29.277,11.313 29.277,11.313 ZM15.764,27.151 C15.764,27.151 11.26,27.151 11.26,27.151 C11.26,27.151 11.26,15.838 11.26,15.838 C11.26,15.838 15.764,15.838 15.764,15.838 C15.764,15.838 15.764,27.151 15.764,27.151 ZM24.773,27.151 C24.773,27.151 20.269,27.151 20.269,27.151 C20.269,27.151 20.269,15.838 20.269,15.838 C20.269,15.838 24.773,15.838 24.773,15.838 C24.773,15.838 24.773,27.151 24.773,27.151 Z "/>
	</g>
</g>
</svg>
