<?xml version="1.0" encoding="utf-8"?>
<!DOCTYPE svg PUBLIC "-//W3C//DTD SVG 1.1//EN" "http://www.w3.org/Graphics/SVG/1.1/DTD/svg11.dtd">
<svg version="1.1" xmlns="http://www.w3.org/2000/svg" x="0px" y="0px" viewBox="0 0 72 72">
<g id="Icon"> 
<!-- Icon picto1n-09.svg -->
	<path d="M62.986,51.676c-4.349-1.933-10.802-6.912-20.356-8.623c2.443-2.615,4.293-6.705,6.195-11.551
		c1.103-2.808,0.913-5.201,0.913-8.609c0-2.518,0.475-6.558-0.15-8.778C47.48,6.61,42.155,4.54,35.915,4.54
		c-6.244,0-11.575,2.08-13.679,9.597c-0.62,2.214-0.145,6.245-0.145,8.756c0,3.416-0.186,5.817,0.92,8.63
		c1.917,4.87,3.739,8.954,6.174,11.559c-9.479,1.742-15.883,6.685-20.204,8.611c-8.941,3.987-8.985,8.353-8.985,8.353v7.415
		l72.007-0.009v-7.406C72.003,60.045,71.961,55.665,62.986,51.676z"/>
</g>
</svg>
