<?xml version="1.0" encoding="utf-8"?>
<!DOCTYPE svg PUBLIC "-//W3C//DTD SVG 1.1//EN" "http://www.w3.org/Graphics/SVG/1.1/DTD/svg11.dtd">
<svg version="1.1" xmlns="http://www.w3.org/2000/svg" x="0px" y="0px" viewBox="0 0 72 72">
<g id="Icon"> 
<!-- Icon picto1n-11.svg -->
	<g>
		<path d="M71.984,50.382c0,0-0.017-1.759-3.62-3.359c-1.745-0.776-4.336-2.775-8.172-3.462c0.98-1.05,1.724-2.692,2.487-4.638
			c0.442-1.127,0.367-2.088,0.367-3.455c0-1.012,0.189-2.634-0.061-3.525c-0.847-3.012-2.984-3.843-5.489-3.843
			c-2.506,0-4.646,0.835-5.491,3.853c-0.249,0.889-0.058,2.507-0.058,3.516c0,1.37-0.075,2.335,0.369,3.464
			c0.63,1.601,1.236,2.983,1.971,4.007c4.249,2.563,4.647,5.399,4.655,6.299v0.015v0.015v4.087v0.003l13.041-0.001V50.382z"/>
		<path d="M13.025,49.251v-0.016c0.01-0.892,0.403-3.691,4.564-6.238c0.762-1.034,1.389-2.445,2.028-4.074
			c0.442-1.127,0.367-2.088,0.367-3.455c0-1.012,0.19-2.634-0.061-3.525c-0.847-3.012-2.984-3.843-5.489-3.843
			c-2.507,0-4.647,0.835-5.491,3.853c-0.249,0.889-0.058,2.507-0.058,3.516c0,1.37-0.074,2.335,0.369,3.464
			c0.77,1.955,1.501,3.595,2.479,4.64c-3.805,0.699-6.376,2.683-8.111,3.458c-3.59,1.6-3.606,3.353-3.606,3.353v2.977l13.009-0.002
			v-4.09V49.251z"/>
		<path d="M50.873,44.649c-2.399-1.066-5.96-3.813-11.231-4.758c1.348-1.443,2.368-3.699,3.418-6.373
			c0.608-1.55,0.504-2.87,0.504-4.751c0-1.39,0.262-3.618-0.083-4.843c-1.163-4.141-4.101-5.283-7.544-5.283
			c-3.445,0-6.387,1.147-7.547,5.295c-0.343,1.222-0.08,3.446-0.08,4.831c0,1.886-0.103,3.21,0.508,4.762
			c1.058,2.688,2.063,4.94,3.406,6.378c-5.23,0.961-8.764,3.688-11.147,4.751c-4.934,2.2-4.958,4.608-4.958,4.608v4.092l39.73-0.005
			v-4.087C55.849,49.267,55.826,46.851,50.873,44.649z"/>
	</g>
</g>
</svg>
