<svg id="icon-horizon" xmlns="http://www.w3.org/2000/svg" width="24" height="24" viewBox="0 0 24 24">
  <path d="M18.78,5.61H5.33a.85.85,0,0,0-.87.82v8.91a.85.85,0,0,0,.87.82h6.27v2.28H8.25a.43.43,0,0,0,0,.85h7.53a.41.41,0,1,0,.11-.81H12.47V16.2h6.32a.85.85,0,0,0,.87-.83s0,0,0,0V6.43A.85.85,0,0,0,18.78,5.61Zm0,9.73H5.33V6.43H18.78Z" stroke-width="0"/>
  <path d="M11.29,9.18h1.58A.18.18,0,0,0,13.07,9h0V8.14A.18.18,0,0,0,12.88,8H11.29a.18.18,0,0,0-.19.17h0V9a.18.18,0,0,0,.19.17Z" stroke-width="0"/>
  <path d="M11.29,11.11v-.87a.18.18,0,0,0-.19-.17H9.55a.18.18,0,0,0-.19.17h0v.87a.18.18,0,0,0,.19.17h1.58A.18.18,0,0,0,11.29,11.11Z" stroke-width="0"/>
  <path d="M14.74,11.11v-.87a.18.18,0,0,0-.19-.17H13a.18.18,0,0,0-.19.17h0v.87a.18.18,0,0,0,.19.17h1.58a.18.18,0,0,0,.19-.17Z" stroke-width="0"/>
  <path d="M9.28,12.46H7.69a.18.18,0,0,0-.19.17h0v1.08a.18.18,0,0,0,.19.17H9.28a.18.18,0,0,0,.19-.17h0V12.6A.18.18,0,0,0,9.28,12.46Z" stroke-width="0"/>
  <path d="M12.85,12.46H11.29a.18.18,0,0,0-.19.17h0v1.08a.18.18,0,0,0,.19.17h1.59a.18.18,0,0,0,.19-.17h0V12.6a.18.18,0,0,0-.21-.15Z" stroke-width="0"/>
  <path d="M16.43,12.46H14.85a.18.18,0,0,0-.19.17h0v1.08a.18.18,0,0,0,.19.17h1.59a.18.18,0,0,0,.19-.17h0V12.6A.18.18,0,0,0,16.43,12.46Z" stroke-width="0"/>
</svg>