<svg id="icon-install-update" xmlns="http://www.w3.org/2000/svg" width="32" height="32" viewBox="0 0 32 32">
	<path d="M3.55,18.11v3.2a1.6,1.6,0,0,0,1.59,1.61H18.77a1.6,1.6,0,0,0,1.6-1.6h0v-3.2" fill="none" stroke-width="1.3"/>
	<path d="M23.3,12.49a6.95,6.95,0,1,0,7,7h0A7,7,0,0,0,23.3,12.49Z" fill="#fff" stroke-width="0"/>
	<polygon points="14.52 13.77 14.52 7.55 9.4 7.55 9.4 13.77 6.47 13.77 11.96 19.26 17.45 13.77 14.52 13.77" fill-opacity="0.5" stroke-width="1.3"/>
	<path d="M23.3,13.59a5.85,5.85,0,1,1-5.85,5.85,5.85,5.85,0,0,1,5.85-5.85ZM20.9,17.2l-2,2.54a.08.08,0,0,0,0,.11H20a.08.08,0,0,1,.07.07,3.93,3.93,0,0,0,3.5,3.37.08.08,0,1,0,.06-.15,3.62,3.62,0,0,1-1.9-3.21.08.08,0,0,1,.08-.08h1a.08.08,0,0,0,.07-.12L21,17.2a.08.08,0,0,0-.1,0Zm4.8,4.49,2-2.54a.08.08,0,0,0,0-.11H26.54a.08.08,0,0,1-.07-.07A3.93,3.93,0,0,0,23,15.6a.08.08,0,0,0-.06.15h0A3.62,3.62,0,0,1,24.81,19a.08.08,0,0,1-.08.08h-1a.08.08,0,0,0-.07.12l2,2.53a.08.08,0,0,0,.11,0Z " stroke-width="0"/>
</svg>