<svg id="icon-twitter"  xmlns="http://www.w3.org/2000/svg" viewBox="0 0 32 32">
	<path d="M12,24.75A12.49,12.49,0,0,0,24.58,12.18a5.43,5.43,0,0,0,0-.57,9.08,9.08,0,0,0,2.21-2.29,8.63,8.63,0,0,1-2.54.69,4.44,4.44,0,0,0,1.94-2.44,8.74,8.74,0,0,1-2.8,1.07,4.42,4.42,0,0,0-7.53,4A12.53,12.53,0,0,1,6.73,8.06,4.42,4.42,0,0,0,8.1,14a4.45,4.45,0,0,1-2-.55v.06a4.43,4.43,0,0,0,3.55,4.33,4.5,4.5,0,0,1-2,.07,4.42,4.42,0,0,0,4.13,3.07,8.88,8.88,0,0,1-5.49,1.9,9.26,9.26,0,0,1-1-.07,12.41,12.41,0,0,0,6.77,2" style="fill:#1da1f2" stroke-width="0"/>
</svg>