<svg id="icon-warning-big" xmlns="http://www.w3.org/2000/svg" width="32" height="32" viewBox="0 0 32 32">
    <path d="M28.48,24.65,17.64,5.88a1.46,1.46,0,0,0-1.28-.74h0a1.46,1.46,0,0,0-1.28.74L4.25,24.64a1.48,1.48,0,0,0,1.28,2.22H27.2a1.48,1.48,0,0,0,1.28-2.21Zm-1.07.86a.24.24,0,0,1-.21.12H5.53a.24.24,0,0,1-.21-.37L16.15,6.49a.24.24,0,0,1,.21-.12h0a.24.24,0,0,1,.21.12L27.41,25.26A.23.23,0,0,1,27.41,25.51Z" fill="#f38b00" stroke-width="0"/>
    <circle cx="16.36" cy="13.53" r="0.92" fill="#f38b00" stroke-width="0"/>
    <path d="M16.36,16.43a.62.62,0,0,0-.62.62v5.55a.62.62,0,0,0,1.23,0V17A.62.62,0,0,0,16.36,16.43Z" fill="#f38b00" stroke-width="0"/>
</svg>