<svg id="Layer_1" data-name="Layer 1" xmlns="http://www.w3.org/2000/svg" width="40" height="40" viewBox="0 0 40 40">
	<circle id="circle" cx="20" cy="20" r="20" stroke-width="0"/>
	<path d="M27.56,27.72H12.44a1,1,0,0,1-.94-.94V22a1,1,0,0,1,.94-.94H27.56a1,1,0,0,1,.94.94v4.72A.94.94,0,0,1,27.56,27.72Z" fill="none" stroke="#fff" stroke-linecap="round" stroke-linejoin="round" stroke-width="1.3"/>
	<path d="M23.5,23.91h0a1,1,0,0,1-1,1h-5a1,1,0,0,1-1-1h0" fill="none" stroke="#fff" stroke-linecap="round" stroke-linejoin="round" stroke-width="1.3"/>
	<path d="M20.19,18.54l2.88-3.16a.12.12,0,0,0-.09-.19H21.44a.11.11,0,0,1-.11-.1,5.77,5.77,0,0,0-5.09-5,.12.12,0,0,0-.08.21c2.22,1.55,2.75,3.06,2.76,4.77a.12.12,0,0,1-.12.12H17.27a.12.12,0,0,0-.09.19L20,18.54A.11.11,0,0,0,20.19,18.54Z" fill="#fff" stroke-width="0"/>
	<path d="M15.7,14.12h-.43c-.52,0-.79.57-.94.95L11.5,21.72" fill="none" stroke="#fff" stroke-linecap="round" stroke-linejoin="round" stroke-width="1.3"/>
	<path d="M24.3,14.12h.43c.52,0,.79.57.94.95l2.83,6.65" fill="none" stroke="#fff" stroke-linecap="round" stroke-linejoin="round" stroke-width="1.3"/>
</svg>