<svg id="horizon_green" xmlns="http://www.w3.org/2000/svg" xmlns:xlink="http://www.w3.org/1999/xlink" width="82" height="82" viewBox="0 0 82 82">
    <path d="M80,82H2a2,2,0,0,1-2-2V2A2,2,0,0,1,2,0H80a2,2,0,0,1,2,2V80A2,2,0,0,1,80,82Z" fill="#439137" stroke-width="0"/>
    <path d="M43.4,30.41H38.61a.58.58,0,0,1-.58-.58h0V27a.58.58,0,0,1,.58-.58H43.4A.58.58,0,0,1,44,27v2.83a.58.58,0,0,1-.56.6Z" fill="#fff" stroke-width="0"/>
    <path d="M38.2,37.24H33.41a.58.58,0,0,1-.58-.58h0v-2.8a.58.58,0,0,1,.58-.58H38.2a.58.58,0,0,1,.58.58h0v2.81A.58.58,0,0,1,38.2,37.24Z" fill="#fff" stroke-width="0"/>
    <path d="M48.52,37.24H43.73a.58.58,0,0,1-.58-.58h0v-2.8a.58.58,0,0,1,.58-.58h4.79a.58.58,0,0,1,.57.58v2.81A.58.58,0,0,1,48.52,37.24Z" fill="#fff" stroke-width="0"/>
    <path d="M32.59,45.54H27.78a.57.57,0,0,1-.57-.57V41.49a.57.57,0,0,1,.57-.57h4.81a.57.57,0,0,1,.57.57V45A.57.57,0,0,1,32.59,45.54Z" fill="#fff" stroke-width="0"/>
    <path d="M43.4,45.54H38.6A.57.57,0,0,1,38,45h0V41.49a.57.57,0,0,1,.57-.57H43.4a.57.57,0,0,1,.57.57V45A.57.57,0,0,1,43.4,45.54Z" fill="#fff" stroke-width="0"/>
    <path d="M54.22,45.54H49.41a.57.57,0,0,1-.57-.57V41.49a.57.57,0,0,1,.57-.57h4.81a.57.57,0,0,1,.57.57V45A.57.57,0,0,1,54.22,45.54Z" fill="#fff" stroke-width="0"/>
    <path d="M61.37,18.83H20.66A2.69,2.69,0,0,0,18,21.52V50.36A2.66,2.66,0,0,0,20.66,53H39.58v7.52H29.44a1.32,1.32,0,0,0,0,2.64H52.21a1.32,1.32,0,0,0,0-2.64h-10V53H61.37A2.63,2.63,0,0,0,64,50.37h0V21.52A2.66,2.66,0,0,0,61.37,18.83ZM61,50.26H21V21.7H61Z" fill="#fff" stroke-width="0"/>
</svg>