<svg id="icon-empty-notification" xmlns="http://www.w3.org/2000/svg" viewBox="0 0 160 200">
	<path d="M126.3,187.9H18.2a8,8,0,0,1-8-7.9V49.8a7.94,7.94,0,0,1,8-7.9H126.3a8,8,0,0,1,8,7.9V180A8.14,8.14,0,0,1,126.3,187.9Z" style="fill:#d7dadd;stroke:#abb1b7;stroke-linecap:round;stroke-linejoin:round;stroke-width:3px"/>
	<path d="M119.3,176.9H25.1a3.93,3.93,0,0,1-3.9-4V56.9a4,4,0,0,1,3.9-4h94.1a3.93,3.93,0,0,1,3.9,4V173A3.82,3.82,0,0,1,119.3,176.9Z" style="fill:#fff;stroke:#abb1b7;stroke-linecap:round;stroke-linejoin:round;stroke-width:3px"/>
	<path d="M109.7,52.3c0,2.3-2.2,6.8-4.5,6.8h-66c-2.3,0-4.5-4.6-4.5-6.8A14.78,14.78,0,0,1,49.5,38.1H65.4V34.6A14.78,14.78,0,1,1,87,21.5a14.7,14.7,0,0,1-8,13.1v3.5H95A14.76,14.76,0,0,1,109.7,52.3Z" style="fill:#edf1f4;stroke:#abb1b7;stroke-linecap:round;stroke-linejoin:round;stroke-width:3px"/>
	<line x1="44.2" y1="51.6" x2="100.2" y2="51.6" style="fill:none;stroke:#abb1b7;stroke-linecap:round;stroke-linejoin:round;stroke-width:3px"/>
	<circle cx="72.2" cy="21.5" r="4.5" style="fill:#fff;stroke:#abb1b7;stroke-linecap:round;stroke-linejoin:round;stroke-width:3px"/>
	<path d="M91.7,85.5H39.1a.94.94,0,0,1-1-1V74.8a.94.94,0,0,1,1-1H91.7a.94.94,0,0,1,1,1v9.7A1,1,0,0,1,91.7,85.5Z" style="fill:#edf1f4" stroke-width="0"/>
	<path d="M105.3,110H39.1a.94.94,0,0,1-1-1V99.3a.94.94,0,0,1,1-1h66.3a.94.94,0,0,1,1,1V109A1.18,1.18,0,0,1,105.3,110Z" style="fill:#edf1f4" stroke-width="0"/>
	<path d="M71.2,134.5H39.1a.94.94,0,0,1-1-1v-9.7a.94.94,0,0,1,1-1H71.2a.94.94,0,0,1,1,1v9.7A1,1,0,0,1,71.2,134.5Z" style="fill:#edf1f4" stroke-width="0"/>
	<path d="M79.1,158.9H39a.92.92,0,0,1-.9-1v-9.7a.92.92,0,0,1,.9-1H79.1a.92.92,0,0,1,.9,1v9.7A.92.92,0,0,1,79.1,158.9Z" style="fill:#edf1f4" stroke-width="0"/>
	<path d="M94.9,175.4h24.6a2.22,2.22,0,0,0,2.2-2.2V148.6a1.86,1.86,0,0,0-3.2-1.3l-25,25A1.85,1.85,0,0,0,94.9,175.4Z" style="fill:#edf1f4" stroke-width="0"/>
	<path d="M122.5,145.5H94a2.48,2.48,0,0,0-2.5,2.5v28.5Z" style="fill:#fff;stroke:#abb1b7;stroke-linecap:round;stroke-linejoin:round;stroke-width:3px"/>
	<path d="M107.5,87.1l-6.2-5.2a1,1,0,0,0-1.4.1l-36,43L47,109.2a1,1,0,0,0-1.4.1l-5.5,6.2c-.5.5-.3.9.3,1.4l23,21.5a1.72,1.72,0,0,0,2.4-.1l2-2.2c.1-.1.1-.2.2-.3l.3-.3,39.3-46.8A1.19,1.19,0,0,0,107.5,87.1Z" style="fill:#c8ea7d;stroke:#99d159;stroke-linecap:round;stroke-linejoin:round;stroke-width:3px"/>
	<line x1="143.4" y1="32.5" x2="147.3" y2="27.9" style="fill:none;stroke:#99d159;stroke-linecap:round;stroke-linejoin:round;stroke-width:3px"/>
	<line x1="148.9" y1="41.6" x2="155.1" y2="40.5" style="fill:none;stroke:#99d159;stroke-linecap:round;stroke-linejoin:round;stroke-width:3px"/>
	<line x1="133.6" y1="28.6" x2="133.6" y2="22.2" style="fill:none;stroke:#99d159;stroke-linecap:round;stroke-linejoin:round;stroke-width:3px"/>
</svg>
