<svg id="icon-apps" xmlns="http://www.w3.org/2000/svg" width="32" height="32" viewBox="0 0 32 32">
    <polygon points="25.24 21.74 25.24 21.74 25.24 21.74 25.24 17.21 25.24 12.69 21.31 14.95 17.39 17.21 17.39 17.21 17.39 17.21 17.39 17.21 17.39 17.21 17.39 21.74 17.39 26.27 21.31 24 25.24 21.74 25.24 21.74 25.24 21.74" stroke-width="1.3"/>
    <polygon points="6.76 21.74 6.76 21.74 6.76 21.74 6.76 17.21 6.76 12.69 10.69 14.95 14.62 17.21 14.62 17.21 14.62 17.21 14.62 17.21 14.62 17.21 14.62 21.74 14.62 26.27 10.69 24 6.76 21.74 6.76 21.74 6.76 21.74" stroke-width="1.3"/>
    <polygon points="15.99 5.74 15.99 5.73 15.99 5.74 24.31 10.16 16 14.74 16 14.74 16 14.74 16 14.74 16 14.74 7.69 10.16 15.99 5.74 15.99 5.74 15.99 5.74" stroke-width="1.3"/>
</svg>