<svg id="icon-alert" xmlns="http://www.w3.org/2000/svg" viewBox="0 0 40 40">
    <circle id="Oval-2" cx="20" cy="20" r="20" style="fill:#f38b00;fill-opacity:0.20000000298023224" stroke-width="0"/>
    <path id="Fill-1" d="M25.08,25.88a.51.51,0,0,1-.09-.49l1.68-4.61a6.78,6.78,0,0,0-4.29-8.36,6.78,6.78,0,0,0-8.66,3.66L12,20.68a.5.5,0,0,1-.37.32A3.41,3.41,0,0,0,9,23.42a.93.93,0,0,0,.59,1.11L24.38,29.9a.94.94,0,0,0,1.16-.47,3.43,3.43,0,0,0-.46-3.55" style="fill:#f38b00" stroke-width="0"/>
    <path id="Fill-4" d="M19.29,29.38a2.11,2.11,0,0,1-.09.36,2.76,2.76,0,0,1-3.63,1.4,2.75,2.75,0,0,1-1.88-3.4,1.73,1.73,0,0,1,.14-.31" style="fill:#f38b00" stroke-width="0"/>
    <path id="Fill-7" d="M22.83,11.2a6.71,6.71,0,0,1,1.7,1,2.92,2.92,0,0,0,.14-.31,2.08,2.08,0,0,0-1.08-2.73A2.08,2.08,0,0,0,21,10.5c0,.11-.06.22-.09.33a6.86,6.86,0,0,1,1.92.37" style="fill:#f38b00" stroke-width="0"/>
</svg>