<svg id="icon-recommend" xmlns="http://www.w3.org/2000/svg" width="64" height="64" viewBox="0 0 64 64">
	<path d="M25.9,40.8H21l-5.3,9.1a1.13,1.13,0,0,0,.4,1.5l4.3-1.1Z" fill="#fff9de" stroke-width="0"/>
	<polygon points="25.9 40.8 21 40.8 20.7 41.1 18.9 44.2 23.8 44.5 27.4 47.3 29.3 44 25.9 40.8" fill="#ffedbb" stroke-width="0"/>
	<path d="M37.8,40.9,35,43.7l5.9,10.5a1.23,1.23,0,0,0,1.6.4l1.1-3.7Z" fill="#fff9de" stroke-width="0"/>
	<polygon points="43 40.8 42.8 40.8 37.8 40.9 34.6 44.1 36.6 47.6 39.8 44.4 45.1 44.4 43 40.8" fill="#ffedbb" stroke-width="0"/>
	<path d="M43,40.6l5.3,9.1a1.13,1.13,0,0,1-.4,1.5L44,50.8l-1.9,3.7a1.13,1.13,0,0,1-1.5-.4L34.7,43.8" fill="none" stroke="#eab853" stroke-linecap="round" stroke-linejoin="round" stroke-width="2"/>
	<path d="M21,40.6l-5.3,9.1a1.13,1.13,0,0,0,.4,1.5l3.9-.4,1.9,3.7a1.13,1.13,0,0,0,1.5-.4l5.9-10.3" fill="none" stroke="#eab853" stroke-linecap="round" stroke-linejoin="round" stroke-width="2"/>
	<path d="M49.5,25.9l-4.2-4.2v-6a1.79,1.79,0,0,0-1.8-1.8h-6L33.3,9.7a1.75,1.75,0,0,0-2.5,0l-4.2,4.2h-6a1.79,1.79,0,0,0-1.8,1.8v6l-4.2,4.2a1.75,1.75,0,0,0,0,2.5l4.2,4.2v6a1.79,1.79,0,0,0,1.8,1.8h6l4.2,4.2a1.75,1.75,0,0,0,2.5,0l4.2-4.2h6a1.79,1.79,0,0,0,1.8-1.8v-6l4.2-4.2A1.75,1.75,0,0,0,49.5,25.9Z" fill="#fff2bb" stroke-width="0"/>
	<path d="M32,9.1a1.66,1.66,0,0,0-1.2.5l-4.2,4.2h-6a1.79,1.79,0,0,0-1.8,1.8v6l-4.2,4.2a1.75,1.75,0,0,0,0,2.5l4.2,4.2v6a1.79,1.79,0,0,0,1.8,1.8h6l4.2,4.2A1.85,1.85,0,0,0,32,45V9.1Z" fill="#ffe197" stroke-width="0"/>
	<path d="M49.5,25.9l-4.2-4.2v-6a1.79,1.79,0,0,0-1.8-1.8h-6L33.3,9.7a1.75,1.75,0,0,0-2.5,0l-4.2,4.2h-6a1.79,1.79,0,0,0-1.8,1.8v6l-4.2,4.2a1.75,1.75,0,0,0,0,2.5l4.2,4.2v6a1.79,1.79,0,0,0,1.8,1.8h6l4.2,4.2a1.75,1.75,0,0,0,2.5,0l4.2-4.2h6a1.79,1.79,0,0,0,1.8-1.8v-6l4.2-4.2A1.75,1.75,0,0,0,49.5,25.9Z" fill="none" stroke="#eab853" stroke-linecap="round" stroke-linejoin="round" stroke-width="2"/>
	<circle cx="32" cy="27.1" r="12" fill="#fff9de" stroke-width="0"/>
	<path d="M32,15.1h0a12,12,0,1,0,0,24h0Z" fill="#fff2c7" stroke-width="0"/>
	<circle cx="32" cy="27.1" r="8" fill="#fffef8" stroke-width="0"/>
	<path d="M35.6,26.9a4.08,4.08,0,0,1-4.5,3.7" fill="none" stroke="#eab853" stroke-linecap="round" stroke-linejoin="round" stroke-width="2"/>
	<circle cx="32" cy="27.1" r="8" fill="none" stroke="#eab853" stroke-linecap="round" stroke-linejoin="round" stroke-width="2"/>
</svg>