<svg id="illo-productibity" xmlns="http://www.w3.org/2000/svg" width="56" height="56" viewBox="0 0 56 56">
    <path d="M40.75,28a12.75,12.75,0,1,0-18,11.49v3.59L33.29,41.9V39.52A12.63,12.63,0,0,0,40.75,28Z" fill="none" stroke="#6c747d" stroke-linecap="round" stroke-linejoin="round" stroke-width="2"/>
    <line x1="22.69" y1="46.75" x2="33.31" y2="45.6" fill="none" stroke="#6c747d" stroke-linecap="round" stroke-linejoin="round" stroke-width="2"/>
    <path d="M24.82,47.37A3.1,3.1,0,0,0,28,49.9,3.06,3.06,0,0,0,31.19,47a2.53,2.53,0,0,0,0-.3" fill="none" stroke="#6c747d" stroke-linecap="round" stroke-linejoin="round" stroke-width="2"/>
    <polyline points="28 27.03 30.74 31.46 33.55 27.03" fill="none" stroke="#6c747d" stroke-linecap="round" stroke-linejoin="round" stroke-width="2"/>
    <polyline points="22.45 27.03 25.2 31.46 28 27.03" fill="none" stroke="#6c747d" stroke-linecap="round" stroke-linejoin="round" stroke-width="2"/>
    <line x1="28" y1="5.9" x2="28" y2="10.15" fill="none" stroke="#6c747d" stroke-linecap="round" stroke-linejoin="round" stroke-width="2"/>
    <line x1="19.41" y1="12.4" x2="16.97" y2="8.92" fill="none" stroke="#6c747d" stroke-linecap="round" stroke-linejoin="round" stroke-width="2"/>
    <line x1="36.59" y1="12.44" x2="39.03" y2="8.96" fill="none" stroke="#6c747d" stroke-linecap="round" stroke-linejoin="round" stroke-width="2"/>
    <line x1="13.42" y1="19.02" x2="9.93" y2="16.58" fill="none" stroke="#6c747d" stroke-linecap="round" stroke-linejoin="round" stroke-width="2"/>
    <line x1="42.58" y1="19.02" x2="46.07" y2="16.58" fill="none" stroke="#6c747d" stroke-linecap="round" stroke-linejoin="round" stroke-width="2"/>
</svg>